<?xml version="1.0" encoding="utf-8"?>
<svg xmlns="http://www.w3.org/2000/svg" xmlns:xlink="http://www.w3.org/1999/xlink" width="600" height="400" viewBox="0 0 2400 1600">
<defs>
  <clipPath id="clip820">
    <rect x="0" y="0" width="2400" height="1600"/>
  </clipPath>
</defs>
<path clip-path="url(#clip820)" d="M0 1600 L2400 1600 L2400 0 L0 0  Z" fill="#ffffff" fill-rule="evenodd" fill-opacity="1"/>
<defs>
  <clipPath id="clip821">
    <rect x="480" y="0" width="1681" height="1600"/>
  </clipPath>
</defs>
<path clip-path="url(#clip820)" d="M212.459 1423.18 L2352.76 1423.18 L2352.76 47.2441 L212.459 47.2441  Z" fill="#ffffff" fill-rule="evenodd" fill-opacity="1"/>
<defs>
  <clipPath id="clip822">
    <rect x="212" y="47" width="2141" height="1377"/>
  </clipPath>
</defs>
<polyline clip-path="url(#clip822)" style="stroke:#000000; stroke-linecap:round; stroke-linejoin:round; stroke-width:2; stroke-opacity:0.1; fill:none" points="499.529,1423.18 499.529,47.2441 "/>
<polyline clip-path="url(#clip822)" style="stroke:#000000; stroke-linecap:round; stroke-linejoin:round; stroke-width:2; stroke-opacity:0.1; fill:none" points="858.059,1423.18 858.059,47.2441 "/>
<polyline clip-path="url(#clip822)" style="stroke:#000000; stroke-linecap:round; stroke-linejoin:round; stroke-width:2; stroke-opacity:0.1; fill:none" points="1216.59,1423.18 1216.59,47.2441 "/>
<polyline clip-path="url(#clip822)" style="stroke:#000000; stroke-linecap:round; stroke-linejoin:round; stroke-width:2; stroke-opacity:0.1; fill:none" points="1575.12,1423.18 1575.12,47.2441 "/>
<polyline clip-path="url(#clip822)" style="stroke:#000000; stroke-linecap:round; stroke-linejoin:round; stroke-width:2; stroke-opacity:0.1; fill:none" points="1933.65,1423.18 1933.65,47.2441 "/>
<polyline clip-path="url(#clip822)" style="stroke:#000000; stroke-linecap:round; stroke-linejoin:round; stroke-width:2; stroke-opacity:0.1; fill:none" points="2292.18,1423.18 2292.18,47.2441 "/>
<polyline clip-path="url(#clip822)" style="stroke:#000000; stroke-linecap:round; stroke-linejoin:round; stroke-width:2; stroke-opacity:0.1; fill:none" points="212.459,1222.76 2352.76,1222.76 "/>
<polyline clip-path="url(#clip822)" style="stroke:#000000; stroke-linecap:round; stroke-linejoin:round; stroke-width:2; stroke-opacity:0.1; fill:none" points="212.459,1012.55 2352.76,1012.55 "/>
<polyline clip-path="url(#clip822)" style="stroke:#000000; stroke-linecap:round; stroke-linejoin:round; stroke-width:2; stroke-opacity:0.1; fill:none" points="212.459,802.336 2352.76,802.336 "/>
<polyline clip-path="url(#clip822)" style="stroke:#000000; stroke-linecap:round; stroke-linejoin:round; stroke-width:2; stroke-opacity:0.1; fill:none" points="212.459,592.126 2352.76,592.126 "/>
<polyline clip-path="url(#clip822)" style="stroke:#000000; stroke-linecap:round; stroke-linejoin:round; stroke-width:2; stroke-opacity:0.1; fill:none" points="212.459,381.915 2352.76,381.915 "/>
<polyline clip-path="url(#clip822)" style="stroke:#000000; stroke-linecap:round; stroke-linejoin:round; stroke-width:2; stroke-opacity:0.1; fill:none" points="212.459,171.705 2352.76,171.705 "/>
<polyline clip-path="url(#clip820)" style="stroke:#000000; stroke-linecap:round; stroke-linejoin:round; stroke-width:4; stroke-opacity:1; fill:none" points="212.459,1423.18 2352.76,1423.18 "/>
<polyline clip-path="url(#clip820)" style="stroke:#000000; stroke-linecap:round; stroke-linejoin:round; stroke-width:4; stroke-opacity:1; fill:none" points="499.529,1423.18 499.529,1404.28 "/>
<polyline clip-path="url(#clip820)" style="stroke:#000000; stroke-linecap:round; stroke-linejoin:round; stroke-width:4; stroke-opacity:1; fill:none" points="858.059,1423.18 858.059,1404.28 "/>
<polyline clip-path="url(#clip820)" style="stroke:#000000; stroke-linecap:round; stroke-linejoin:round; stroke-width:4; stroke-opacity:1; fill:none" points="1216.59,1423.18 1216.59,1404.28 "/>
<polyline clip-path="url(#clip820)" style="stroke:#000000; stroke-linecap:round; stroke-linejoin:round; stroke-width:4; stroke-opacity:1; fill:none" points="1575.12,1423.18 1575.12,1404.28 "/>
<polyline clip-path="url(#clip820)" style="stroke:#000000; stroke-linecap:round; stroke-linejoin:round; stroke-width:4; stroke-opacity:1; fill:none" points="1933.65,1423.18 1933.65,1404.28 "/>
<polyline clip-path="url(#clip820)" style="stroke:#000000; stroke-linecap:round; stroke-linejoin:round; stroke-width:4; stroke-opacity:1; fill:none" points="2292.18,1423.18 2292.18,1404.28 "/>
<path clip-path="url(#clip820)" d="M471.265 1481.64 L487.584 1481.64 L487.584 1485.58 L465.64 1485.58 L465.64 1481.64 Q468.302 1478.89 472.885 1474.26 Q477.492 1469.61 478.672 1468.27 Q480.918 1465.74 481.797 1464.01 Q482.7 1462.25 482.7 1460.56 Q482.7 1457.8 480.756 1456.07 Q478.834 1454.33 475.732 1454.33 Q473.533 1454.33 471.08 1455.09 Q468.649 1455.86 465.871 1457.41 L465.871 1452.69 Q468.695 1451.55 471.149 1450.97 Q473.603 1450.39 475.64 1450.39 Q481.01 1450.39 484.205 1453.08 Q487.399 1455.77 487.399 1460.26 Q487.399 1462.39 486.589 1464.31 Q485.802 1466.2 483.695 1468.8 Q483.117 1469.47 480.015 1472.69 Q476.913 1475.88 471.265 1481.64 Z" fill="#000000" fill-rule="nonzero" fill-opacity="1" /><path clip-path="url(#clip820)" d="M497.399 1479.7 L502.283 1479.7 L502.283 1485.58 L497.399 1485.58 L497.399 1479.7 Z" fill="#000000" fill-rule="nonzero" fill-opacity="1" /><path clip-path="url(#clip820)" d="M512.515 1451.02 L530.871 1451.02 L530.871 1454.96 L516.797 1454.96 L516.797 1463.43 Q517.815 1463.08 518.834 1462.92 Q519.853 1462.73 520.871 1462.73 Q526.658 1462.73 530.038 1465.9 Q533.417 1469.08 533.417 1474.49 Q533.417 1480.07 529.945 1483.17 Q526.473 1486.25 520.153 1486.25 Q517.978 1486.25 515.709 1485.88 Q513.464 1485.51 511.056 1484.77 L511.056 1480.07 Q513.14 1481.2 515.362 1481.76 Q517.584 1482.32 520.061 1482.32 Q524.065 1482.32 526.403 1480.21 Q528.741 1478.1 528.741 1474.49 Q528.741 1470.88 526.403 1468.77 Q524.065 1466.67 520.061 1466.67 Q518.186 1466.67 516.311 1467.08 Q514.459 1467.5 512.515 1468.38 L512.515 1451.02 Z" fill="#000000" fill-rule="nonzero" fill-opacity="1" /><path clip-path="url(#clip820)" d="M839.367 1466.95 Q842.724 1467.66 844.599 1469.93 Q846.497 1472.2 846.497 1475.53 Q846.497 1480.65 842.978 1483.45 Q839.46 1486.25 832.978 1486.25 Q830.802 1486.25 828.488 1485.81 Q826.196 1485.39 823.742 1484.54 L823.742 1480.02 Q825.687 1481.16 828.001 1481.74 Q830.316 1482.32 832.839 1482.32 Q837.237 1482.32 839.529 1480.58 Q841.844 1478.84 841.844 1475.53 Q841.844 1472.48 839.691 1470.77 Q837.562 1469.03 833.742 1469.03 L829.714 1469.03 L829.714 1465.19 L833.927 1465.19 Q837.376 1465.19 839.205 1463.82 Q841.034 1462.43 841.034 1459.84 Q841.034 1457.18 839.136 1455.77 Q837.261 1454.33 833.742 1454.33 Q831.821 1454.33 829.622 1454.75 Q827.423 1455.16 824.784 1456.04 L824.784 1451.88 Q827.446 1451.14 829.761 1450.77 Q832.099 1450.39 834.159 1450.39 Q839.483 1450.39 842.585 1452.83 Q845.687 1455.23 845.687 1459.35 Q845.687 1462.22 844.043 1464.21 Q842.399 1466.18 839.367 1466.95 Z" fill="#000000" fill-rule="nonzero" fill-opacity="1" /><path clip-path="url(#clip820)" d="M855.362 1479.7 L860.247 1479.7 L860.247 1485.58 L855.362 1485.58 L855.362 1479.7 Z" fill="#000000" fill-rule="nonzero" fill-opacity="1" /><path clip-path="url(#clip820)" d="M880.432 1454.1 Q876.821 1454.1 874.992 1457.66 Q873.186 1461.2 873.186 1468.33 Q873.186 1475.44 874.992 1479.01 Q876.821 1482.55 880.432 1482.55 Q884.066 1482.55 885.871 1479.01 Q887.7 1475.44 887.7 1468.33 Q887.7 1461.2 885.871 1457.66 Q884.066 1454.1 880.432 1454.1 M880.432 1450.39 Q886.242 1450.39 889.297 1455 Q892.376 1459.58 892.376 1468.33 Q892.376 1477.06 889.297 1481.67 Q886.242 1486.25 880.432 1486.25 Q874.622 1486.25 871.543 1481.67 Q868.487 1477.06 868.487 1468.33 Q868.487 1459.58 871.543 1455 Q874.622 1450.39 880.432 1450.39 Z" fill="#000000" fill-rule="nonzero" fill-opacity="1" /><path clip-path="url(#clip820)" d="M1198.4 1466.95 Q1201.75 1467.66 1203.63 1469.93 Q1205.52 1472.2 1205.52 1475.53 Q1205.52 1480.65 1202.01 1483.45 Q1198.49 1486.25 1192.01 1486.25 Q1189.83 1486.25 1187.52 1485.81 Q1185.22 1485.39 1182.77 1484.54 L1182.77 1480.02 Q1184.71 1481.16 1187.03 1481.74 Q1189.34 1482.32 1191.87 1482.32 Q1196.27 1482.32 1198.56 1480.58 Q1200.87 1478.84 1200.87 1475.53 Q1200.87 1472.48 1198.72 1470.77 Q1196.59 1469.03 1192.77 1469.03 L1188.74 1469.03 L1188.74 1465.19 L1192.96 1465.19 Q1196.4 1465.19 1198.23 1463.82 Q1200.06 1462.43 1200.06 1459.84 Q1200.06 1457.18 1198.16 1455.77 Q1196.29 1454.33 1192.77 1454.33 Q1190.85 1454.33 1188.65 1454.75 Q1186.45 1455.16 1183.81 1456.04 L1183.81 1451.88 Q1186.47 1451.14 1188.79 1450.77 Q1191.13 1450.39 1193.19 1450.39 Q1198.51 1450.39 1201.61 1452.83 Q1204.71 1455.23 1204.71 1459.35 Q1204.71 1462.22 1203.07 1464.21 Q1201.43 1466.18 1198.4 1466.95 Z" fill="#000000" fill-rule="nonzero" fill-opacity="1" /><path clip-path="url(#clip820)" d="M1214.39 1479.7 L1219.27 1479.7 L1219.27 1485.58 L1214.39 1485.58 L1214.39 1479.7 Z" fill="#000000" fill-rule="nonzero" fill-opacity="1" /><path clip-path="url(#clip820)" d="M1229.51 1451.02 L1247.86 1451.02 L1247.86 1454.96 L1233.79 1454.96 L1233.79 1463.43 Q1234.81 1463.08 1235.83 1462.92 Q1236.84 1462.73 1237.86 1462.73 Q1243.65 1462.73 1247.03 1465.9 Q1250.41 1469.08 1250.41 1474.49 Q1250.41 1480.07 1246.94 1483.17 Q1243.46 1486.25 1237.15 1486.25 Q1234.97 1486.25 1232.7 1485.88 Q1230.46 1485.51 1228.05 1484.77 L1228.05 1480.07 Q1230.13 1481.2 1232.35 1481.76 Q1234.58 1482.32 1237.05 1482.32 Q1241.06 1482.32 1243.4 1480.21 Q1245.73 1478.1 1245.73 1474.49 Q1245.73 1470.88 1243.4 1468.77 Q1241.06 1466.67 1237.05 1466.67 Q1235.18 1466.67 1233.3 1467.08 Q1231.45 1467.5 1229.51 1468.38 L1229.51 1451.02 Z" fill="#000000" fill-rule="nonzero" fill-opacity="1" /><path clip-path="url(#clip820)" d="M1555.76 1455.09 L1543.95 1473.54 L1555.76 1473.54 L1555.76 1455.09 M1554.53 1451.02 L1560.41 1451.02 L1560.41 1473.54 L1565.34 1473.54 L1565.34 1477.43 L1560.41 1477.43 L1560.41 1485.58 L1555.76 1485.58 L1555.76 1477.43 L1540.16 1477.43 L1540.16 1472.92 L1554.53 1451.02 Z" fill="#000000" fill-rule="nonzero" fill-opacity="1" /><path clip-path="url(#clip820)" d="M1573.07 1479.7 L1577.96 1479.7 L1577.96 1485.58 L1573.07 1485.58 L1573.07 1479.7 Z" fill="#000000" fill-rule="nonzero" fill-opacity="1" /><path clip-path="url(#clip820)" d="M1598.14 1454.1 Q1594.53 1454.1 1592.7 1457.66 Q1590.9 1461.2 1590.9 1468.33 Q1590.9 1475.44 1592.7 1479.01 Q1594.53 1482.55 1598.14 1482.55 Q1601.78 1482.55 1603.58 1479.01 Q1605.41 1475.44 1605.41 1468.33 Q1605.41 1461.2 1603.58 1457.66 Q1601.78 1454.1 1598.14 1454.1 M1598.14 1450.39 Q1603.95 1450.39 1607.01 1455 Q1610.09 1459.58 1610.09 1468.33 Q1610.09 1477.06 1607.01 1481.67 Q1603.95 1486.25 1598.14 1486.25 Q1592.33 1486.25 1589.25 1481.67 Q1586.2 1477.06 1586.2 1468.33 Q1586.2 1459.58 1589.25 1455 Q1592.33 1450.39 1598.14 1450.39 Z" fill="#000000" fill-rule="nonzero" fill-opacity="1" /><path clip-path="url(#clip820)" d="M1914.79 1455.09 L1902.98 1473.54 L1914.79 1473.54 L1914.79 1455.09 M1913.56 1451.02 L1919.44 1451.02 L1919.44 1473.54 L1924.37 1473.54 L1924.37 1477.43 L1919.44 1477.43 L1919.44 1485.58 L1914.79 1485.58 L1914.79 1477.43 L1899.18 1477.43 L1899.18 1472.92 L1913.56 1451.02 Z" fill="#000000" fill-rule="nonzero" fill-opacity="1" /><path clip-path="url(#clip820)" d="M1932.1 1479.7 L1936.98 1479.7 L1936.98 1485.58 L1932.1 1485.58 L1932.1 1479.7 Z" fill="#000000" fill-rule="nonzero" fill-opacity="1" /><path clip-path="url(#clip820)" d="M1947.22 1451.02 L1965.57 1451.02 L1965.57 1454.96 L1951.5 1454.96 L1951.5 1463.43 Q1952.52 1463.08 1953.54 1462.92 Q1954.55 1462.73 1955.57 1462.73 Q1961.36 1462.73 1964.74 1465.9 Q1968.12 1469.08 1968.12 1474.49 Q1968.12 1480.07 1964.65 1483.17 Q1961.17 1486.25 1954.85 1486.25 Q1952.68 1486.25 1950.41 1485.88 Q1948.16 1485.51 1945.76 1484.77 L1945.76 1480.07 Q1947.84 1481.2 1950.06 1481.76 Q1952.29 1482.32 1954.76 1482.32 Q1958.77 1482.32 1961.1 1480.21 Q1963.44 1478.1 1963.44 1474.49 Q1963.44 1470.88 1961.1 1468.77 Q1958.77 1466.67 1954.76 1466.67 Q1952.89 1466.67 1951.01 1467.08 Q1949.16 1467.5 1947.22 1468.38 L1947.22 1451.02 Z" fill="#000000" fill-rule="nonzero" fill-opacity="1" /><path clip-path="url(#clip820)" d="M2259.35 1451.02 L2277.7 1451.02 L2277.7 1454.96 L2263.63 1454.96 L2263.63 1463.43 Q2264.65 1463.08 2265.67 1462.92 Q2266.68 1462.73 2267.7 1462.73 Q2273.49 1462.73 2276.87 1465.9 Q2280.25 1469.08 2280.25 1474.49 Q2280.25 1480.07 2276.78 1483.17 Q2273.3 1486.25 2266.98 1486.25 Q2264.81 1486.25 2262.54 1485.88 Q2260.3 1485.51 2257.89 1484.77 L2257.89 1480.07 Q2259.97 1481.2 2262.19 1481.76 Q2264.42 1482.32 2266.89 1482.32 Q2270.9 1482.32 2273.23 1480.21 Q2275.57 1478.1 2275.57 1474.49 Q2275.57 1470.88 2273.23 1468.77 Q2270.9 1466.67 2266.89 1466.67 Q2265.02 1466.67 2263.14 1467.08 Q2261.29 1467.5 2259.35 1468.38 L2259.35 1451.02 Z" fill="#000000" fill-rule="nonzero" fill-opacity="1" /><path clip-path="url(#clip820)" d="M2289.46 1479.7 L2294.35 1479.7 L2294.35 1485.58 L2289.46 1485.58 L2289.46 1479.7 Z" fill="#000000" fill-rule="nonzero" fill-opacity="1" /><path clip-path="url(#clip820)" d="M2314.53 1454.1 Q2310.92 1454.1 2309.09 1457.66 Q2307.29 1461.2 2307.29 1468.33 Q2307.29 1475.44 2309.09 1479.01 Q2310.92 1482.55 2314.53 1482.55 Q2318.17 1482.55 2319.97 1479.01 Q2321.8 1475.44 2321.8 1468.33 Q2321.8 1461.2 2319.97 1457.66 Q2318.17 1454.1 2314.53 1454.1 M2314.53 1450.39 Q2320.34 1450.39 2323.4 1455 Q2326.48 1459.58 2326.48 1468.33 Q2326.48 1477.06 2323.4 1481.67 Q2320.34 1486.25 2314.53 1486.25 Q2308.72 1486.25 2305.64 1481.67 Q2302.59 1477.06 2302.59 1468.33 Q2302.59 1459.58 2305.64 1455 Q2308.72 1450.39 2314.53 1450.39 Z" fill="#000000" fill-rule="nonzero" fill-opacity="1" /><path clip-path="url(#clip820)" d="M1281.67 1522.27 L1281.67 1532.4 L1293.73 1532.4 L1293.73 1536.95 L1281.67 1536.95 L1281.67 1556.3 Q1281.67 1560.66 1282.85 1561.9 Q1284.06 1563.14 1287.72 1563.14 L1293.73 1563.14 L1293.73 1568.04 L1287.72 1568.04 Q1280.94 1568.04 1278.36 1565.53 Q1275.78 1562.98 1275.78 1556.3 L1275.78 1536.95 L1271.48 1536.95 L1271.48 1532.4 L1275.78 1532.4 L1275.78 1522.27 L1281.67 1522.27 Z" fill="#000000" fill-rule="nonzero" fill-opacity="1" /><polyline clip-path="url(#clip820)" style="stroke:#000000; stroke-linecap:round; stroke-linejoin:round; stroke-width:4; stroke-opacity:1; fill:none" points="212.459,1423.18 212.459,47.2441 "/>
<polyline clip-path="url(#clip820)" style="stroke:#000000; stroke-linecap:round; stroke-linejoin:round; stroke-width:4; stroke-opacity:1; fill:none" points="212.459,1222.76 231.357,1222.76 "/>
<polyline clip-path="url(#clip820)" style="stroke:#000000; stroke-linecap:round; stroke-linejoin:round; stroke-width:4; stroke-opacity:1; fill:none" points="212.459,1012.55 231.357,1012.55 "/>
<polyline clip-path="url(#clip820)" style="stroke:#000000; stroke-linecap:round; stroke-linejoin:round; stroke-width:4; stroke-opacity:1; fill:none" points="212.459,802.336 231.357,802.336 "/>
<polyline clip-path="url(#clip820)" style="stroke:#000000; stroke-linecap:round; stroke-linejoin:round; stroke-width:4; stroke-opacity:1; fill:none" points="212.459,592.126 231.357,592.126 "/>
<polyline clip-path="url(#clip820)" style="stroke:#000000; stroke-linecap:round; stroke-linejoin:round; stroke-width:4; stroke-opacity:1; fill:none" points="212.459,381.915 231.357,381.915 "/>
<polyline clip-path="url(#clip820)" style="stroke:#000000; stroke-linecap:round; stroke-linejoin:round; stroke-width:4; stroke-opacity:1; fill:none" points="212.459,171.705 231.357,171.705 "/>
<path clip-path="url(#clip820)" d="M115.742 1223.21 L145.417 1223.21 L145.417 1227.14 L115.742 1227.14 L115.742 1223.21 Z" fill="#000000" fill-rule="nonzero" fill-opacity="1" /><path clip-path="url(#clip820)" d="M155.556 1205.48 L173.913 1205.48 L173.913 1209.41 L159.839 1209.41 L159.839 1217.88 Q160.857 1217.54 161.876 1217.37 Q162.894 1217.19 163.913 1217.19 Q169.7 1217.19 173.079 1220.36 Q176.459 1223.53 176.459 1228.95 Q176.459 1234.53 172.987 1237.63 Q169.514 1240.71 163.195 1240.71 Q161.019 1240.71 158.751 1240.34 Q156.505 1239.97 154.098 1239.23 L154.098 1234.53 Q156.181 1235.66 158.403 1236.22 Q160.626 1236.77 163.102 1236.77 Q167.107 1236.77 169.445 1234.67 Q171.783 1232.56 171.783 1228.95 Q171.783 1225.34 169.445 1223.23 Q167.107 1221.12 163.102 1221.12 Q161.227 1221.12 159.353 1221.54 Q157.501 1221.96 155.556 1222.84 L155.556 1205.48 Z" fill="#000000" fill-rule="nonzero" fill-opacity="1" /><path clip-path="url(#clip820)" d="M114.26 1013 L143.936 1013 L143.936 1016.93 L114.26 1016.93 L114.26 1013 Z" fill="#000000" fill-rule="nonzero" fill-opacity="1" /><path clip-path="url(#clip820)" d="M166.876 999.34 L155.07 1017.79 L166.876 1017.79 L166.876 999.34 M165.649 995.266 L171.528 995.266 L171.528 1017.79 L176.459 1017.79 L176.459 1021.68 L171.528 1021.68 L171.528 1029.83 L166.876 1029.83 L166.876 1021.68 L151.274 1021.68 L151.274 1017.16 L165.649 995.266 Z" fill="#000000" fill-rule="nonzero" fill-opacity="1" /><path clip-path="url(#clip820)" d="M115.394 802.787 L145.07 802.787 L145.07 806.722 L115.394 806.722 L115.394 802.787 Z" fill="#000000" fill-rule="nonzero" fill-opacity="1" /><path clip-path="url(#clip820)" d="M169.329 800.981 Q172.686 801.699 174.561 803.968 Q176.459 806.236 176.459 809.569 Q176.459 814.685 172.94 817.486 Q169.422 820.287 162.94 820.287 Q160.765 820.287 158.45 819.847 Q156.158 819.43 153.704 818.574 L153.704 814.06 Q155.649 815.194 157.964 815.773 Q160.278 816.352 162.802 816.352 Q167.2 816.352 169.491 814.616 Q171.806 812.88 171.806 809.569 Q171.806 806.514 169.653 804.801 Q167.524 803.065 163.704 803.065 L159.677 803.065 L159.677 799.222 L163.89 799.222 Q167.339 799.222 169.167 797.856 Q170.996 796.468 170.996 793.875 Q170.996 791.213 169.098 789.801 Q167.223 788.366 163.704 788.366 Q161.783 788.366 159.584 788.782 Q157.385 789.199 154.746 790.079 L154.746 785.912 Q157.408 785.171 159.723 784.801 Q162.061 784.431 164.121 784.431 Q169.445 784.431 172.547 786.861 Q175.649 789.269 175.649 793.389 Q175.649 796.259 174.005 798.25 Q172.362 800.218 169.329 800.981 Z" fill="#000000" fill-rule="nonzero" fill-opacity="1" /><path clip-path="url(#clip820)" d="M116.343 592.577 L146.019 592.577 L146.019 596.512 L116.343 596.512 L116.343 592.577 Z" fill="#000000" fill-rule="nonzero" fill-opacity="1" /><path clip-path="url(#clip820)" d="M160.14 605.47 L176.459 605.47 L176.459 609.406 L154.515 609.406 L154.515 605.47 Q157.177 602.716 161.76 598.086 Q166.366 593.433 167.547 592.091 Q169.792 589.568 170.672 587.832 Q171.575 586.072 171.575 584.383 Q171.575 581.628 169.63 579.892 Q167.709 578.156 164.607 578.156 Q162.408 578.156 159.954 578.92 Q157.524 579.683 154.746 581.234 L154.746 576.512 Q157.57 575.378 160.024 574.799 Q162.477 574.221 164.515 574.221 Q169.885 574.221 173.079 576.906 Q176.274 579.591 176.274 584.082 Q176.274 586.211 175.464 588.133 Q174.677 590.031 172.57 592.623 Q171.991 593.295 168.889 596.512 Q165.788 599.707 160.14 605.47 Z" fill="#000000" fill-rule="nonzero" fill-opacity="1" /><path clip-path="url(#clip820)" d="M115.973 382.367 L145.649 382.367 L145.649 386.302 L115.973 386.302 L115.973 382.367 Z" fill="#000000" fill-rule="nonzero" fill-opacity="1" /><path clip-path="url(#clip820)" d="M156.552 395.26 L164.19 395.26 L164.19 368.895 L155.88 370.561 L155.88 366.302 L164.144 364.635 L168.82 364.635 L168.82 395.26 L176.459 395.26 L176.459 399.195 L156.552 399.195 L156.552 395.26 Z" fill="#000000" fill-rule="nonzero" fill-opacity="1" /><path clip-path="url(#clip820)" d="M164.515 157.504 Q160.903 157.504 159.075 161.069 Q157.269 164.611 157.269 171.74 Q157.269 178.847 159.075 182.411 Q160.903 185.953 164.515 185.953 Q168.149 185.953 169.954 182.411 Q171.783 178.847 171.783 171.74 Q171.783 164.611 169.954 161.069 Q168.149 157.504 164.515 157.504 M164.515 153.8 Q170.325 153.8 173.38 158.407 Q176.459 162.99 176.459 171.74 Q176.459 180.467 173.38 185.073 Q170.325 189.657 164.515 189.657 Q158.704 189.657 155.626 185.073 Q152.57 180.467 152.57 171.74 Q152.57 162.99 155.626 158.407 Q158.704 153.8 164.515 153.8 Z" fill="#000000" fill-rule="nonzero" fill-opacity="1" /><path clip-path="url(#clip820)" d="M49.9359 750.14 L28.3562 750.14 L28.3562 744.283 L49.7131 744.283 Q54.7739 744.283 57.3202 742.31 Q59.8346 740.336 59.8346 736.39 Q59.8346 731.647 56.8109 728.91 Q53.7872 726.141 48.5673 726.141 L28.3562 726.141 L28.3562 720.284 L64.0042 720.284 L64.0042 726.141 L58.5296 726.141 Q61.7762 728.273 63.3676 731.106 Q64.9272 733.907 64.9272 737.631 Q64.9272 743.774 61.1078 746.957 Q57.2883 750.14 49.9359 750.14 M27.4968 735.403 L27.4968 735.403 Z" fill="#000000" fill-rule="nonzero" fill-opacity="1" /><polyline clip-path="url(#clip822)" style="stroke:#009af9; stroke-linecap:round; stroke-linejoin:round; stroke-width:8; stroke-opacity:1; fill:none" points="273.033,452.487 280.204,450.453 287.375,471.822 294.545,475.462 301.716,471.933 308.886,471.391 316.057,474.795 323.228,475.394 330.398,470.006 337.569,456.731 344.739,479.138 351.91,470.792 359.081,493.017 366.251,525.988 373.422,529.559 380.593,535.261 387.763,567.679 394.934,536.714 402.104,542.169 409.275,569.813 416.446,596.493 423.616,590.877 430.787,614.792 437.957,599.051 445.128,652.544 452.299,704.959 459.469,705.042 466.64,709.571 473.81,704.217 480.981,725.91 488.152,720.302 495.322,733.745 502.493,736.37 509.664,696.47 516.834,722.84 524.005,736.988 531.175,768.926 538.346,818.462 545.517,789.314 552.687,760.948 559.858,755.843 567.028,761.951 574.199,770.215 581.37,778.468 588.54,794.39 595.711,775.496 602.881,809.708 610.052,781.479 617.223,794.465 624.393,788.4 631.564,791.313 638.735,762.671 645.905,771.417 653.076,756.156 660.246,779.737 667.417,798.997 674.588,810.726 681.758,783.076 688.929,801.762 696.099,783.29 703.27,798.197 710.441,801.163 717.611,802.089 724.782,816.929 728.243,820.35 "/>
<polyline clip-path="url(#clip822)" style="stroke:#e26f46; stroke-linecap:round; stroke-linejoin:round; stroke-width:8; stroke-opacity:1; fill:none" points="728.243,820.35 735.413,823.173 742.584,866.777 749.755,895.428 756.925,875.657 760.83,863.713 "/>
<polyline clip-path="url(#clip822)" style="stroke:#3da44d; stroke-linecap:round; stroke-linejoin:round; stroke-width:8; stroke-opacity:1; fill:none" points="760.83,863.713 768.001,885.852 775.171,887.898 782.342,878.366 789.513,862.685 796.683,875.321 803.854,903.123 811.025,904.291 818.195,904.924 825.366,890.356 832.536,900.102 839.707,903.325 846.878,876.528 854.048,874.186 861.219,889.727 868.389,866.071 875.56,863.533 882.731,892.328 889.901,924.94 897.072,944.375 904.242,920.764 911.413,948.582 918.584,959.635 925.754,935.225 932.925,905.509 940.096,906.964 947.266,897.002 954.437,889.807 961.607,922.11 968.778,911.787 975.949,917.624 983.119,904.095 990.29,901.904 997.46,868.678 1004.63,878.568 1011.8,905.011 1018.97,904.649 1026.14,901.599 1033.31,898.715 1040.48,892.185 1047.65,850.979 1054.83,829.398 1062,864.903 1069.17,894.477 1076.34,893.266 1083.51,897.083 1090.68,906.667 1097.85,926.868 1105.02,893.758 1112.19,902.824 1119.36,928.909 1126.53,925.847 1133.7,937.175 1140.87,942.84 1148.04,966.125 1155.21,1004.95 1162.38,1004.59 1169.56,1026.99 1176.73,1013.49 1183.9,1004.79 1191.07,1029.16 1198.24,988.537 1205.41,988.938 1212.58,988.548 1219.75,1002.13 1226.92,1005.99 1234.09,992.752 1241.26,979.345 1248.43,985.957 1255.6,983.28 1262.77,1008.62 1269.94,1020.46 1277.11,1049.87 1284.28,1064.46 1291.46,1046.24 1298.63,1044.36 1305.8,1069.85 1312.97,1052.64 1320.14,1029.91 1327.31,1009.43 1334.48,1020.78 1341.65,1054.58 1348.82,1056.35 1355.99,1058.93 1363.16,1089.71 1370.33,1053.56 1377.5,1063.92 1384.67,1052.05 1391.84,1073.51 1399.01,1038.77 1406.19,1090.92 1413.36,1038.03 1420.53,1029.78 1427.7,1036.84 1434.87,1031.22 1442.04,1050.42 1449.21,1075.38 1456.38,1048.8 1463.55,1029.44 1470.72,1054.08 1477.89,998.679 1485.06,1019.97 1492.23,984.071 1499.4,968.713 1506.57,1007.07 1513.74,978.833 1520.92,995.477 1528.09,1034.8 1535.26,1046.6 1542.43,1038.76 1549.6,1019.21 1556.77,1045.52 1563.94,1088 1571.11,1078.07 1578.28,1109.31 1585.45,1143.89 1592.62,1152.73 1599.79,1157.97 1606.96,1146.06 1614.13,1093.2 1621.3,1138.35 1628.47,1125.86 1635.64,1143.33 1642.82,1143.99 1649.99,1156.03 1657.16,1126.42 1664.33,1151.36 1671.5,1165.54 1678.67,1173.84 1685.84,1209.96 1693.01,1215.81 1700.18,1216.02 1707.35,1220.04 1714.52,1172.65 1721.69,1194 1728.86,1207.68 1736.03,1203.4 1743.2,1202.81 1750.37,1203.92 1757.55,1243.01 1764.72,1222.01 1771.89,1226.02 1779.06,1216.37 1786.23,1245.33 1788.21,1246.69 "/>
<polyline clip-path="url(#clip822)" style="stroke:#c271d2; stroke-linecap:round; stroke-linejoin:round; stroke-width:8; stroke-opacity:1; fill:none" points="1788.21,1246.69 1795.38,1294.32 1802.55,1315.62 1809.72,1293.93 1816.89,1285.94 1824.06,1264.21 1831.23,1271.2 1838.41,1234.97 1845.58,1206.92 1852.75,1203 1859.92,1217.5 1867.09,1205.43 1874.26,1231.45 1881.43,1219.23 1888.6,1237.37 1895.77,1231.01 1902.94,1221.16 1910.11,1210.54 1917.28,1182.97 1924.45,1170.91 1931.62,1150.37 1938.79,1142.57 1945.96,1122.48 1953.14,1134.85 1960.31,1184.77 1967.48,1174.92 1974.65,1171.16 1981.82,1229.95 1988.99,1241.06 1996.16,1236.75 2003.33,1269.08 2010.5,1265.03 2017.67,1299.54 2024.84,1301.68 2032.01,1313.78 2039.18,1317.73 2046.35,1322.93 2053.52,1304.01 2060.69,1315.3 2067.87,1328.64 2075.04,1353.65 2082.21,1343.68 2089.38,1326.77 2096.55,1326.71 2103.72,1323.33 2110.89,1343.19 2118.06,1336.38 2125.23,1326.86 2132.4,1343.56 2139.57,1353.55 2146.74,1347.98 2153.91,1346.32 2161.08,1298.98 2168.25,1307.6 2175.42,1305.79 2182.59,1263.27 2189.77,1243.24 2196.94,1260.4 2204.11,1249.55 2211.28,1216.18 2218.45,1217.6 2225.62,1222.59 2232.79,1236.7 2239.96,1259.45 2247.13,1229.02 2254.3,1231.59 2261.47,1240.87 2268.64,1217.95 2275.81,1200.42 2282.98,1198.03 2290.15,1199.15 2292.18,1189.63 "/>
<polyline clip-path="url(#clip822)" style="stroke:#ac8d18; stroke-linecap:round; stroke-linejoin:round; stroke-width:8; stroke-opacity:1; fill:none" points="1788.21,1246.69 1795.38,1204.5 1802.55,1184.89 1809.72,1230.21 1816.89,1263.38 1824.06,1286.53 1824.6,1289.86 "/>
<polyline clip-path="url(#clip822)" style="stroke:#00a9ad; stroke-linecap:round; stroke-linejoin:round; stroke-width:8; stroke-opacity:1; fill:none" points="1824.6,1289.86 1831.77,1308.95 1838.94,1330.62 1846.11,1285.56 1853.28,1279.68 1860.45,1305.19 1867.62,1298.28 1874.79,1298.66 1881.96,1308.74 1889.13,1298.06 1896.3,1272.58 1903.47,1282.31 1910.64,1285.85 1917.81,1266.94 1924.98,1254.12 1932.16,1266.12 1939.33,1265.95 1946.5,1294.37 1953.67,1301.3 1960.84,1313.89 1968.01,1269.91 1975.18,1264.24 1982.35,1261.81 1989.52,1242.83 1996.69,1270.11 2003.86,1274.99 2011.03,1256.17 2018.2,1270.5 2025.37,1250.67 2032.54,1259.51 2039.71,1271.83 2046.89,1267.19 2054.06,1247.96 2061.23,1275.32 2068.4,1254.02 2075.57,1225.03 2082.74,1223.5 2089.91,1256.03 2097.08,1275.51 2104.25,1264.59 2111.42,1273.15 2118.59,1271.52 2125.76,1280.34 2132.93,1260.26 2140.1,1267.65 2147.27,1290.54 2154.44,1287.39 2161.62,1267.61 2167.28,1292.53 "/>
<polyline clip-path="url(#clip822)" style="stroke:#ed5d92; stroke-linecap:round; stroke-linejoin:round; stroke-width:8; stroke-opacity:1; fill:none" points="2167.28,1292.53 2174.45,1268.68 2181.62,1293.09 2188.79,1275.7 2195.96,1300.92 2203.13,1326.47 2210.3,1318.32 2217.47,1311.3 2224.64,1307.6 2231.81,1268.35 2238.98,1286.57 2246.15,1282.62 2252.54,1271.2 "/>
<polyline clip-path="url(#clip822)" style="stroke:#c68125; stroke-linecap:round; stroke-linejoin:round; stroke-width:8; stroke-opacity:1; fill:none" points="2252.54,1271.2 2259.71,1272.35 2266.88,1295.43 2274.05,1275.54 2281.22,1259.6 2288.4,1267.11 2292.18,1267.96 "/>
<polyline clip-path="url(#clip822)" style="stroke:#00a98d; stroke-linecap:round; stroke-linejoin:round; stroke-width:8; stroke-opacity:1; fill:none" points="2252.54,1271.2 2259.71,1262.55 2266.88,1275.43 2274.05,1272.6 2281.22,1275.97 2288.4,1308.71 2292.18,1331.75 "/>
<polyline clip-path="url(#clip822)" style="stroke:#8e971d; stroke-linecap:round; stroke-linejoin:round; stroke-width:8; stroke-opacity:1; fill:none" points="2167.28,1292.53 2174.45,1296.87 2181.62,1305.96 2188.79,1298.95 2195.96,1283.73 2203.13,1291.7 2210.3,1319.89 2217.47,1297.36 2224.64,1299.55 2231.81,1308.51 2238.98,1320.48 2246.15,1331.94 2253.32,1377.32 2260.5,1361.99 2267.67,1329.71 2274.84,1320.47 2282.01,1289.51 2289.18,1349.04 2292.18,1348.33 "/>
<polyline clip-path="url(#clip822)" style="stroke:#00a8cb; stroke-linecap:round; stroke-linejoin:round; stroke-width:8; stroke-opacity:1; fill:none" points="1824.6,1289.86 1831.77,1248.44 1838.94,1234.41 1846.11,1232.3 1853.28,1210.74 1860.45,1174.23 1867.62,1198.97 1869.7,1212.66 "/>
<polyline clip-path="url(#clip822)" style="stroke:#9b7fe8; stroke-linecap:round; stroke-linejoin:round; stroke-width:8; stroke-opacity:1; fill:none" points="1869.7,1212.66 1876.87,1202.78 1884.04,1212.39 1891.22,1250.21 1898.39,1251.99 1905.56,1236.13 1908.89,1227.69 "/>
<polyline clip-path="url(#clip822)" style="stroke:#608cf6; stroke-linecap:round; stroke-linejoin:round; stroke-width:8; stroke-opacity:1; fill:none" points="1908.89,1227.69 1916.06,1236.58 1923.23,1228.74 1930.4,1226.88 1937.57,1221.9 1944.74,1214.72 1951.91,1201.73 1959.08,1202.14 1966.25,1188.33 1973.42,1223.75 1980.59,1205.67 1986.61,1195.04 "/>
<polyline clip-path="url(#clip822)" style="stroke:#f05f73; stroke-linecap:round; stroke-linejoin:round; stroke-width:8; stroke-opacity:1; fill:none" points="1986.61,1195.04 1993.78,1161.2 2000.95,1190.9 2008.12,1164.81 2015.29,1188.92 2022.46,1178.09 2029.63,1171.47 2036.8,1144 2043.97,1117.55 2051.14,1125.7 2058.31,1098.59 2065.49,1091.77 2072.66,1092.14 2079.83,1069.12 2087,1085.73 2094.17,1080.2 2101.34,1087.32 2108.51,1085.74 2115.68,1101.71 2122.85,1099.71 2130.02,1112.05 2137.19,1127.74 2144.36,1126.35 2151.53,1081.36 2158.7,1059.11 2165.87,1048.74 2173.04,1049.68 2180.22,1037.16 2187.39,1029.85 2194.56,1023.53 2201.73,1033.3 2208.9,1040.14 2216.07,1010.55 2223.24,1013.48 2230.41,1037.43 2237.58,1054.13 2244.75,1069.37 2251.92,1089.78 2259.09,1117.16 2266.26,1142.34 2273.43,1161.69 2280.6,1176.6 2287.77,1161.65 2292.18,1181.78 "/>
<polyline clip-path="url(#clip822)" style="stroke:#dd64b5; stroke-linecap:round; stroke-linejoin:round; stroke-width:8; stroke-opacity:1; fill:none" points="1986.61,1195.04 1993.78,1168.92 2000.95,1148.75 2008.12,1095 2015.29,1088.7 2022.46,1135.25 2029.63,1155.1 2036.8,1145.25 2043.97,1164.47 2051.14,1111.89 2058.31,1132.52 2065.49,1149.02 2072.66,1155.61 2079.83,1124.99 2087,1119.47 2094.17,1095.44 2101.34,1063.33 2108.51,1056.09 2115.68,1066.84 2122.85,1067.44 2130.02,1058.22 2137.19,1019.38 2144.36,1023.44 2151.53,1010.71 2158.7,989.545 2165.87,979.291 2173.04,990.388 2180.22,969.326 2187.39,908.191 2194.56,911.964 2201.73,924.186 2208.9,944.442 2216.07,941.459 2223.24,944.44 2230.41,980.005 2237.58,950.815 2244.75,961.751 2251.92,943.521 2259.09,932.042 2266.26,924.851 2273.43,946.466 2280.6,928.85 2287.77,937.647 2292.18,954.575 "/>
<polyline clip-path="url(#clip822)" style="stroke:#6b9e32; stroke-linecap:round; stroke-linejoin:round; stroke-width:8; stroke-opacity:1; fill:none" points="1908.89,1227.69 1916.06,1210 1923.23,1197.92 1930.4,1201.97 1937.57,1193.29 1944.74,1201.49 1951.91,1205.99 1959.08,1211.55 1966.25,1243.79 1973.42,1226.95 1980.59,1220.16 1987.76,1183.2 1994.94,1190.54 2002.11,1179.37 2009.28,1156.46 2016.45,1148.68 2023.62,1150.37 2030.79,1149.24 2037.96,1138.06 2045.13,1132.65 2052.3,1124.62 2059.47,1147.72 2066.64,1118.14 2073.81,1122.79 2080.98,1118.48 2081.97,1108.76 "/>
<polyline clip-path="url(#clip822)" style="stroke:#009af9; stroke-linecap:round; stroke-linejoin:round; stroke-width:8; stroke-opacity:1; fill:none" points="2081.97,1108.76 2089.14,1143.94 2096.31,1140.78 2103.48,1190.14 2110.65,1228.09 2117.82,1224.26 2124.99,1221.53 2132.16,1218.19 2139.33,1215.47 2146.5,1222.57 2153.67,1194.31 2160.85,1186.85 2168.02,1200.05 2175.19,1188.64 2182.36,1193.57 2189.53,1211.56 2196.7,1220.3 2203.87,1215.61 2211.04,1186.18 2218.21,1203.7 2225.38,1217.2 2232.55,1192.84 2239.72,1208.12 2246.89,1221.28 2254.06,1207.85 2261.23,1212.51 2268.4,1237.22 2275.58,1213.4 2282.75,1219.45 2289.92,1236.01 2292.18,1235.15 "/>
<polyline clip-path="url(#clip822)" style="stroke:#e26f46; stroke-linecap:round; stroke-linejoin:round; stroke-width:8; stroke-opacity:1; fill:none" points="2081.97,1108.76 2089.14,1124.3 2096.31,1107.06 2103.48,1107.25 2110.65,1088.64 2117.82,1103.03 2124.99,1144.66 2132.16,1176.72 2139.33,1166.38 2146.5,1175.45 2153.67,1177.68 2160.85,1174.95 2168.02,1152.15 2175.19,1171.3 2182.36,1148.56 2189.53,1138.69 2196.7,1123.08 2203.87,1104.57 2211.04,1097.89 2216.8,1069.28 "/>
<polyline clip-path="url(#clip822)" style="stroke:#3da44d; stroke-linecap:round; stroke-linejoin:round; stroke-width:8; stroke-opacity:1; fill:none" points="2216.8,1069.28 2223.97,1082.9 2231.14,1117.14 2238.31,1079.57 2245.48,1083.87 2252.66,1076.88 2259.83,1045.17 2267,1024.61 2274.17,1033.8 2281.34,1035.36 2288.51,1024.16 2292.18,1019.42 "/>
<polyline clip-path="url(#clip822)" style="stroke:#c271d2; stroke-linecap:round; stroke-linejoin:round; stroke-width:8; stroke-opacity:1; fill:none" points="2216.8,1069.28 2223.97,1036.57 2231.14,1010.48 2238.31,983.367 2245.48,977.746 2252.66,998.332 2259.83,1007.33 2267,1030.31 2274.17,994.831 2281.34,1023.09 2288.51,1027.24 2292.18,1005.01 "/>
<polyline clip-path="url(#clip822)" style="stroke:#ac8d18; stroke-linecap:round; stroke-linejoin:round; stroke-width:8; stroke-opacity:1; fill:none" points="1869.7,1212.66 1876.87,1216.91 1884.04,1230.94 1891.22,1212.62 1898.39,1218.2 1905.56,1218.28 1912.73,1197.35 1919.9,1254.41 1927.07,1286.02 1934.24,1270.94 1941.41,1233.61 1948.58,1239.77 1955.75,1250.87 1962.92,1270.95 1970.09,1276.04 1977.26,1274.74 1984.43,1243.05 1991.6,1241.46 1998.77,1239.92 2005.94,1228.6 2013.12,1232.35 2020.29,1244.79 2027.46,1256.57 2034.63,1276.35 2041.8,1274.39 2048.97,1269.76 2049.91,1263.23 "/>
<polyline clip-path="url(#clip822)" style="stroke:#00a9ad; stroke-linecap:round; stroke-linejoin:round; stroke-width:8; stroke-opacity:1; fill:none" points="2049.91,1263.23 2057.08,1271.44 2064.25,1239.5 2071.42,1252.82 2078.6,1265 2085.77,1260.7 2092.94,1234.8 2100.11,1229.42 2107.28,1216.98 2114.45,1187.7 2121.62,1195.45 2128.79,1201.79 2135.96,1185.68 2143.13,1236.32 2150.3,1224.08 2157.47,1224.39 2164.64,1234.65 2171.81,1194.87 2178.98,1234.97 2186.15,1236.57 2193.33,1246.47 2200.5,1274.27 2207.67,1325.14 2214.84,1346.09 2222.01,1322.85 2229.18,1328.47 2236.35,1308.87 2243.52,1327.1 2250.69,1327.15 2257.86,1317.22 2265.03,1352.47 2272.2,1341.4 2279.37,1336.98 2286.54,1339.85 2292.18,1342.99 "/>
<polyline clip-path="url(#clip822)" style="stroke:#ed5d92; stroke-linecap:round; stroke-linejoin:round; stroke-width:8; stroke-opacity:1; fill:none" points="2049.91,1263.23 2057.08,1294.88 2064.25,1309.77 2071.42,1340.7 2078.6,1343.38 2085.77,1343.65 2092.94,1345.85 2100.11,1341.23 2107.28,1356.02 2114.45,1384.24 2121.62,1379.74 2128.79,1341.39 2135.96,1305.41 2143.13,1351.91 2150.3,1332.18 2157.47,1287.38 2164.64,1270.7 2171.81,1239.34 2178.98,1220.41 2186.15,1219.09 2193.33,1199.35 2200.5,1216.44 2207.67,1200.53 2210.82,1211.37 "/>
<polyline clip-path="url(#clip822)" style="stroke:#c68125; stroke-linecap:round; stroke-linejoin:round; stroke-width:8; stroke-opacity:1; fill:none" points="2210.82,1211.37 2217.99,1228.74 2225.16,1235.96 2232.33,1246.91 2239.5,1284.25 2246.67,1282.22 2253.84,1278.03 2261.01,1254.1 2268.18,1302.57 2275.35,1329.72 2282.53,1348.95 2289.7,1359.73 2292.18,1344.73 "/>
<polyline clip-path="url(#clip822)" style="stroke:#00a98d; stroke-linecap:round; stroke-linejoin:round; stroke-width:8; stroke-opacity:1; fill:none" points="2210.82,1211.37 2217.99,1215 2225.16,1249.26 2232.33,1260.09 2239.5,1288.5 2246.67,1284.82 2253.84,1270.69 2261.01,1270.72 2268.18,1304.05 2275.35,1320.53 2282.53,1330.34 2289.7,1335.33 2292.18,1321.86 "/>
<polyline clip-path="url(#clip822)" style="stroke:#8e971d; stroke-linecap:round; stroke-linejoin:round; stroke-width:8; stroke-opacity:1; fill:none" points="760.83,863.713 768.001,849.473 775.171,818.282 782.342,803.183 789.513,764.29 796.683,743.887 803.854,757.198 811.025,751.542 818.195,779.928 825.366,798.602 832.536,812.179 839.707,791.37 846.878,738.158 854.048,742.977 861.219,761.96 868.389,766.208 875.56,744.725 882.731,758.586 889.901,721.731 897.072,710.386 904.242,699.666 911.413,696.895 918.584,673.759 925.754,680.67 932.925,696.802 940.096,683.209 947.266,653.709 954.437,658.953 961.607,604.563 968.778,573.7 975.949,552.301 983.119,529.613 990.29,530.006 997.46,537.214 1004.63,525.841 1011.8,532.99 1018.97,506.56 1026.14,506.75 1033.31,533.771 1040.48,539.375 1047.65,519.335 1054.83,542.133 1062,536.111 1069.17,536.821 1076.34,511.931 1083.51,511.948 1090.68,500.518 1097.85,533.31 1105.02,503.654 1112.19,453.617 1119.36,466.54 1126.53,490.563 1133.7,499.043 1140.87,535.285 1148.04,530.888 1155.21,517.48 1162.38,484.393 1169.56,479.004 1176.73,455.697 1183.9,453.724 1191.07,452.819 1198.24,427.711 1205.41,395.788 1212.58,420.621 1219.75,421.611 1226.92,433.767 1234.09,445.095 1241.26,440.958 1248.43,442.85 1255.6,430.492 1262.77,435.298 1269.94,446.768 1277.11,421.365 1284,459.576 "/>
<polyline clip-path="url(#clip822)" style="stroke:#00a8cb; stroke-linecap:round; stroke-linejoin:round; stroke-width:8; stroke-opacity:1; fill:none" points="1284,459.576 1291.17,452.143 1298.34,459.999 1305.51,416.327 1312.68,388.265 1319.86,361.154 1327.03,351.134 1334.2,333.364 1341.37,349.934 1348.54,345.042 1355.71,334.251 1362.88,358.889 1370.05,382.471 1377.22,375.191 1384.39,406.476 1391.56,418.55 1398.73,432.251 1405.9,465.789 1413.07,450.177 1420.24,439.578 1427.41,453.162 1434.59,474.522 1441.76,463.402 1448.93,462.86 1456.1,460.002 1463.27,493.603 1470.44,508.96 1477.61,505.551 1484.78,488.401 1491.95,461.525 1499.12,506.174 1506.29,504.43 1513.46,473.716 1520.63,434.366 1527.8,417.876 1534.97,417.259 1542.14,413.791 1549.32,420.521 1556.49,445.897 1563.66,458.913 1570.83,453.107 1578,435.929 1585.17,438.143 1592.34,454.911 1599.51,468.383 1606.68,429.261 1613.85,440.313 1621.02,476.138 1628.19,486.985 1635.36,510.755 1642.53,501.376 1649.7,492.548 1656.87,507.121 1664.04,522.601 1671.22,524.034 1678.39,551.338 1685.56,564.276 1692.73,549.832 1699.9,572.076 1707.07,569.307 1714.24,575.932 1721.41,575.249 1728.58,570.337 1735.75,534.714 1742.92,556.525 1750.09,550.249 1757.26,552.482 1764.43,531.883 1771.6,519.542 1778.77,543.837 1785.95,527.446 1793.12,517.727 1800.29,528.481 1807.46,509.49 1814.63,506.236 1821.8,513.226 1828.97,540.99 1836.14,549.535 1843.31,520.655 1850.48,531.903 1857.65,514.413 1864.82,540.027 1871.99,525.79 1879.16,516.562 1886.33,502.391 1893.5,457.528 1900.67,444.296 1906.84,457.064 "/>
<polyline clip-path="url(#clip822)" style="stroke:#9b7fe8; stroke-linecap:round; stroke-linejoin:round; stroke-width:8; stroke-opacity:1; fill:none" points="1906.84,457.064 1914.01,443.538 1921.18,454.094 1928.35,463.279 1935.52,470.873 1942.69,457.2 1949.86,444.536 1957.03,452.548 1964.2,450.927 1971.37,451.011 1978.54,455.602 1985.71,456.009 1992.88,417.309 2000.05,414.19 2007.23,420.365 2014.4,424.716 2021.57,402.342 2028.74,372.439 2035.91,371.115 2043.08,367.642 2050.25,385.463 2057.42,379.162 2064.59,355.888 2071.76,340.417 2078.93,341.137 2086.1,311.809 2093.27,295.017 2100.44,282.541 2107.61,309.68 2114.78,354.647 2121.95,323.948 2129.13,312.333 2136.3,326.15 2143.47,321.893 2150.64,320.328 2157.81,321.3 2164.98,268.948 2172.15,254.702 2179.32,251.989 2186.49,259.56 2193.66,238.953 2200.83,208.498 2208,222.069 2215.17,219.913 2222.34,225.182 2229.51,238.71 2236.68,244.953 2243.86,236.237 2251.03,255.454 2258.2,234.946 2265.37,254.506 2272.54,242.832 2279.71,280.761 2286.88,304.798 2292.18,314.69 "/>
<polyline clip-path="url(#clip822)" style="stroke:#608cf6; stroke-linecap:round; stroke-linejoin:round; stroke-width:8; stroke-opacity:1; fill:none" points="1906.84,457.064 1914.01,474.789 1921.18,468.115 1928.35,475.101 1935.52,443.085 1942.69,444.443 1949.86,434.976 1957.03,431.954 1964.2,420.974 1971.37,435.715 1978.54,407.856 1985.71,393.564 1992.13,398.588 "/>
<polyline clip-path="url(#clip822)" style="stroke:#f05f73; stroke-linecap:round; stroke-linejoin:round; stroke-width:8; stroke-opacity:1; fill:none" points="1992.13,398.588 1999.3,425.346 2006.47,430.211 2013.64,405.823 2020.81,423.62 2027.98,436.684 2035.16,447.601 2042.33,440.877 2049.5,412.348 2056.67,433.71 2063.84,437.51 2071.01,421.337 2078.18,449.09 2085.35,440.88 2092.52,415.271 2099.69,371.564 2106.86,376.069 2114.03,397.76 2121.2,418.77 2128.37,432.065 2135.54,420.249 2142.71,407.038 2149.89,428.759 2157.06,407.694 2164.23,409.21 2171.4,391.168 2178.57,389.142 2185.74,384.412 2192.91,373.279 2200.08,419.419 2207.25,405.954 2214.42,380.976 2221.59,398.222 2228.76,407.826 2235.93,434.334 2243.1,436.955 2250.27,453.134 2257.44,443.544 2264.61,436.544 2271.79,476.77 2278.96,476.573 2286.13,495.607 2292.18,505.229 "/>
<polyline clip-path="url(#clip822)" style="stroke:#dd64b5; stroke-linecap:round; stroke-linejoin:round; stroke-width:8; stroke-opacity:1; fill:none" points="1992.13,398.588 1999.3,419.636 2006.47,408.119 2013.64,390.988 2020.81,373.756 2027.98,404.904 2035.16,398.522 2042.33,370.442 2049.5,361.356 2056.67,339.674 2063.84,352.811 2071.01,378.657 2078.18,354.275 2085.35,363.071 2092.52,356.428 2099.69,345.539 2106.86,326.541 2114.03,314.944 2121.2,302.29 2128.37,283.694 2135.54,267.51 2142.71,247.745 2149.89,249.99 2157.06,269.81 2164.23,271.98 2171.4,293.33 2178.57,295.33 2185.74,300.333 2192.91,291.444 2200.08,240.104 2207.25,212.058 2214.42,280.363 2221.59,263.97 2228.76,302.933 2235.93,306.169 2243.1,338.467 2250.27,311.111 2257.44,325.214 2264.61,337.61 2271.79,342.936 2278.96,329.145 2286.13,354.429 2292.18,360.417 "/>
<polyline clip-path="url(#clip822)" style="stroke:#6b9e32; stroke-linecap:round; stroke-linejoin:round; stroke-width:8; stroke-opacity:1; fill:none" points="1284,459.576 1291.17,446.768 1298.34,430.58 1305.51,447.62 1312.68,474.915 1319.86,505.724 1327.03,471.625 1334.2,480.74 1341.37,466.544 1348.54,448.078 1355.71,479.723 1362.88,469.007 1370.05,455.037 1377.22,463.515 1384.39,435.894 1391.56,428.753 1398.73,444.67 1405.9,439.929 1413.07,443.095 1420.24,468.715 1427.41,436.084 1434.59,431.301 1441.76,436.076 1448.93,416.894 1456.1,416.866 1463.27,385.988 1470.44,348.664 1477.61,320.998 1484.78,323.508 1491.95,356.963 1499.12,372.031 1506.29,370.97 1513.46,361.925 1520.63,390.674 1527.8,370.43 1534.97,370.246 1542.14,352.542 1549.32,369.891 1556.49,333.125 1563.66,324.721 1570.83,309.634 1578,306.752 1585.17,335.402 1592.34,320.335 1599.51,302.724 1606.68,311.753 1613.85,316.049 1621.02,325.381 1628.19,333.251 1635.36,321.365 1642.53,311.618 1649.7,305.42 1656.87,320.55 1664.04,311.737 1671.22,319.593 1678.39,307.13 1685.56,294.295 1692.73,294.068 1699.9,291.161 1707.07,311.603 1714.24,271.996 1714.31,270.753 "/>
<polyline clip-path="url(#clip822)" style="stroke:#009af9; stroke-linecap:round; stroke-linejoin:round; stroke-width:8; stroke-opacity:1; fill:none" points="1714.31,270.753 1721.48,310.879 1728.65,307.053 1735.82,289.77 1742.99,293.301 1750.16,258.232 1757.33,291.07 1764.5,297.662 1771.67,302.961 1778.84,328.919 1786.01,303.102 1793.18,299.098 1800.35,257.997 1807.52,240.919 1814.69,248.715 1821.87,268.528 1829.04,281.268 1836.21,301.757 1843.38,318.172 1850.55,341.275 1857.72,308.802 1864.89,291.726 1872.06,287.578 1879.23,303.242 1886.4,308.346 1893.57,272.427 1900.74,316.794 1907.91,300.879 1915.08,315.277 1922.25,307.25 1929.42,307.1 1936.6,312.983 1943.77,319.906 1950.94,312.385 1958.11,295.424 1965.28,293.87 1972.45,300.15 1979.62,277.921 1986.79,313.723 1993.96,321.155 2001.13,350.527 2008.3,386.521 2015.47,368.481 2022.64,339.407 2029.81,357.389 2036.98,349.957 2044.15,379.501 2051.33,378.861 2058.5,365.015 2065.67,365.402 2072.84,383.977 2080.01,408.117 2087.18,385.836 2094.35,387.077 2101.52,351.816 2108.69,336.59 2115.86,335.342 2123.03,355.73 2130.2,342.848 2137.37,369.861 2144.54,306.989 2151.71,284.824 2158.88,226.91 2166.05,255.428 2173.23,232.609 2180.4,274.626 2187.57,273.666 2194.74,270.107 2201.91,264.975 2209.08,267.22 2216.25,324.01 2223.42,348.762 2230.59,385.434 2237.76,361.82 2244.93,368.877 2252.1,384.181 2259.27,392.608 2266.44,432.223 2273.61,425.077 2280.78,404.741 2287.96,373.224 2292.18,348.01 "/>
<polyline clip-path="url(#clip822)" style="stroke:#e26f46; stroke-linecap:round; stroke-linejoin:round; stroke-width:8; stroke-opacity:1; fill:none" points="1714.31,270.753 1721.48,270.368 1728.65,251.311 1735.82,232.048 1742.99,203.659 1750.16,186.808 1757.33,166.847 1764.5,188.151 1771.67,194.977 1778.84,163.715 1786.01,141.844 1791.44,126.571 "/>
<polyline clip-path="url(#clip822)" style="stroke:#3da44d; stroke-linecap:round; stroke-linejoin:round; stroke-width:8; stroke-opacity:1; fill:none" points="1791.44,126.571 1798.61,114.503 1805.78,105.783 1812.95,89.9328 1820.12,128.764 1827.29,143.855 1834.46,138.652 1841.63,113.293 1848.81,158.608 1855.98,166.596 1863.15,160.957 1870.32,207.545 1877.49,204.263 1884.66,181.31 1891.83,211.261 1899,193.88 1906.17,200.916 1913.34,181.847 1920.51,176.981 1927.68,210.934 1934.85,203.917 1942.02,237.314 1949.19,228.644 1956.36,224.181 1963.54,227.787 1970.71,245.58 1977.88,246.424 1985.05,286.033 1992.22,250.322 1999.39,263.14 2006.56,195.683 2013.73,196.684 2020.9,259.476 2028.07,264.348 2035.24,276.616 2042.41,272.598 2049.58,283.909 2056.75,260.669 2063.92,261.578 2071.09,291.489 2078.27,326.471 2085.44,341.24 2092.61,317.543 2099.78,357.255 2106.95,323.491 2114.12,321.801 2121.29,352.977 2128.46,341.727 2135.63,357.335 2135.9,351.684 "/>
<polyline clip-path="url(#clip822)" style="stroke:#c271d2; stroke-linecap:round; stroke-linejoin:round; stroke-width:8; stroke-opacity:1; fill:none" points="2135.9,351.684 2143.07,297.035 2150.24,315.184 2157.41,318.416 2164.58,317.879 2171.75,293.616 2178.92,288.157 2186.09,273.838 2193.26,305.849 2200.43,256.184 2207.6,278.939 2214.77,241.572 2221.95,233.89 2229.12,257.269 2236.29,275.556 2243.46,283.488 2250.63,346.346 2257.8,330.41 2264.97,347.166 2272.14,368.837 2279.31,350.666 2286.48,341.422 2292.18,335.496 "/>
<polyline clip-path="url(#clip822)" style="stroke:#ac8d18; stroke-linecap:round; stroke-linejoin:round; stroke-width:8; stroke-opacity:1; fill:none" points="2135.9,351.684 2143.07,334.238 2150.24,342.788 2157.41,362.9 2164.58,362.197 2171.75,365.044 2178.92,367.086 2186.09,359.788 2193.26,386.622 2200.43,390.482 2207.6,404.42 2214.77,402.009 2221.95,395.48 2229.12,382.505 2236.29,355.764 2243.46,325.167 2250.63,289.992 2257.8,295.155 2264.97,290.453 2272.14,292.544 2279.31,309.345 2286.48,300.467 2292.18,286.813 "/>
<polyline clip-path="url(#clip822)" style="stroke:#00a9ad; stroke-linecap:round; stroke-linejoin:round; stroke-width:8; stroke-opacity:1; fill:none" points="1791.44,126.571 1798.61,145.646 1805.78,157.96 1812.95,188.026 1820.12,192.779 1827.29,222.093 1834.46,228.363 1841.63,254.934 1848.81,253.444 1855.98,283.056 1863.15,255.734 1870.32,237.47 1877.49,260.657 1884.66,269.736 1891.83,282.7 1899,279.426 1906.17,289.515 1913.34,300.77 1920.51,288.083 1927.68,246.031 1934.85,213.058 1942.02,232.7 1949.19,222.888 1956.36,238.092 1963.54,191.477 1970.71,189.071 1977.88,206.488 1985.05,171.603 1992.22,180.725 1999.39,162.475 2006.56,170.576 2013.73,169.415 2020.9,201.053 2028.07,187.028 2035.24,159.964 2042.41,142.865 2049.58,136.441 2056.75,137.565 2063.92,122.621 2071.09,93.2302 2078.27,86.1857 2085.44,107.127 2092.61,122.193 2099.78,112.352 2106.95,108.081 2114.12,123.973 2121.29,101.396 2128.46,111.156 2135.63,159.073 2142.8,175.13 2149.97,174.841 2157.14,123.106 2164.31,113.135 2171.48,115.933 2178.65,124.578 2185.82,157.827 2192.99,202.872 2200.17,223.587 2207.34,206.06 2214.51,201.063 2221.68,235.621 2228.85,218.565 2236.02,209.877 2243.19,235.644 2250.36,184.435 2257.53,176.365 2264.7,195.285 2271.87,166.68 2279.04,137.65 2286.21,138.493 2292.18,138.414 "/>
<polyline clip-path="url(#clip822)" style="stroke:#ed5d92; stroke-linecap:round; stroke-linejoin:round; stroke-width:8; stroke-opacity:1; fill:none" points="728.243,820.35 735.413,826.109 742.584,826.843 749.755,795.326 756.925,813.99 764.096,836.858 771.267,876.935 778.437,849.585 785.608,840.73 792.778,851.409 799.949,827.379 807.12,824.158 814.29,873.583 821.461,874.435 828.631,855.906 835.802,847.246 842.973,852.472 850.143,841.198 857.314,836.76 864.484,766.375 871.655,744.233 878.826,703.249 885.996,708.006 893.167,673.029 900.338,666.211 907.508,647.005 914.679,590.478 921.849,575.29 929.02,568.553 936.191,577.898 943.361,561.683 950.532,554.905 957.702,552.743 964.873,559.009 972.044,556.258 979.214,556.998 986.385,540.332 993.556,550.927 1000.73,556.187 1007.9,560.298 1015.07,569.837 1022.24,561.591 1029.41,572.032 1036.58,575.174 1043.75,578.566 1050.92,612.295 1058.09,605.077 1065.26,612.389 1072.43,606.139 1072.46,604.699 "/>
<polyline clip-path="url(#clip822)" style="stroke:#c68125; stroke-linecap:round; stroke-linejoin:round; stroke-width:8; stroke-opacity:1; fill:none" points="1072.46,604.699 1079.63,615.33 1086.8,616.279 1093.97,559.702 1101.14,544.603 1108.31,514.158 1115.49,523.054 1122.66,537.371 1129.83,560.399 1137,585.878 1144.17,605.994 1151.34,609.426 1158.51,588.099 1162.67,603.605 "/>
<polyline clip-path="url(#clip822)" style="stroke:#00a98d; stroke-linecap:round; stroke-linejoin:round; stroke-width:8; stroke-opacity:1; fill:none" points="1162.67,603.605 1169.84,584.649 1177.02,543.794 1184.19,550.663 1191.36,559.659 1198.53,574.157 1205.7,586.643 1212.87,609.484 1220.04,626.914 1227.21,650.342 1234.38,633.903 1241.55,622.913 1248.72,615.513 1255.89,626.765 1263.06,629.984 1270.23,619.296 1277.4,604.514 1284.57,595.971 1291.74,588.602 1298.92,562.453 1306.09,551.508 1313.26,554.384 1320.43,561.525 1327.6,576.463 1334.77,574.676 1341.94,589.821 1349.11,578.14 1356.28,583.2 1363.45,607.046 1370.62,624.899 1377.79,632.022 1384.96,673.497 1392.13,661.754 1399.3,671.972 1406.47,659.215 1413.65,641.667 1420.82,647.494 1427.99,653.477 1435.16,610.195 1442.33,595.419 1449.5,606.408 1456.67,574.67 1463.84,606.995 1471.01,622.823 1478.18,609.569 1485.35,564.415 1492.52,571.726 1499.69,535.38 1506.86,541.539 1514.03,517.951 1521.2,515.848 1528.38,528.775 1535.55,531.015 1542.72,495.709 1549.89,522.085 1557.06,530.953 1564.23,522.811 1571.4,524.132 1578.57,543.528 1585.74,537.226 1592.91,534.199 1600.08,546.714 1607.25,545.901 1614.42,555.106 1621.59,535.583 1628.76,517.418 1635.93,518.505 1643.1,524.738 1650.28,516.615 1657.45,499.295 1664.62,492.575 1671.79,522.893 1678.96,531.2 1686.13,502.339 1693.3,538.563 1700.47,528.806 1707.64,530.146 1714.81,522.496 1721.98,528.676 1724.81,498.857 "/>
<polyline clip-path="url(#clip822)" style="stroke:#8e971d; stroke-linecap:round; stroke-linejoin:round; stroke-width:8; stroke-opacity:1; fill:none" points="1724.81,498.857 1731.98,489.048 1739.15,481.407 1746.32,483.473 1753.49,482.228 1760.66,497.852 1767.83,489.439 1775,525.071 1782.17,535.354 1789.35,532.213 1796.52,560.726 1803.69,604.005 1810.86,630.576 1818.03,643.508 1825.2,660.4 1832.37,659.737 1839.54,666.261 1846.71,641.687 1853.88,656.345 1861.05,656.297 1868.22,658.175 1875.39,684.084 1882.56,692.259 1889.73,676.461 1896.9,670.512 1904.08,643.227 1911.25,651.811 1918.42,648.431 1925.59,659.681 1932.76,676.516 1939.93,679.762 1947.1,686.945 1954.27,677.83 1961.44,655.829 1968.61,628.225 1975.78,630.443 1982.95,639.822 1990.12,655.433 1997.29,605.7 2004.46,617.401 2011.63,584.98 2018.81,614.361 2025.98,612.747 2033.15,585.083 2040.32,566.351 2047.49,495.903 2054.66,477.545 2061.83,480.865 2069,479.371 2076.17,511.463 2083.34,575.587 2090.51,563.433 2097.68,590.1 2104.85,589.438 2112.02,610.429 2119.19,592.918 2126.36,591.63 2133.53,619.006 2140.71,666.258 2147.88,674.908 2155.05,650.869 2162.22,649.589 2169.39,628.677 2176.56,645.448 2183.73,665.519 2190.9,619.298 2198.07,627.938 2205.24,644.011 2212.41,657.161 2219.58,693.838 2226.75,672.573 2233.92,644.708 2241.09,672.808 2248.26,684.192 2255.44,689.964 2262.61,706.279 2269.78,701.362 2276.95,692.071 2284.12,711.614 2291.29,677.339 2292.18,671.055 "/>
<polyline clip-path="url(#clip822)" style="stroke:#00a8cb; stroke-linecap:round; stroke-linejoin:round; stroke-width:8; stroke-opacity:1; fill:none" points="1724.81,498.857 1731.98,490.735 1739.15,483.938 1746.32,507.249 1753.49,492.022 1760.66,521.625 1767.83,557.62 1775,575.204 1782.17,577.929 1789.35,572.127 1796.52,584.016 1803.69,558.737 1810.86,557.918 1818.03,529.84 1825.2,542.997 1832.37,582.855 1839.54,607.073 1846.71,601.779 1853.88,583.17 1861.05,595.568 1868.22,595.568 1875.39,587.268 1882.56,570.564 1889.73,543.557 1896.9,589.608 1904.08,582.956 1911.25,587.435 1918.42,601.167 1925.59,654.21 1932.76,610.363 1939.93,615.636 1947.1,607.918 1949.25,617.315 "/>
<polyline clip-path="url(#clip822)" style="stroke:#9b7fe8; stroke-linecap:round; stroke-linejoin:round; stroke-width:8; stroke-opacity:1; fill:none" points="1949.25,617.315 1956.42,662.779 1963.6,669.759 1970.77,635.52 1977.94,638.503 1985.11,632.573 1992.28,627.445 1999.45,647.918 2006.62,655.974 2013.79,689.18 2020.96,687.304 2028.13,672.386 2035.3,643.621 2042.47,621.817 2049.64,611.051 2056.81,579.521 2063.98,578.166 2071.15,598.654 2078.32,603.593 2085.5,600.477 2092.67,550.646 2099.84,532.381 2107.01,534.697 2114.18,550.238 2121.35,575.641 2128.52,603.202 2135.69,593.458 2142.86,591.63 2150.03,601.613 2157.2,563.533 2164.37,580.244 2171.54,588.62 2178.71,589.538 2185.88,590.967 2193.05,585.406 2200.23,605.762 2207.4,592.063 2214.57,587.459 2221.74,584.631 2228.91,616.528 2236.08,601.593 2243.25,584.281 2250.42,577.803 2257.59,603.094 2264.76,591.651 2271.93,590.508 2279.1,589.863 2286.27,588.901 2292.18,568.888 "/>
<polyline clip-path="url(#clip822)" style="stroke:#608cf6; stroke-linecap:round; stroke-linejoin:round; stroke-width:8; stroke-opacity:1; fill:none" points="1949.25,617.315 1956.42,621.648 1963.6,659.591 1970.77,678.055 1977.94,684.684 1985.11,674.79 1992.28,682.594 1999.45,682.218 2006.62,676.348 2013.79,680.445 2020.96,669.362 2028.13,660.494 2035.3,644.627 2042.47,619.332 2049.64,584.44 2056.81,548.753 2063.98,532.243 2071.15,580.494 2078.32,556.796 2085.5,556.062 2092.67,559.216 2099.84,581.785 2107.01,612.069 2114.18,633.263 2121.35,618.695 2128.52,602.208 2128.66,606.964 "/>
<polyline clip-path="url(#clip822)" style="stroke:#f05f73; stroke-linecap:round; stroke-linejoin:round; stroke-width:8; stroke-opacity:1; fill:none" points="2128.66,606.964 2135.83,612.126 2143.01,585.64 2150.18,562.771 2157.35,596.282 2164.52,601.119 2171.69,606.798 2178.86,607.923 2186.03,612.427 2193.2,580.824 2200.37,575.468 2207.54,588.765 2214.71,585.523 2221.88,575.175 2229.05,582.594 2236.22,592.43 2243.39,589.364 2250.56,636.388 2257.74,637.449 2264.91,610.137 2272.08,631.227 2279.25,628.624 2286.42,615.929 2292.18,617.49 "/>
<polyline clip-path="url(#clip822)" style="stroke:#dd64b5; stroke-linecap:round; stroke-linejoin:round; stroke-width:8; stroke-opacity:1; fill:none" points="2128.66,606.964 2135.83,620.652 2143.01,630.389 2150.18,641.667 2157.35,648.522 2164.52,664.234 2171.69,667.939 2178.86,639.274 2186.03,682.946 2193.2,680.273 2200.37,662.837 2207.54,635.248 2214.71,639.102 2221.88,646.048 2229.05,664.056 2236.22,676.97 2243.39,689.917 2250.56,681.556 2257.74,701.204 2264.91,657.443 2272.08,618.161 2279.25,620.237 2286.42,638.195 2292.18,631.654 "/>
<polyline clip-path="url(#clip822)" style="stroke:#6b9e32; stroke-linecap:round; stroke-linejoin:round; stroke-width:8; stroke-opacity:1; fill:none" points="1162.67,603.605 1169.84,594.22 1177.02,583.203 1184.19,571.55 1191.36,523.131 1198.53,538.176 1205.7,557.127 1212.87,550.943 1220.04,569.17 1227.21,577.644 1234.38,597.576 1241.55,591.077 1248.72,546.504 1255.89,536.514 1263.06,507.407 1270.23,519.448 1277.4,484.742 1284.57,493.285 1291.74,515.643 1298.92,546.897 1306.09,526.05 1313.26,521.005 1320.43,513.333 1327.6,530.798 1334.77,534.038 1341.94,502.596 1349.11,531.408 1356.28,515.147 1363.45,506.842 1370.62,490.425 1377.79,508.991 1384.96,494.418 1392.13,486.543 1399.3,499.163 1406.47,485.398 1413.65,465.281 1420.82,460.546 1427.99,433.28 1435.16,426.484 1442.33,455.602 1449.5,454.452 1456.67,450.522 1463.84,451.041 1471.01,430.631 1478.18,406.872 1485.35,392.845 1492.52,371.869 1499.69,398.323 1506.86,405.669 1514.03,408.191 1521.2,402.793 1528.38,387.23 1535.55,391.818 1542.72,383.172 1549.89,386.556 1557.06,393.51 1564.23,382.072 1571.4,375.789 1578.57,361.192 1585.74,352.784 1592.91,361.813 1600.08,374.382 1607.25,354.853 1614.42,394.654 1621.59,407.791 1628.76,428.641 1635.93,433.513 1643.1,424.159 1650.28,455.793 1657.45,420.368 1664.62,411.192 1671.79,424.663 1678.96,442.542 1686.13,448.417 1693.3,485.113 1700.47,477.058 1707.64,487.675 1714.81,480.977 1721.98,500.974 1725.96,486.362 "/>
<polyline clip-path="url(#clip822)" style="stroke:#009af9; stroke-linecap:round; stroke-linejoin:round; stroke-width:8; stroke-opacity:1; fill:none" points="1725.96,486.362 1733.13,478.929 1740.3,497.005 1747.47,520.825 1754.64,520.185 1760.46,516.129 "/>
<polyline clip-path="url(#clip822)" style="stroke:#e26f46; stroke-linecap:round; stroke-linejoin:round; stroke-width:8; stroke-opacity:1; fill:none" points="1760.46,516.129 1767.63,507.797 1774.8,475.983 1781.97,468.999 1789.14,443.522 1796.31,439.38 1803.48,411.708 1810.65,409.056 1817.83,398.218 1825,395.732 1832.17,383.93 1839.34,369.84 1846.51,399.908 1853.68,439.661 1860.85,387.967 1868.02,419.295 1875.19,430.474 1882.36,454.069 1889.53,451.819 1896.7,438.298 1903.87,432.507 1910.33,464.721 "/>
<polyline clip-path="url(#clip822)" style="stroke:#3da44d; stroke-linecap:round; stroke-linejoin:round; stroke-width:8; stroke-opacity:1; fill:none" points="1910.33,464.721 1917.5,469.027 1924.67,484.218 1931.85,451.41 1939.02,440.039 1946.19,445.329 1953.36,429.724 1960.53,395.714 1967.7,374.541 1974.87,352.983 1982.04,353.304 1989.21,335.408 1996.38,340.699 2003.55,353.276 2010.72,368.77 2017.89,359.273 2025.06,373.465 2032.23,376.87 2039.4,383.43 2046.57,349.218 2053.75,376.221 2060.92,383.205 2068.09,409.813 2075.26,424.435 2082.43,408.322 2089.6,444.849 2096.77,409.239 2103.94,407.434 2111.11,418.782 2118.28,417.997 2125.45,427.056 2132.62,470.646 2139.79,471.43 2146.96,489.927 2154.13,470.831 2161.3,462.47 2168.48,444.037 2175.65,443.639 2182.82,465.1 2189.99,463.047 2197.16,523.763 2204.33,507.832 2211.5,526.793 2218.67,561.691 2225.84,568.094 2233.01,580.694 2240.18,565.352 2247.35,580.73 2254.52,583.536 2261.69,596.407 2268.86,604.326 2276.03,607.233 2283.21,651.989 2290.38,628.199 2292.18,626.447 "/>
<polyline clip-path="url(#clip822)" style="stroke:#c271d2; stroke-linecap:round; stroke-linejoin:round; stroke-width:8; stroke-opacity:1; fill:none" points="1910.33,464.721 1917.5,448.746 1924.67,447.189 1931.85,438.13 1939.02,444.991 1946.19,440.79 1953.36,421.482 1960.53,460.888 1967.7,488.361 1974.87,527.326 1982.04,560.243 1989.21,582.107 1996.38,600.527 2003.55,580.991 2010.72,606.958 2017.89,605.66 2025.06,648.577 2032.23,672.399 2039.4,641.045 2046.57,659.823 2053.75,650.048 2060.92,635.109 2068.09,622.666 2075.26,613.471 2082.43,590.294 2089.6,591.518 2096.77,592.829 2103.94,585.334 2111.11,597.066 2118.28,623.305 2125.45,580.181 2132.62,627.914 2139.79,630.939 2146.96,635.759 2154.13,653.604 2161.3,634.15 2168.48,652.689 2175.65,640.621 2182.82,622.891 2189.99,606.36 2197.16,589.915 2204.33,626.028 2211.5,590.55 2218.67,619.905 2225.84,608.99 2233.01,632.805 2240.18,631.67 2247.35,631.205 2254.52,629.447 2261.69,629.935 2268.86,621.456 2276.03,600.277 2283.21,588.567 2290.38,586.483 2292.18,585.593 "/>
<polyline clip-path="url(#clip822)" style="stroke:#ac8d18; stroke-linecap:round; stroke-linejoin:round; stroke-width:8; stroke-opacity:1; fill:none" points="1760.46,516.129 1767.63,500.088 1774.8,492.213 1781.97,514.705 1789.14,496.203 1796.31,474.268 1803.48,482.328 1810.65,505.155 1817.83,514.472 1825,489.99 1832.17,480.719 1839.34,489.175 1846.51,495.887 1853.68,479.538 1860.85,497.369 1868.02,486.458 1875.19,518.416 1882.36,503.272 1889.53,514.176 1896.7,520.198 1903.87,546.125 1911.04,521.399 1918.21,538.789 1925.38,546.662 1932.55,555.069 1939.73,540.691 1946.9,535.319 1954.07,532.817 1961.24,569.777 1968.41,585.155 1975.58,582.449 1982.75,585.886 1989.92,623.194 1997.09,635.626 2004.26,656.388 2011.43,655.965 2018.6,647.099 2025.77,652.013 2032.94,641.274 2040.11,640.37 2047.28,599.622 2054.46,594.557 2061.63,569.181 2068.8,560.192 2075.97,569.758 2083.14,596.595 2090.31,603.984 2097.48,600.681 2104.65,600.694 2111.82,635.124 2118.99,632.686 2126.16,612.747 2133.33,589.476 2140.5,584.594 2147.67,588.866 2154.84,605.19 2162.01,605.456 2169.19,561.747 2176.36,551.533 2183.53,577.277 2190.7,599.144 2197.87,601.956 2205.04,609.216 2212.21,613.892 2219.38,623.691 2226.55,612.631 2233.72,633.91 2240.89,628.035 2248.06,605.635 2255.23,605.792 2262.4,614.849 2269.57,632.317 2276.74,633.239 2283.91,637.874 2291.09,620.067 2292.18,622.611 "/>
<polyline clip-path="url(#clip822)" style="stroke:#00a9ad; stroke-linecap:round; stroke-linejoin:round; stroke-width:8; stroke-opacity:1; fill:none" points="1725.96,486.362 1733.13,482.867 1740.3,469.786 1747.47,452.702 1754.64,452.179 1761.82,436.349 1768.99,431.194 1776.16,431.636 1783.33,424.718 1790.5,391.544 1797.67,412.984 1804.84,405.822 1812.01,420.864 1819.18,390.217 1826.35,413.347 1833.52,406.493 1840.69,405.787 1847.86,407.647 1855.03,380.307 1862.2,401.02 1869.37,375.333 1876.54,361.956 1883.72,380.695 1890.89,384.281 1898.06,414.479 1905.23,411.152 1912.4,386.304 1919.57,357.792 1926.74,385.234 1933.91,376.262 1941.08,367.557 1948.25,398.513 1955.42,415.021 1962.59,387.65 1969.76,421.454 1976.93,369.995 1984.1,392.574 1991.27,402.712 1998.45,399.054 2005.62,403.78 2012.79,415.687 2019.96,412.562 2027.13,441.985 2034.3,411.283 2041.47,422.673 2048.64,386.956 2055.81,377.882 2062.98,368.401 2070.15,383.343 2077.32,422.597 2084.49,438.876 2091.66,472.92 2098.83,493.458 2106,491.224 2113.18,509.733 2120.35,478.852 2127.52,451.938 2134.69,439.288 2141.86,430.681 2149.03,451.33 2156.2,424.548 2163.37,405.837 2170.54,399.899 2177.71,407.291 2184.88,388.936 2192.05,358.23 2199.22,343.163 2206.39,329.223 2213.56,300.117 2220.73,321.081 2227.9,300.383 2235.08,302.953 2242.25,314.58 2249.42,327.699 2256.59,364.003 2263.76,356.146 2270.93,358.612 2278.1,368.807 2285.27,346.951 2292.18,350.923 "/>
<polyline clip-path="url(#clip822)" style="stroke:#ed5d92; stroke-linecap:round; stroke-linejoin:round; stroke-width:8; stroke-opacity:1; fill:none" points="1072.46,604.699 1079.63,597.498 1086.8,601.68 1093.97,592.912 1101.14,613.184 1108.31,628.718 1115.49,627.487 1122.66,623.968 1129.83,620.943 1137,597.739 1144.17,592.374 1151.34,664.567 1158.51,662.986 1165.68,644.294 1172.85,645.203 1180.02,648.115 1187.19,658.834 1194.36,637.551 1201.53,645.898 1208.7,629.862 1215.87,618.641 1223.04,640.815 1230.21,643.218 1237.39,625.921 1244.56,628.201 1251.73,610.773 1258.9,589.617 1266.07,589.659 1273.24,563.024 1280.41,561.575 1287.58,558.497 1294.75,555.743 1301.92,558.84 1309.09,576.343 1316.26,567.366 1323.43,579.882 1330.6,614.926 1337.77,594.901 1344.94,580.568 1352.12,578.311 1359.29,566.404 1366.46,566.65 1373.63,601.996 1380.8,620.96 1387.97,625.341 1395.14,592.977 1402.31,588.8 1409.48,597.559 1416.65,643.095 1423.82,680.073 1430.99,681.607 1438.16,663.594 1445.33,702.445 1452.5,726.889 1459.67,705.831 1466.85,687.982 1474.02,716.477 1481.19,707.245 1488.36,728.222 1495.53,724.852 1502.7,670.906 1509.87,627.016 1517.04,638.469 1524.21,666.349 1531.38,663.812 1538.55,682.687 1545.72,728.761 1552.89,736.944 1560.06,734.119 1567.23,717.69 1574.4,734.216 1581.57,678.125 1588.75,676.732 1595.92,714.249 1603.09,710.968 1610.26,724.95 1617.43,774.017 1624.6,754.446 1631.77,746.446 1638.94,750.634 1646.11,743.898 1653.28,763.339 1660.45,751.425 1667.62,721.819 1674.79,700.058 1681.96,724.112 1689.13,746.007 1696.3,735.158 1703.48,751.863 1710.65,743.419 1717.82,745.086 1724.99,722.144 1732.16,711.911 1739.33,740.086 1746.5,726.77 1753.67,738.571 1760.84,744.643 1768.01,730.265 1775.18,730.033 1782.35,756.673 1789.52,759.194 1796.69,747.692 1803.86,721.394 1811.03,736.544 1818.21,711.62 1825.38,727.461 1832.55,758.561 1839.72,783.489 1846.89,773.298 1854.06,797.655 1861.23,772.957 1868.4,803.257 1875.57,795.764 1882.74,813.407 1889.91,810.995 1897.08,801.951 1904.25,778.953 1911.42,744.707 1918.59,745.125 1925.76,731.628 1932.93,751.859 1940.11,731.596 1947.28,750.184 1954.45,733.206 1961.62,718.795 1968.79,696.849 1975.96,678.879 1983.13,681.751 1990.3,679.089 1997.47,705.442 2004.64,718.03 2011.81,714.861 2018.98,701.786 2026.15,713.277 2033.32,713.45 2040.49,685.223 2047.66,670.536 2054.84,660.929 2062.01,679.736 2069.18,667.486 2076.35,641.481 2083.52,635.51 2090.69,661.014 2097.86,640.819 2105.03,645.477 2112.2,604.377 2119.37,628.889 2126.54,607.524 2133.71,610.835 2140.88,589.12 2148.05,599.689 2155.22,638.003 2162.39,617.923 2169.57,647.735 2176.74,625.337 2183.91,663.711 2191.08,659.717 2198.25,678.165 2205.42,667.664 2212.59,677.391 2219.76,667.767 2226.93,679.48 2234.1,684.797 2241.27,686.247 2248.44,660.113 2255.61,646.533 2262.78,619.482 2263.62,611.814 "/>
<polyline clip-path="url(#clip822)" style="stroke:#c68125; stroke-linecap:round; stroke-linejoin:round; stroke-width:8; stroke-opacity:1; fill:none" points="2263.62,611.814 2269.23,630.235 "/>
<polyline clip-path="url(#clip822)" style="stroke:#00a98d; stroke-linecap:round; stroke-linejoin:round; stroke-width:8; stroke-opacity:1; fill:none" points="2269.23,630.235 2272.85,633.264 "/>
<polyline clip-path="url(#clip822)" style="stroke:#8e971d; stroke-linecap:round; stroke-linejoin:round; stroke-width:8; stroke-opacity:1; fill:none" points="2272.85,633.264 2280.02,611.037 2287.19,638.652 2290.28,638.856 "/>
<polyline clip-path="url(#clip822)" style="stroke:#00a8cb; stroke-linecap:round; stroke-linejoin:round; stroke-width:8; stroke-opacity:1; fill:none" points="2290.28,638.856 2292.18,638.95 "/>
<polyline clip-path="url(#clip822)" style="stroke:#9b7fe8; stroke-linecap:round; stroke-linejoin:round; stroke-width:8; stroke-opacity:1; fill:none" points="2290.28,638.856 2292.18,653.704 "/>
<polyline clip-path="url(#clip822)" style="stroke:#608cf6; stroke-linecap:round; stroke-linejoin:round; stroke-width:8; stroke-opacity:1; fill:none" points="2272.85,633.264 2280.02,616.796 2287.19,602.376 2292.18,602.333 "/>
<polyline clip-path="url(#clip822)" style="stroke:#f05f73; stroke-linecap:round; stroke-linejoin:round; stroke-width:8; stroke-opacity:1; fill:none" points="2269.23,630.235 2276.4,645.485 2283.57,649.37 2290.74,656.555 2292.18,658.432 "/>
<polyline clip-path="url(#clip822)" style="stroke:#dd64b5; stroke-linecap:round; stroke-linejoin:round; stroke-width:8; stroke-opacity:1; fill:none" points="2263.62,611.814 2270.79,612.631 2277.96,620.754 2285.13,611.274 2292.18,592.113 "/>
<circle clip-path="url(#clip822)" cx="273.033" cy="452.487" r="18" fill="#000000" fill-rule="evenodd" fill-opacity="1" stroke="none"/>
<circle clip-path="url(#clip822)" cx="728.243" cy="820.35" r="18" fill="#000000" fill-rule="evenodd" fill-opacity="1" stroke="none"/>
<circle clip-path="url(#clip822)" cx="760.83" cy="863.713" r="18" fill="#000000" fill-rule="evenodd" fill-opacity="1" stroke="none"/>
<circle clip-path="url(#clip822)" cx="1788.21" cy="1246.69" r="18" fill="#000000" fill-rule="evenodd" fill-opacity="1" stroke="none"/>
<circle clip-path="url(#clip822)" cx="1788.21" cy="1246.69" r="18" fill="#000000" fill-rule="evenodd" fill-opacity="1" stroke="none"/>
<circle clip-path="url(#clip822)" cx="1824.6" cy="1289.86" r="18" fill="#000000" fill-rule="evenodd" fill-opacity="1" stroke="none"/>
<circle clip-path="url(#clip822)" cx="2167.28" cy="1292.53" r="18" fill="#000000" fill-rule="evenodd" fill-opacity="1" stroke="none"/>
<circle clip-path="url(#clip822)" cx="2252.54" cy="1271.2" r="18" fill="#000000" fill-rule="evenodd" fill-opacity="1" stroke="none"/>
<circle clip-path="url(#clip822)" cx="2252.54" cy="1271.2" r="18" fill="#000000" fill-rule="evenodd" fill-opacity="1" stroke="none"/>
<circle clip-path="url(#clip822)" cx="2167.28" cy="1292.53" r="18" fill="#000000" fill-rule="evenodd" fill-opacity="1" stroke="none"/>
<circle clip-path="url(#clip822)" cx="1824.6" cy="1289.86" r="18" fill="#000000" fill-rule="evenodd" fill-opacity="1" stroke="none"/>
<circle clip-path="url(#clip822)" cx="1869.7" cy="1212.66" r="18" fill="#000000" fill-rule="evenodd" fill-opacity="1" stroke="none"/>
<circle clip-path="url(#clip822)" cx="1908.89" cy="1227.69" r="18" fill="#000000" fill-rule="evenodd" fill-opacity="1" stroke="none"/>
<circle clip-path="url(#clip822)" cx="1986.61" cy="1195.04" r="18" fill="#000000" fill-rule="evenodd" fill-opacity="1" stroke="none"/>
<circle clip-path="url(#clip822)" cx="1986.61" cy="1195.04" r="18" fill="#000000" fill-rule="evenodd" fill-opacity="1" stroke="none"/>
<circle clip-path="url(#clip822)" cx="1908.89" cy="1227.69" r="18" fill="#000000" fill-rule="evenodd" fill-opacity="1" stroke="none"/>
<circle clip-path="url(#clip822)" cx="2081.97" cy="1108.76" r="18" fill="#000000" fill-rule="evenodd" fill-opacity="1" stroke="none"/>
<circle clip-path="url(#clip822)" cx="2081.97" cy="1108.76" r="18" fill="#000000" fill-rule="evenodd" fill-opacity="1" stroke="none"/>
<circle clip-path="url(#clip822)" cx="2216.8" cy="1069.28" r="18" fill="#000000" fill-rule="evenodd" fill-opacity="1" stroke="none"/>
<circle clip-path="url(#clip822)" cx="2216.8" cy="1069.28" r="18" fill="#000000" fill-rule="evenodd" fill-opacity="1" stroke="none"/>
<circle clip-path="url(#clip822)" cx="1869.7" cy="1212.66" r="18" fill="#000000" fill-rule="evenodd" fill-opacity="1" stroke="none"/>
<circle clip-path="url(#clip822)" cx="2049.91" cy="1263.23" r="18" fill="#000000" fill-rule="evenodd" fill-opacity="1" stroke="none"/>
<circle clip-path="url(#clip822)" cx="2049.91" cy="1263.23" r="18" fill="#000000" fill-rule="evenodd" fill-opacity="1" stroke="none"/>
<circle clip-path="url(#clip822)" cx="2210.82" cy="1211.37" r="18" fill="#000000" fill-rule="evenodd" fill-opacity="1" stroke="none"/>
<circle clip-path="url(#clip822)" cx="2210.82" cy="1211.37" r="18" fill="#000000" fill-rule="evenodd" fill-opacity="1" stroke="none"/>
<circle clip-path="url(#clip822)" cx="760.83" cy="863.713" r="18" fill="#000000" fill-rule="evenodd" fill-opacity="1" stroke="none"/>
<circle clip-path="url(#clip822)" cx="1284" cy="459.576" r="18" fill="#000000" fill-rule="evenodd" fill-opacity="1" stroke="none"/>
<circle clip-path="url(#clip822)" cx="1906.84" cy="457.064" r="18" fill="#000000" fill-rule="evenodd" fill-opacity="1" stroke="none"/>
<circle clip-path="url(#clip822)" cx="1906.84" cy="457.064" r="18" fill="#000000" fill-rule="evenodd" fill-opacity="1" stroke="none"/>
<circle clip-path="url(#clip822)" cx="1992.13" cy="398.588" r="18" fill="#000000" fill-rule="evenodd" fill-opacity="1" stroke="none"/>
<circle clip-path="url(#clip822)" cx="1992.13" cy="398.588" r="18" fill="#000000" fill-rule="evenodd" fill-opacity="1" stroke="none"/>
<circle clip-path="url(#clip822)" cx="1284" cy="459.576" r="18" fill="#000000" fill-rule="evenodd" fill-opacity="1" stroke="none"/>
<circle clip-path="url(#clip822)" cx="1714.31" cy="270.753" r="18" fill="#000000" fill-rule="evenodd" fill-opacity="1" stroke="none"/>
<circle clip-path="url(#clip822)" cx="1714.31" cy="270.753" r="18" fill="#000000" fill-rule="evenodd" fill-opacity="1" stroke="none"/>
<circle clip-path="url(#clip822)" cx="1791.44" cy="126.571" r="18" fill="#000000" fill-rule="evenodd" fill-opacity="1" stroke="none"/>
<circle clip-path="url(#clip822)" cx="2135.9" cy="351.684" r="18" fill="#000000" fill-rule="evenodd" fill-opacity="1" stroke="none"/>
<circle clip-path="url(#clip822)" cx="2135.9" cy="351.684" r="18" fill="#000000" fill-rule="evenodd" fill-opacity="1" stroke="none"/>
<circle clip-path="url(#clip822)" cx="1791.44" cy="126.571" r="18" fill="#000000" fill-rule="evenodd" fill-opacity="1" stroke="none"/>
<circle clip-path="url(#clip822)" cx="728.243" cy="820.35" r="18" fill="#000000" fill-rule="evenodd" fill-opacity="1" stroke="none"/>
<circle clip-path="url(#clip822)" cx="1072.46" cy="604.699" r="18" fill="#000000" fill-rule="evenodd" fill-opacity="1" stroke="none"/>
<circle clip-path="url(#clip822)" cx="1162.67" cy="603.605" r="18" fill="#000000" fill-rule="evenodd" fill-opacity="1" stroke="none"/>
<circle clip-path="url(#clip822)" cx="1724.81" cy="498.857" r="18" fill="#000000" fill-rule="evenodd" fill-opacity="1" stroke="none"/>
<circle clip-path="url(#clip822)" cx="1724.81" cy="498.857" r="18" fill="#000000" fill-rule="evenodd" fill-opacity="1" stroke="none"/>
<circle clip-path="url(#clip822)" cx="1949.25" cy="617.315" r="18" fill="#000000" fill-rule="evenodd" fill-opacity="1" stroke="none"/>
<circle clip-path="url(#clip822)" cx="1949.25" cy="617.315" r="18" fill="#000000" fill-rule="evenodd" fill-opacity="1" stroke="none"/>
<circle clip-path="url(#clip822)" cx="2128.66" cy="606.964" r="18" fill="#000000" fill-rule="evenodd" fill-opacity="1" stroke="none"/>
<circle clip-path="url(#clip822)" cx="2128.66" cy="606.964" r="18" fill="#000000" fill-rule="evenodd" fill-opacity="1" stroke="none"/>
<circle clip-path="url(#clip822)" cx="1162.67" cy="603.605" r="18" fill="#000000" fill-rule="evenodd" fill-opacity="1" stroke="none"/>
<circle clip-path="url(#clip822)" cx="1725.96" cy="486.362" r="18" fill="#000000" fill-rule="evenodd" fill-opacity="1" stroke="none"/>
<circle clip-path="url(#clip822)" cx="1760.46" cy="516.129" r="18" fill="#000000" fill-rule="evenodd" fill-opacity="1" stroke="none"/>
<circle clip-path="url(#clip822)" cx="1910.33" cy="464.721" r="18" fill="#000000" fill-rule="evenodd" fill-opacity="1" stroke="none"/>
<circle clip-path="url(#clip822)" cx="1910.33" cy="464.721" r="18" fill="#000000" fill-rule="evenodd" fill-opacity="1" stroke="none"/>
<circle clip-path="url(#clip822)" cx="1760.46" cy="516.129" r="18" fill="#000000" fill-rule="evenodd" fill-opacity="1" stroke="none"/>
<circle clip-path="url(#clip822)" cx="1725.96" cy="486.362" r="18" fill="#000000" fill-rule="evenodd" fill-opacity="1" stroke="none"/>
<circle clip-path="url(#clip822)" cx="1072.46" cy="604.699" r="18" fill="#000000" fill-rule="evenodd" fill-opacity="1" stroke="none"/>
<circle clip-path="url(#clip822)" cx="2263.62" cy="611.814" r="18" fill="#000000" fill-rule="evenodd" fill-opacity="1" stroke="none"/>
<circle clip-path="url(#clip822)" cx="2269.23" cy="630.235" r="18" fill="#000000" fill-rule="evenodd" fill-opacity="1" stroke="none"/>
<circle clip-path="url(#clip822)" cx="2272.85" cy="633.264" r="18" fill="#000000" fill-rule="evenodd" fill-opacity="1" stroke="none"/>
<circle clip-path="url(#clip822)" cx="2290.28" cy="638.856" r="18" fill="#000000" fill-rule="evenodd" fill-opacity="1" stroke="none"/>
<circle clip-path="url(#clip822)" cx="2290.28" cy="638.856" r="18" fill="#000000" fill-rule="evenodd" fill-opacity="1" stroke="none"/>
<circle clip-path="url(#clip822)" cx="2272.85" cy="633.264" r="18" fill="#000000" fill-rule="evenodd" fill-opacity="1" stroke="none"/>
<circle clip-path="url(#clip822)" cx="2269.23" cy="630.235" r="18" fill="#000000" fill-rule="evenodd" fill-opacity="1" stroke="none"/>
<circle clip-path="url(#clip822)" cx="2263.62" cy="611.814" r="18" fill="#000000" fill-rule="evenodd" fill-opacity="1" stroke="none"/>
</svg>
