<?xml version="1.0" encoding="utf-8"?>
<svg xmlns="http://www.w3.org/2000/svg" xmlns:xlink="http://www.w3.org/1999/xlink" width="600" height="400" viewBox="0 0 2400 1600">
<defs>
  <clipPath id="clip310">
    <rect x="0" y="0" width="2400" height="1600"/>
  </clipPath>
</defs>
<path clip-path="url(#clip310)" d="M0 1600 L2400 1600 L2400 0 L0 0  Z" fill="#ffffff" fill-rule="evenodd" fill-opacity="1"/>
<defs>
  <clipPath id="clip311">
    <rect x="391" y="47" width="1962" height="1377"/>
  </clipPath>
</defs>
<path clip-path="url(#clip310)" d="M391.389 1423.18 L2352.76 1423.18 L2352.76 47.2441 L391.389 47.2441  Z" fill="#ffffff" fill-rule="evenodd" fill-opacity="1"/>
<polyline clip-path="url(#clip311)" style="stroke:#000000; stroke-linecap:round; stroke-linejoin:round; stroke-width:2; stroke-opacity:0.1; fill:none" points="446.899,1423.18 446.899,47.2441 "/>
<polyline clip-path="url(#clip311)" style="stroke:#000000; stroke-linecap:round; stroke-linejoin:round; stroke-width:2; stroke-opacity:0.1; fill:none" points="1063.68,1423.18 1063.68,47.2441 "/>
<polyline clip-path="url(#clip311)" style="stroke:#000000; stroke-linecap:round; stroke-linejoin:round; stroke-width:2; stroke-opacity:0.1; fill:none" points="1680.46,1423.18 1680.46,47.2441 "/>
<polyline clip-path="url(#clip311)" style="stroke:#000000; stroke-linecap:round; stroke-linejoin:round; stroke-width:2; stroke-opacity:0.1; fill:none" points="2297.25,1423.18 2297.25,47.2441 "/>
<polyline clip-path="url(#clip311)" style="stroke:#000000; stroke-linecap:round; stroke-linejoin:round; stroke-width:2; stroke-opacity:0.1; fill:none" points="391.389,1384.24 2352.76,1384.24 "/>
<polyline clip-path="url(#clip311)" style="stroke:#000000; stroke-linecap:round; stroke-linejoin:round; stroke-width:2; stroke-opacity:0.1; fill:none" points="391.389,1076.21 2352.76,1076.21 "/>
<polyline clip-path="url(#clip311)" style="stroke:#000000; stroke-linecap:round; stroke-linejoin:round; stroke-width:2; stroke-opacity:0.1; fill:none" points="391.389,768.178 2352.76,768.178 "/>
<polyline clip-path="url(#clip311)" style="stroke:#000000; stroke-linecap:round; stroke-linejoin:round; stroke-width:2; stroke-opacity:0.1; fill:none" points="391.389,460.147 2352.76,460.147 "/>
<polyline clip-path="url(#clip311)" style="stroke:#000000; stroke-linecap:round; stroke-linejoin:round; stroke-width:2; stroke-opacity:0.1; fill:none" points="391.389,152.117 2352.76,152.117 "/>
<polyline clip-path="url(#clip310)" style="stroke:#000000; stroke-linecap:round; stroke-linejoin:round; stroke-width:4; stroke-opacity:1; fill:none" points="391.389,1423.18 2352.76,1423.18 "/>
<polyline clip-path="url(#clip310)" style="stroke:#000000; stroke-linecap:round; stroke-linejoin:round; stroke-width:4; stroke-opacity:1; fill:none" points="446.899,1423.18 446.899,1404.28 "/>
<polyline clip-path="url(#clip310)" style="stroke:#000000; stroke-linecap:round; stroke-linejoin:round; stroke-width:4; stroke-opacity:1; fill:none" points="1063.68,1423.18 1063.68,1404.28 "/>
<polyline clip-path="url(#clip310)" style="stroke:#000000; stroke-linecap:round; stroke-linejoin:round; stroke-width:4; stroke-opacity:1; fill:none" points="1680.46,1423.18 1680.46,1404.28 "/>
<polyline clip-path="url(#clip310)" style="stroke:#000000; stroke-linecap:round; stroke-linejoin:round; stroke-width:4; stroke-opacity:1; fill:none" points="2297.25,1423.18 2297.25,1404.28 "/>
<path clip-path="url(#clip310)" d="M446.899 1454.1 Q443.288 1454.1 441.459 1457.66 Q439.654 1461.2 439.654 1468.33 Q439.654 1475.44 441.459 1479.01 Q443.288 1482.55 446.899 1482.55 Q450.533 1482.55 452.339 1479.01 Q454.168 1475.44 454.168 1468.33 Q454.168 1461.2 452.339 1457.66 Q450.533 1454.1 446.899 1454.1 M446.899 1450.39 Q452.709 1450.39 455.765 1455 Q458.844 1459.58 458.844 1468.33 Q458.844 1477.06 455.765 1481.67 Q452.709 1486.25 446.899 1486.25 Q441.089 1486.25 438.01 1481.67 Q434.955 1477.06 434.955 1468.33 Q434.955 1459.58 438.01 1455 Q441.089 1450.39 446.899 1450.39 Z" fill="#000000" fill-rule="nonzero" fill-opacity="1" /><path clip-path="url(#clip310)" d="M1054.06 1481.64 L1061.7 1481.64 L1061.7 1455.28 L1053.39 1456.95 L1053.39 1452.69 L1061.66 1451.02 L1066.33 1451.02 L1066.33 1481.64 L1073.97 1481.64 L1073.97 1485.58 L1054.06 1485.58 L1054.06 1481.64 Z" fill="#000000" fill-rule="nonzero" fill-opacity="1" /><path clip-path="url(#clip310)" d="M1675.12 1481.64 L1691.44 1481.64 L1691.44 1485.58 L1669.49 1485.58 L1669.49 1481.64 Q1672.15 1478.89 1676.74 1474.26 Q1681.34 1469.61 1682.52 1468.27 Q1684.77 1465.74 1685.65 1464.01 Q1686.55 1462.25 1686.55 1460.56 Q1686.55 1457.8 1684.61 1456.07 Q1682.69 1454.33 1679.58 1454.33 Q1677.38 1454.33 1674.93 1455.09 Q1672.5 1455.86 1669.72 1457.41 L1669.72 1452.69 Q1672.55 1451.55 1675 1450.97 Q1677.45 1450.39 1679.49 1450.39 Q1684.86 1450.39 1688.06 1453.08 Q1691.25 1455.77 1691.25 1460.26 Q1691.25 1462.39 1690.44 1464.31 Q1689.65 1466.2 1687.55 1468.8 Q1686.97 1469.47 1683.87 1472.69 Q1680.76 1475.88 1675.12 1481.64 Z" fill="#000000" fill-rule="nonzero" fill-opacity="1" /><path clip-path="url(#clip310)" d="M2301.49 1466.95 Q2304.85 1467.66 2306.72 1469.93 Q2308.62 1472.2 2308.62 1475.53 Q2308.62 1480.65 2305.1 1483.45 Q2301.59 1486.25 2295.1 1486.25 Q2292.93 1486.25 2290.61 1485.81 Q2288.32 1485.39 2285.87 1484.54 L2285.87 1480.02 Q2287.81 1481.16 2290.13 1481.74 Q2292.44 1482.32 2294.97 1482.32 Q2299.36 1482.32 2301.66 1480.58 Q2303.97 1478.84 2303.97 1475.53 Q2303.97 1472.48 2301.82 1470.77 Q2299.69 1469.03 2295.87 1469.03 L2291.84 1469.03 L2291.84 1465.19 L2296.05 1465.19 Q2299.5 1465.19 2301.33 1463.82 Q2303.16 1462.43 2303.16 1459.84 Q2303.16 1457.18 2301.26 1455.77 Q2299.39 1454.33 2295.87 1454.33 Q2293.95 1454.33 2291.75 1454.75 Q2289.55 1455.16 2286.91 1456.04 L2286.91 1451.88 Q2289.57 1451.14 2291.89 1450.77 Q2294.22 1450.39 2296.28 1450.39 Q2301.61 1450.39 2304.71 1452.83 Q2307.81 1455.23 2307.81 1459.35 Q2307.81 1462.22 2306.17 1464.21 Q2304.53 1466.18 2301.49 1466.95 Z" fill="#000000" fill-rule="nonzero" fill-opacity="1" /><path clip-path="url(#clip310)" d="M1371.13 1522.27 L1371.13 1532.4 L1383.2 1532.4 L1383.2 1536.95 L1371.13 1536.95 L1371.13 1556.3 Q1371.13 1560.66 1372.31 1561.9 Q1373.52 1563.14 1377.18 1563.14 L1383.2 1563.14 L1383.2 1568.04 L1377.18 1568.04 Q1370.4 1568.04 1367.82 1565.53 Q1365.25 1562.98 1365.25 1556.3 L1365.25 1536.95 L1360.95 1536.95 L1360.95 1532.4 L1365.25 1532.4 L1365.25 1522.27 L1371.13 1522.27 Z" fill="#000000" fill-rule="nonzero" fill-opacity="1" /><polyline clip-path="url(#clip310)" style="stroke:#000000; stroke-linecap:round; stroke-linejoin:round; stroke-width:4; stroke-opacity:1; fill:none" points="391.389,1423.18 391.389,47.2441 "/>
<polyline clip-path="url(#clip310)" style="stroke:#000000; stroke-linecap:round; stroke-linejoin:round; stroke-width:4; stroke-opacity:1; fill:none" points="391.389,1384.24 410.286,1384.24 "/>
<polyline clip-path="url(#clip310)" style="stroke:#000000; stroke-linecap:round; stroke-linejoin:round; stroke-width:4; stroke-opacity:1; fill:none" points="391.389,1076.21 410.286,1076.21 "/>
<polyline clip-path="url(#clip310)" style="stroke:#000000; stroke-linecap:round; stroke-linejoin:round; stroke-width:4; stroke-opacity:1; fill:none" points="391.389,768.178 410.286,768.178 "/>
<polyline clip-path="url(#clip310)" style="stroke:#000000; stroke-linecap:round; stroke-linejoin:round; stroke-width:4; stroke-opacity:1; fill:none" points="391.389,460.147 410.286,460.147 "/>
<polyline clip-path="url(#clip310)" style="stroke:#000000; stroke-linecap:round; stroke-linejoin:round; stroke-width:4; stroke-opacity:1; fill:none" points="391.389,152.117 410.286,152.117 "/>
<path clip-path="url(#clip310)" d="M343.444 1370.04 Q339.833 1370.04 338.005 1373.6 Q336.199 1377.14 336.199 1384.27 Q336.199 1391.38 338.005 1394.94 Q339.833 1398.49 343.444 1398.49 Q347.079 1398.49 348.884 1394.94 Q350.713 1391.38 350.713 1384.27 Q350.713 1377.14 348.884 1373.6 Q347.079 1370.04 343.444 1370.04 M343.444 1366.33 Q349.255 1366.33 352.31 1370.94 Q355.389 1375.52 355.389 1384.27 Q355.389 1393 352.31 1397.61 Q349.255 1402.19 343.444 1402.19 Q337.634 1402.19 334.556 1397.61 Q331.5 1393 331.5 1384.27 Q331.5 1375.52 334.556 1370.94 Q337.634 1366.33 343.444 1366.33 Z" fill="#000000" fill-rule="nonzero" fill-opacity="1" /><path clip-path="url(#clip310)" d="M116.562 1065.38 L134.918 1065.38 L134.918 1069.31 L120.844 1069.31 L120.844 1077.78 Q121.863 1077.44 122.881 1077.27 Q123.9 1077.09 124.918 1077.09 Q130.705 1077.09 134.085 1080.26 Q137.465 1083.43 137.465 1088.85 Q137.465 1094.43 133.992 1097.53 Q130.52 1100.61 124.201 1100.61 Q122.025 1100.61 119.756 1100.24 Q117.511 1099.87 115.104 1099.13 L115.104 1094.43 Q117.187 1095.56 119.409 1096.12 Q121.631 1096.67 124.108 1096.67 Q128.113 1096.67 130.451 1094.57 Q132.789 1092.46 132.789 1088.85 Q132.789 1085.24 130.451 1083.13 Q128.113 1081.02 124.108 1081.02 Q122.233 1081.02 120.358 1081.44 Q118.506 1081.86 116.562 1082.74 L116.562 1065.38 Z" fill="#000000" fill-rule="nonzero" fill-opacity="1" /><path clip-path="url(#clip310)" d="M146.678 1094.06 L151.562 1094.06 L151.562 1099.94 L146.678 1099.94 L146.678 1094.06 Z" fill="#000000" fill-rule="nonzero" fill-opacity="1" /><path clip-path="url(#clip310)" d="M171.747 1068.45 Q168.136 1068.45 166.307 1072.02 Q164.501 1075.56 164.501 1082.69 Q164.501 1089.8 166.307 1093.36 Q168.136 1096.9 171.747 1096.9 Q175.381 1096.9 177.187 1093.36 Q179.015 1089.8 179.015 1082.69 Q179.015 1075.56 177.187 1072.02 Q175.381 1068.45 171.747 1068.45 M171.747 1064.75 Q177.557 1064.75 180.613 1069.36 Q183.691 1073.94 183.691 1082.69 Q183.691 1091.42 180.613 1096.02 Q177.557 1100.61 171.747 1100.61 Q165.937 1100.61 162.858 1096.02 Q159.802 1091.42 159.802 1082.69 Q159.802 1073.94 162.858 1069.36 Q165.937 1064.75 171.747 1064.75 Z" fill="#000000" fill-rule="nonzero" fill-opacity="1" /><path clip-path="url(#clip310)" d="M201.909 1068.45 Q198.298 1068.45 196.469 1072.02 Q194.663 1075.56 194.663 1082.69 Q194.663 1089.8 196.469 1093.36 Q198.298 1096.9 201.909 1096.9 Q205.543 1096.9 207.348 1093.36 Q209.177 1089.8 209.177 1082.69 Q209.177 1075.56 207.348 1072.02 Q205.543 1068.45 201.909 1068.45 M201.909 1064.75 Q207.719 1064.75 210.774 1069.36 Q213.853 1073.94 213.853 1082.69 Q213.853 1091.42 210.774 1096.02 Q207.719 1100.61 201.909 1100.61 Q196.099 1100.61 193.02 1096.02 Q189.964 1091.42 189.964 1082.69 Q189.964 1073.94 193.02 1069.36 Q196.099 1064.75 201.909 1064.75 Z" fill="#000000" fill-rule="nonzero" fill-opacity="1" /><path clip-path="url(#clip310)" d="M250.242 1074.47 L239.663 1085.1 L250.242 1095.68 L247.487 1098.48 L236.862 1087.85 L226.237 1098.48 L223.506 1095.68 L234.061 1085.1 L223.506 1074.47 L226.237 1071.67 L236.862 1082.3 L247.487 1071.67 L250.242 1074.47 Z" fill="#000000" fill-rule="nonzero" fill-opacity="1" /><path clip-path="url(#clip310)" d="M262.603 1096 L270.242 1096 L270.242 1069.63 L261.932 1071.3 L261.932 1067.04 L270.195 1065.38 L274.871 1065.38 L274.871 1096 L282.51 1096 L282.51 1099.94 L262.603 1099.94 L262.603 1096 Z" fill="#000000" fill-rule="nonzero" fill-opacity="1" /><path clip-path="url(#clip310)" d="M301.954 1068.45 Q298.343 1068.45 296.515 1072.02 Q294.709 1075.56 294.709 1082.69 Q294.709 1089.8 296.515 1093.36 Q298.343 1096.9 301.954 1096.9 Q305.589 1096.9 307.394 1093.36 Q309.223 1089.8 309.223 1082.69 Q309.223 1075.56 307.394 1072.02 Q305.589 1068.45 301.954 1068.45 M301.954 1064.75 Q307.765 1064.75 310.82 1069.36 Q313.899 1073.94 313.899 1082.69 Q313.899 1091.42 310.82 1096.02 Q307.765 1100.61 301.954 1100.61 Q296.144 1100.61 293.066 1096.02 Q290.01 1091.42 290.01 1082.69 Q290.01 1073.94 293.066 1069.36 Q296.144 1064.75 301.954 1064.75 Z" fill="#000000" fill-rule="nonzero" fill-opacity="1" /><path clip-path="url(#clip310)" d="M314.444 1069.33 L320.651 1069.33 L320.651 1047.91 L313.899 1049.26 L313.899 1045.8 L320.613 1044.45 L324.412 1044.45 L324.412 1069.33 L330.619 1069.33 L330.619 1072.53 L314.444 1072.53 L314.444 1069.33 Z" fill="#000000" fill-rule="nonzero" fill-opacity="1" /><path clip-path="url(#clip310)" d="M337.333 1044.45 L355.389 1044.45 L355.389 1046.06 L345.195 1072.53 L341.227 1072.53 L350.818 1047.64 L337.333 1047.64 L337.333 1044.45 Z" fill="#000000" fill-rule="nonzero" fill-opacity="1" /><path clip-path="url(#clip310)" d="M116.668 787.97 L124.306 787.97 L124.306 761.605 L115.996 763.271 L115.996 759.012 L124.26 757.345 L128.936 757.345 L128.936 787.97 L136.575 787.97 L136.575 791.905 L116.668 791.905 L116.668 787.97 Z" fill="#000000" fill-rule="nonzero" fill-opacity="1" /><path clip-path="url(#clip310)" d="M146.019 786.026 L150.903 786.026 L150.903 791.905 L146.019 791.905 L146.019 786.026 Z" fill="#000000" fill-rule="nonzero" fill-opacity="1" /><path clip-path="url(#clip310)" d="M171.089 760.424 Q167.477 760.424 165.649 763.989 Q163.843 767.53 163.843 774.66 Q163.843 781.766 165.649 785.331 Q167.477 788.873 171.089 788.873 Q174.723 788.873 176.528 785.331 Q178.357 781.766 178.357 774.66 Q178.357 767.53 176.528 763.989 Q174.723 760.424 171.089 760.424 M171.089 756.72 Q176.899 756.72 179.954 761.327 Q183.033 765.91 183.033 774.66 Q183.033 783.387 179.954 787.993 Q176.899 792.577 171.089 792.577 Q165.278 792.577 162.2 787.993 Q159.144 783.387 159.144 774.66 Q159.144 765.91 162.2 761.327 Q165.278 756.72 171.089 756.72 Z" fill="#000000" fill-rule="nonzero" fill-opacity="1" /><path clip-path="url(#clip310)" d="M201.25 760.424 Q197.639 760.424 195.811 763.989 Q194.005 767.53 194.005 774.66 Q194.005 781.766 195.811 785.331 Q197.639 788.873 201.25 788.873 Q204.885 788.873 206.69 785.331 Q208.519 781.766 208.519 774.66 Q208.519 767.53 206.69 763.989 Q204.885 760.424 201.25 760.424 M201.25 756.72 Q207.061 756.72 210.116 761.327 Q213.195 765.91 213.195 774.66 Q213.195 783.387 210.116 787.993 Q207.061 792.577 201.25 792.577 Q195.44 792.577 192.362 787.993 Q189.306 783.387 189.306 774.66 Q189.306 765.91 192.362 761.327 Q195.44 756.72 201.25 756.72 Z" fill="#000000" fill-rule="nonzero" fill-opacity="1" /><path clip-path="url(#clip310)" d="M249.584 766.442 L239.005 777.067 L249.584 787.646 L246.829 790.447 L236.204 779.822 L225.579 790.447 L222.848 787.646 L233.403 777.067 L222.848 766.442 L225.579 763.642 L236.204 774.266 L246.829 763.642 L249.584 766.442 Z" fill="#000000" fill-rule="nonzero" fill-opacity="1" /><path clip-path="url(#clip310)" d="M261.945 787.97 L269.583 787.97 L269.583 761.605 L261.273 763.271 L261.273 759.012 L269.537 757.345 L274.213 757.345 L274.213 787.97 L281.852 787.97 L281.852 791.905 L261.945 791.905 L261.945 787.97 Z" fill="#000000" fill-rule="nonzero" fill-opacity="1" /><path clip-path="url(#clip310)" d="M301.296 760.424 Q297.685 760.424 295.856 763.989 Q294.051 767.53 294.051 774.66 Q294.051 781.766 295.856 785.331 Q297.685 788.873 301.296 788.873 Q304.93 788.873 306.736 785.331 Q308.565 781.766 308.565 774.66 Q308.565 767.53 306.736 763.989 Q304.93 760.424 301.296 760.424 M301.296 756.72 Q307.106 756.72 310.162 761.327 Q313.241 765.91 313.241 774.66 Q313.241 783.387 310.162 787.993 Q307.106 792.577 301.296 792.577 Q295.486 792.577 292.407 787.993 Q289.352 783.387 289.352 774.66 Q289.352 765.91 292.407 761.327 Q295.486 756.72 301.296 756.72 Z" fill="#000000" fill-rule="nonzero" fill-opacity="1" /><path clip-path="url(#clip310)" d="M313.786 761.298 L319.993 761.298 L319.993 739.876 L313.241 741.23 L313.241 737.769 L319.955 736.415 L323.754 736.415 L323.754 761.298 L329.961 761.298 L329.961 764.495 L313.786 764.495 L313.786 761.298 Z" fill="#000000" fill-rule="nonzero" fill-opacity="1" /><path clip-path="url(#clip310)" d="M345.759 751.16 Q343.051 751.16 341.49 752.608 Q339.948 754.057 339.948 756.596 Q339.948 759.135 341.49 760.583 Q343.051 762.031 345.759 762.031 Q348.468 762.031 350.029 760.583 Q351.59 759.116 351.59 756.596 Q351.59 754.057 350.029 752.608 Q348.486 751.16 345.759 751.16 M341.96 749.543 Q339.515 748.941 338.142 747.267 Q336.788 745.593 336.788 743.186 Q336.788 739.819 339.176 737.863 Q341.584 735.907 345.759 735.907 Q349.953 735.907 352.342 737.863 Q354.731 739.819 354.731 743.186 Q354.731 745.593 353.358 747.267 Q352.003 748.941 349.577 749.543 Q352.323 750.182 353.847 752.044 Q355.389 753.906 355.389 756.596 Q355.389 760.677 352.887 762.859 Q350.405 765.04 345.759 765.04 Q341.114 765.04 338.612 762.859 Q336.13 760.677 336.13 756.596 Q336.13 753.906 337.672 752.044 Q339.214 750.182 341.96 749.543 M340.568 743.543 Q340.568 745.725 341.922 746.947 Q343.295 748.17 345.759 748.17 Q348.204 748.17 349.577 746.947 Q350.969 745.725 350.969 743.543 Q350.969 741.361 349.577 740.139 Q348.204 738.916 345.759 738.916 Q343.295 738.916 341.922 740.139 Q340.568 741.361 340.568 743.543 Z" fill="#000000" fill-rule="nonzero" fill-opacity="1" /><path clip-path="url(#clip310)" d="M116.668 479.94 L124.306 479.94 L124.306 453.574 L115.996 455.241 L115.996 450.982 L124.26 449.315 L128.936 449.315 L128.936 479.94 L136.575 479.94 L136.575 483.875 L116.668 483.875 L116.668 479.94 Z" fill="#000000" fill-rule="nonzero" fill-opacity="1" /><path clip-path="url(#clip310)" d="M146.019 477.995 L150.903 477.995 L150.903 483.875 L146.019 483.875 L146.019 477.995 Z" fill="#000000" fill-rule="nonzero" fill-opacity="1" /><path clip-path="url(#clip310)" d="M161.135 449.315 L179.491 449.315 L179.491 453.25 L165.417 453.25 L165.417 461.722 Q166.436 461.375 167.454 461.213 Q168.473 461.028 169.491 461.028 Q175.278 461.028 178.658 464.199 Q182.038 467.37 182.038 472.787 Q182.038 478.366 178.565 481.468 Q175.093 484.546 168.774 484.546 Q166.598 484.546 164.329 484.176 Q162.084 483.806 159.677 483.065 L159.677 478.366 Q161.76 479.5 163.982 480.056 Q166.204 480.611 168.681 480.611 Q172.686 480.611 175.024 478.505 Q177.362 476.398 177.362 472.787 Q177.362 469.176 175.024 467.07 Q172.686 464.963 168.681 464.963 Q166.806 464.963 164.931 465.38 Q163.079 465.796 161.135 466.676 L161.135 449.315 Z" fill="#000000" fill-rule="nonzero" fill-opacity="1" /><path clip-path="url(#clip310)" d="M201.25 452.394 Q197.639 452.394 195.811 455.958 Q194.005 459.5 194.005 466.63 Q194.005 473.736 195.811 477.301 Q197.639 480.843 201.25 480.843 Q204.885 480.843 206.69 477.301 Q208.519 473.736 208.519 466.63 Q208.519 459.5 206.69 455.958 Q204.885 452.394 201.25 452.394 M201.25 448.69 Q207.061 448.69 210.116 453.296 Q213.195 457.88 213.195 466.63 Q213.195 475.357 210.116 479.963 Q207.061 484.546 201.25 484.546 Q195.44 484.546 192.362 479.963 Q189.306 475.357 189.306 466.63 Q189.306 457.88 192.362 453.296 Q195.44 448.69 201.25 448.69 Z" fill="#000000" fill-rule="nonzero" fill-opacity="1" /><path clip-path="url(#clip310)" d="M249.584 458.412 L239.005 469.037 L249.584 479.616 L246.829 482.417 L236.204 471.792 L225.579 482.417 L222.848 479.616 L233.403 469.037 L222.848 458.412 L225.579 455.611 L236.204 466.236 L246.829 455.611 L249.584 458.412 Z" fill="#000000" fill-rule="nonzero" fill-opacity="1" /><path clip-path="url(#clip310)" d="M261.945 479.94 L269.583 479.94 L269.583 453.574 L261.273 455.241 L261.273 450.982 L269.537 449.315 L274.213 449.315 L274.213 479.94 L281.852 479.94 L281.852 483.875 L261.945 483.875 L261.945 479.94 Z" fill="#000000" fill-rule="nonzero" fill-opacity="1" /><path clip-path="url(#clip310)" d="M301.296 452.394 Q297.685 452.394 295.856 455.958 Q294.051 459.5 294.051 466.63 Q294.051 473.736 295.856 477.301 Q297.685 480.843 301.296 480.843 Q304.93 480.843 306.736 477.301 Q308.565 473.736 308.565 466.63 Q308.565 459.5 306.736 455.958 Q304.93 452.394 301.296 452.394 M301.296 448.69 Q307.106 448.69 310.162 453.296 Q313.241 457.88 313.241 466.63 Q313.241 475.357 310.162 479.963 Q307.106 484.546 301.296 484.546 Q295.486 484.546 292.407 479.963 Q289.352 475.357 289.352 466.63 Q289.352 457.88 292.407 453.296 Q295.486 448.69 301.296 448.69 Z" fill="#000000" fill-rule="nonzero" fill-opacity="1" /><path clip-path="url(#clip310)" d="M313.786 453.267 L319.993 453.267 L319.993 431.845 L313.241 433.199 L313.241 429.739 L319.955 428.385 L323.754 428.385 L323.754 453.267 L329.961 453.267 L329.961 456.465 L313.786 456.465 L313.786 453.267 Z" fill="#000000" fill-rule="nonzero" fill-opacity="1" /><path clip-path="url(#clip310)" d="M345.759 443.13 Q343.051 443.13 341.49 444.578 Q339.948 446.026 339.948 448.565 Q339.948 451.104 341.49 452.553 Q343.051 454.001 345.759 454.001 Q348.468 454.001 350.029 452.553 Q351.59 451.086 351.59 448.565 Q351.59 446.026 350.029 444.578 Q348.486 443.13 345.759 443.13 M341.96 441.512 Q339.515 440.911 338.142 439.237 Q336.788 437.563 336.788 435.155 Q336.788 431.789 339.176 429.833 Q341.584 427.877 345.759 427.877 Q349.953 427.877 352.342 429.833 Q354.731 431.789 354.731 435.155 Q354.731 437.563 353.358 439.237 Q352.003 440.911 349.577 441.512 Q352.323 442.152 353.847 444.014 Q355.389 445.876 355.389 448.565 Q355.389 452.647 352.887 454.828 Q350.405 457.01 345.759 457.01 Q341.114 457.01 338.612 454.828 Q336.13 452.647 336.13 448.565 Q336.13 445.876 337.672 444.014 Q339.214 442.152 341.96 441.512 M340.568 435.513 Q340.568 437.694 341.922 438.917 Q343.295 440.139 345.759 440.139 Q348.204 440.139 349.577 438.917 Q350.969 437.694 350.969 435.513 Q350.969 433.331 349.577 432.109 Q348.204 430.886 345.759 430.886 Q343.295 430.886 341.922 432.109 Q340.568 433.331 340.568 435.513 Z" fill="#000000" fill-rule="nonzero" fill-opacity="1" /><path clip-path="url(#clip310)" d="M119.885 171.91 L136.204 171.91 L136.204 175.845 L114.26 175.845 L114.26 171.91 Q116.922 169.155 121.505 164.525 Q126.112 159.873 127.292 158.53 Q129.538 156.007 130.417 154.271 Q131.32 152.511 131.32 150.822 Q131.32 148.067 129.376 146.331 Q127.455 144.595 124.353 144.595 Q122.154 144.595 119.7 145.359 Q117.269 146.123 114.492 147.674 L114.492 142.951 Q117.316 141.817 119.769 141.238 Q122.223 140.66 124.26 140.66 Q129.63 140.66 132.825 143.345 Q136.019 146.03 136.019 150.521 Q136.019 152.65 135.209 154.572 Q134.422 156.47 132.316 159.062 Q131.737 159.734 128.635 162.951 Q125.533 166.146 119.885 171.91 Z" fill="#000000" fill-rule="nonzero" fill-opacity="1" /><path clip-path="url(#clip310)" d="M146.019 169.965 L150.903 169.965 L150.903 175.845 L146.019 175.845 L146.019 169.965 Z" fill="#000000" fill-rule="nonzero" fill-opacity="1" /><path clip-path="url(#clip310)" d="M171.089 144.363 Q167.477 144.363 165.649 147.928 Q163.843 151.47 163.843 158.599 Q163.843 165.706 165.649 169.271 Q167.477 172.812 171.089 172.812 Q174.723 172.812 176.528 169.271 Q178.357 165.706 178.357 158.599 Q178.357 151.47 176.528 147.928 Q174.723 144.363 171.089 144.363 M171.089 140.66 Q176.899 140.66 179.954 145.266 Q183.033 149.849 183.033 158.599 Q183.033 167.326 179.954 171.933 Q176.899 176.516 171.089 176.516 Q165.278 176.516 162.2 171.933 Q159.144 167.326 159.144 158.599 Q159.144 149.849 162.2 145.266 Q165.278 140.66 171.089 140.66 Z" fill="#000000" fill-rule="nonzero" fill-opacity="1" /><path clip-path="url(#clip310)" d="M201.25 144.363 Q197.639 144.363 195.811 147.928 Q194.005 151.47 194.005 158.599 Q194.005 165.706 195.811 169.271 Q197.639 172.812 201.25 172.812 Q204.885 172.812 206.69 169.271 Q208.519 165.706 208.519 158.599 Q208.519 151.47 206.69 147.928 Q204.885 144.363 201.25 144.363 M201.25 140.66 Q207.061 140.66 210.116 145.266 Q213.195 149.849 213.195 158.599 Q213.195 167.326 210.116 171.933 Q207.061 176.516 201.25 176.516 Q195.44 176.516 192.362 171.933 Q189.306 167.326 189.306 158.599 Q189.306 149.849 192.362 145.266 Q195.44 140.66 201.25 140.66 Z" fill="#000000" fill-rule="nonzero" fill-opacity="1" /><path clip-path="url(#clip310)" d="M249.584 150.382 L239.005 161.007 L249.584 171.585 L246.829 174.386 L236.204 163.761 L225.579 174.386 L222.848 171.585 L233.403 161.007 L222.848 150.382 L225.579 147.581 L236.204 158.206 L246.829 147.581 L249.584 150.382 Z" fill="#000000" fill-rule="nonzero" fill-opacity="1" /><path clip-path="url(#clip310)" d="M261.945 171.91 L269.583 171.91 L269.583 145.544 L261.273 147.211 L261.273 142.951 L269.537 141.285 L274.213 141.285 L274.213 171.91 L281.852 171.91 L281.852 175.845 L261.945 175.845 L261.945 171.91 Z" fill="#000000" fill-rule="nonzero" fill-opacity="1" /><path clip-path="url(#clip310)" d="M301.296 144.363 Q297.685 144.363 295.856 147.928 Q294.051 151.47 294.051 158.599 Q294.051 165.706 295.856 169.271 Q297.685 172.812 301.296 172.812 Q304.93 172.812 306.736 169.271 Q308.565 165.706 308.565 158.599 Q308.565 151.47 306.736 147.928 Q304.93 144.363 301.296 144.363 M301.296 140.66 Q307.106 140.66 310.162 145.266 Q313.241 149.849 313.241 158.599 Q313.241 167.326 310.162 171.933 Q307.106 176.516 301.296 176.516 Q295.486 176.516 292.407 171.933 Q289.352 167.326 289.352 158.599 Q289.352 149.849 292.407 145.266 Q295.486 140.66 301.296 140.66 Z" fill="#000000" fill-rule="nonzero" fill-opacity="1" /><path clip-path="url(#clip310)" d="M313.786 145.237 L319.993 145.237 L319.993 123.815 L313.241 125.169 L313.241 121.708 L319.955 120.354 L323.754 120.354 L323.754 145.237 L329.961 145.237 L329.961 148.434 L313.786 148.434 L313.786 145.237 Z" fill="#000000" fill-rule="nonzero" fill-opacity="1" /><path clip-path="url(#clip310)" d="M345.759 135.1 Q343.051 135.1 341.49 136.548 Q339.948 137.996 339.948 140.535 Q339.948 143.074 341.49 144.522 Q343.051 145.97 345.759 145.97 Q348.468 145.97 350.029 144.522 Q351.59 143.055 351.59 140.535 Q351.59 137.996 350.029 136.548 Q348.486 135.1 345.759 135.1 M341.96 133.482 Q339.515 132.88 338.142 131.206 Q336.788 129.532 336.788 127.125 Q336.788 123.758 339.176 121.802 Q341.584 119.846 345.759 119.846 Q349.953 119.846 352.342 121.802 Q354.731 123.758 354.731 127.125 Q354.731 129.532 353.358 131.206 Q352.003 132.88 349.577 133.482 Q352.323 134.122 353.847 135.984 Q355.389 137.846 355.389 140.535 Q355.389 144.616 352.887 146.798 Q350.405 148.98 345.759 148.98 Q341.114 148.98 338.612 146.798 Q336.13 144.616 336.13 140.535 Q336.13 137.846 337.672 135.984 Q339.214 134.122 341.96 133.482 M340.568 127.482 Q340.568 129.664 341.922 130.887 Q343.295 132.109 345.759 132.109 Q348.204 132.109 349.577 130.887 Q350.969 129.664 350.969 127.482 Q350.969 125.301 349.577 124.078 Q348.204 122.856 345.759 122.856 Q343.295 122.856 341.922 124.078 Q340.568 125.301 340.568 127.482 Z" fill="#000000" fill-rule="nonzero" fill-opacity="1" /><path clip-path="url(#clip310)" d="M49.9359 750.14 L28.3562 750.14 L28.3562 744.283 L49.7131 744.283 Q54.7739 744.283 57.3202 742.31 Q59.8346 740.336 59.8346 736.39 Q59.8346 731.647 56.8109 728.91 Q53.7872 726.141 48.5673 726.141 L28.3562 726.141 L28.3562 720.284 L64.0042 720.284 L64.0042 726.141 L58.5296 726.141 Q61.7762 728.273 63.3676 731.106 Q64.9272 733.907 64.9272 737.631 Q64.9272 743.774 61.1078 746.957 Q57.2883 750.14 49.9359 750.14 M27.4968 735.403 L27.4968 735.403 Z" fill="#000000" fill-rule="nonzero" fill-opacity="1" /><polyline clip-path="url(#clip311)" style="stroke:#009af9; stroke-linecap:round; stroke-linejoin:round; stroke-width:4; stroke-opacity:1; fill:none" points="446.899,1384.24 453.067,1384.24 459.235,1384.24 465.403,1384.24 471.57,1384.24 477.738,1384.24 483.906,1384.24 490.074,1384.24 496.242,1384.24 502.41,1384.24 508.577,1384.24 514.745,1384.24 520.913,1384.24 527.081,1384.24 533.249,1384.24 539.416,1384.24 545.584,1384.24 551.752,1384.24 557.92,1384.24 564.088,1384.24 570.256,1384.24 576.423,1384.24 582.591,1384.24 588.759,1384.24 594.927,1384.24 601.095,1384.24 607.263,1384.24 613.43,1384.24 619.598,1384.24 625.766,1384.24 631.934,1384.24 638.102,1384.24 644.269,1384.24 650.437,1384.24 656.605,1384.24 662.773,1384.24 668.941,1384.24 675.109,1384.24 681.276,1384.24 687.444,1384.24 693.612,1384.24 699.78,1384.24 705.948,1384.24 712.115,1384.24 718.283,1384.24 724.451,1384.24 730.619,1384.24 736.787,1384.24 742.955,1384.24 749.122,1384.24 755.29,1384.24 761.458,1384.24 767.626,1384.24 773.794,1384.24 779.962,1384.24 786.129,1384.24 792.297,1384.24 798.465,1384.24 804.633,1384.24 810.801,1384.24 816.968,1384.24 823.136,1384.24 829.304,1384.24 835.472,1384.24 841.64,1384.24 847.808,1384.24 853.975,1384.24 860.143,1384.24 866.311,1384.24 872.479,1384.24 878.647,1384.24 884.814,1384.24 890.982,1384.24 897.15,1384.24 903.318,1384.24 909.486,1384.24 915.654,1384.24 921.821,1384.24 927.989,1384.24 934.157,1384.24 940.325,1384.24 946.493,1384.24 952.661,1384.24 958.828,1384.24 964.996,1384.24 971.164,1384.24 977.332,1384.24 983.5,1384.24 989.667,1384.24 995.835,1384.24 1002,1384.24 1008.17,1384.24 1014.34,1384.24 1020.51,1384.24 1026.67,1384.24 1032.84,1384.24 1039.01,1384.24 1045.18,1384.24 1051.35,1384.24 1057.51,1384.24 1063.68,1384.24 1069.85,1384.24 1076.02,1384.24 1082.18,1384.24 1088.35,1384.24 1094.52,1384.24 1100.69,1384.24 1106.86,1384.24 1113.02,1384.24 1119.19,1384.24 1125.36,1384.24 1131.53,1384.24 1137.7,1384.24 1143.86,1384.24 1150.03,1384.24 1156.2,1384.24 1162.37,1384.24 1168.53,1384.24 1174.7,1384.24 1180.87,1384.24 1187.04,1384.24 1193.21,1384.24 1199.37,1384.24 1205.54,1384.24 1211.71,1384.24 1217.88,1384.24 1224.04,1384.24 1230.21,1384.24 1236.38,1384.24 1242.55,1384.24 1248.72,1384.24 1254.88,1384.24 1261.05,1384.24 1267.22,1384.24 1273.39,1384.24 1279.56,1384.24 1285.72,1384.24 1291.89,1384.24 1298.06,1384.24 1304.23,1384.24 1310.39,1384.24 1316.56,1384.24 1322.73,1384.24 1328.9,1384.24 1335.07,1384.24 1341.23,1384.24 1347.4,1384.24 1353.57,1384.24 1359.74,1384.24 1365.9,1384.24 1372.07,1384.24 1378.24,1384.24 1384.41,1384.24 1390.58,1384.24 1396.74,1384.24 1402.91,1384.24 1409.08,1384.24 1415.25,1384.24 1421.41,1384.24 1427.58,1384.24 1433.75,1384.24 1439.92,1384.24 1446.09,1384.24 1452.25,1384.24 1458.42,1384.24 1464.59,1384.24 1470.76,1384.24 1476.93,1384.24 1483.09,1384.24 1489.26,1384.24 1495.43,1384.24 1501.6,1384.24 1507.76,1384.24 1513.93,1384.24 1520.1,1384.24 1526.27,1384.24 1532.44,1384.24 1538.6,1384.24 1544.77,1384.24 1550.94,1384.24 1557.11,1384.24 1563.27,1384.24 1569.44,1384.24 1575.61,1384.24 1581.78,1384.24 1587.95,1384.24 1594.11,1384.24 1600.28,1384.24 1606.45,1384.24 1612.62,1384.24 1618.79,1384.24 1624.95,1384.24 1631.12,1384.24 1637.29,1384.24 1643.46,1384.24 1649.62,1384.24 1655.79,1384.24 1661.96,1384.24 1668.13,1384.24 1674.3,1384.24 1680.46,1384.24 1686.63,1384.24 1692.8,1384.24 1698.97,1384.24 1705.13,1384.24 1711.3,1384.24 1717.47,1384.24 1723.64,1384.24 1729.81,1384.24 1735.97,1384.24 1742.14,1384.24 1748.31,1384.24 1754.48,1384.24 1760.65,1384.24 1766.81,1384.24 1772.98,1384.24 1779.15,1384.24 1785.32,1384.24 1791.48,1384.24 1797.65,1384.24 1803.82,1384.24 1809.99,1384.24 1816.16,1384.24 1822.32,1384.24 1828.49,1384.24 1834.66,1384.24 1840.83,1384.24 1846.99,1384.24 1853.16,1384.24 1859.33,1384.24 1865.5,1384.24 1871.67,1384.24 1877.83,1384.24 1884,1384.24 1890.17,1384.24 1896.34,1384.24 1902.5,1384.24 1908.67,1384.24 1914.84,1384.24 1921.01,1384.24 1927.18,1384.24 1933.34,1384.24 1939.51,1384.24 1945.68,1384.24 1951.85,1384.24 1958.02,1384.24 1964.18,1384.24 1970.35,1384.24 1976.52,1384.24 1982.69,1384.24 1988.85,1384.24 1995.02,1384.24 2001.19,1384.24 2007.36,1384.24 2013.53,1384.24 2019.69,1384.24 2025.86,1384.24 2032.03,1384.24 2038.2,1384.24 2044.36,1384.24 2050.53,1384.21 2056.7,1384.2 2062.87,1384.21 2069.04,1384.21 2075.2,1384.21 2081.37,1384.21 2087.54,1384.21 2093.71,1384.21 2099.88,1384.21 2106.04,1384.21 2112.21,1384.21 2118.38,1384.21 2124.55,1384.21 2130.71,1384.21 2136.88,1384.21 2143.05,1384.21 2149.22,1384.2 2155.39,1384.2 2161.55,1384.2 2167.72,1384.2 2173.89,1377.81 2180.06,1377.71 2186.22,1377.74 2192.39,1377.71 2198.56,1377.84 2204.73,86.1857 2210.9,94.1456 2217.06,113.321 2223.23,113.644 2229.4,140.951 2235.57,109.094 2241.74,155.019 2247.9,173.78 2254.07,186.689 2260.24,179.903 2266.41,161.423 2272.57,174.214 2278.74,143.612 2284.91,143.155 2291.08,161.804 2297.25,161.96 "/>
<path clip-path="url(#clip310)" d="M456.768 196.789 L705.335 196.789 L705.335 93.1086 L456.768 93.1086  Z" fill="#ffffff" fill-rule="evenodd" fill-opacity="1"/>
<polyline clip-path="url(#clip310)" style="stroke:#000000; stroke-linecap:round; stroke-linejoin:round; stroke-width:4; stroke-opacity:1; fill:none" points="456.768,196.789 705.335,196.789 705.335,93.1086 456.768,93.1086 456.768,196.789 "/>
<polyline clip-path="url(#clip310)" style="stroke:#009af9; stroke-linecap:round; stroke-linejoin:round; stroke-width:4; stroke-opacity:1; fill:none" points="478.561,144.949 609.318,144.949 "/>
<path clip-path="url(#clip310)" d="M644.954 164.636 Q643.148 169.266 641.435 170.678 Q639.722 172.09 636.852 172.09 L633.449 172.09 L633.449 168.525 L635.949 168.525 Q637.709 168.525 638.681 167.692 Q639.653 166.858 640.834 163.756 L641.597 161.812 L631.111 136.303 L635.625 136.303 L643.727 156.581 L651.829 136.303 L656.343 136.303 L644.954 164.636 Z" fill="#000000" fill-rule="nonzero" fill-opacity="1" /><path clip-path="url(#clip310)" d="M663.634 158.293 L671.273 158.293 L671.273 131.928 L662.963 133.595 L662.963 129.335 L671.227 127.669 L675.903 127.669 L675.903 158.293 L683.542 158.293 L683.542 162.229 L663.634 162.229 L663.634 158.293 Z" fill="#000000" fill-rule="nonzero" fill-opacity="1" /></svg>
