<?xml version="1.0" encoding="utf-8"?>
<svg xmlns="http://www.w3.org/2000/svg" xmlns:xlink="http://www.w3.org/1999/xlink" width="600" height="400" viewBox="0 0 2400 1600">
<defs>
  <clipPath id="clip680">
    <rect x="0" y="0" width="2400" height="1600"/>
  </clipPath>
</defs>
<path clip-path="url(#clip680)" d="M0 1600 L2400 1600 L2400 0 L0 0  Z" fill="#ffffff" fill-rule="evenodd" fill-opacity="1"/>
<defs>
  <clipPath id="clip681">
    <rect x="480" y="0" width="1681" height="1600"/>
  </clipPath>
</defs>
<path clip-path="url(#clip680)" d="M156.112 1423.18 L2352.76 1423.18 L2352.76 47.2441 L156.112 47.2441  Z" fill="#ffffff" fill-rule="evenodd" fill-opacity="1"/>
<defs>
  <clipPath id="clip682">
    <rect x="156" y="47" width="2198" height="1377"/>
  </clipPath>
</defs>
<polyline clip-path="url(#clip682)" style="stroke:#000000; stroke-linecap:round; stroke-linejoin:round; stroke-width:2; stroke-opacity:0.1; fill:none" points="156.112,1423.18 156.112,47.2441 "/>
<polyline clip-path="url(#clip682)" style="stroke:#000000; stroke-linecap:round; stroke-linejoin:round; stroke-width:2; stroke-opacity:0.1; fill:none" points="595.441,1423.18 595.441,47.2441 "/>
<polyline clip-path="url(#clip682)" style="stroke:#000000; stroke-linecap:round; stroke-linejoin:round; stroke-width:2; stroke-opacity:0.1; fill:none" points="1034.77,1423.18 1034.77,47.2441 "/>
<polyline clip-path="url(#clip682)" style="stroke:#000000; stroke-linecap:round; stroke-linejoin:round; stroke-width:2; stroke-opacity:0.1; fill:none" points="1474.1,1423.18 1474.1,47.2441 "/>
<polyline clip-path="url(#clip682)" style="stroke:#000000; stroke-linecap:round; stroke-linejoin:round; stroke-width:2; stroke-opacity:0.1; fill:none" points="1913.43,1423.18 1913.43,47.2441 "/>
<polyline clip-path="url(#clip682)" style="stroke:#000000; stroke-linecap:round; stroke-linejoin:round; stroke-width:2; stroke-opacity:0.1; fill:none" points="2352.76,1423.18 2352.76,47.2441 "/>
<polyline clip-path="url(#clip682)" style="stroke:#000000; stroke-linecap:round; stroke-linejoin:round; stroke-width:2; stroke-opacity:0.1; fill:none" points="156.112,1384.24 2352.76,1384.24 "/>
<polyline clip-path="url(#clip682)" style="stroke:#000000; stroke-linecap:round; stroke-linejoin:round; stroke-width:2; stroke-opacity:0.1; fill:none" points="156.112,1122.71 2352.76,1122.71 "/>
<polyline clip-path="url(#clip682)" style="stroke:#000000; stroke-linecap:round; stroke-linejoin:round; stroke-width:2; stroke-opacity:0.1; fill:none" points="156.112,861.176 2352.76,861.176 "/>
<polyline clip-path="url(#clip682)" style="stroke:#000000; stroke-linecap:round; stroke-linejoin:round; stroke-width:2; stroke-opacity:0.1; fill:none" points="156.112,599.645 2352.76,599.645 "/>
<polyline clip-path="url(#clip682)" style="stroke:#000000; stroke-linecap:round; stroke-linejoin:round; stroke-width:2; stroke-opacity:0.1; fill:none" points="156.112,338.114 2352.76,338.114 "/>
<polyline clip-path="url(#clip682)" style="stroke:#000000; stroke-linecap:round; stroke-linejoin:round; stroke-width:2; stroke-opacity:0.1; fill:none" points="156.112,76.5835 2352.76,76.5835 "/>
<polyline clip-path="url(#clip680)" style="stroke:#000000; stroke-linecap:round; stroke-linejoin:round; stroke-width:4; stroke-opacity:1; fill:none" points="156.112,1423.18 2352.76,1423.18 "/>
<polyline clip-path="url(#clip680)" style="stroke:#000000; stroke-linecap:round; stroke-linejoin:round; stroke-width:4; stroke-opacity:1; fill:none" points="156.112,1423.18 156.112,1404.28 "/>
<polyline clip-path="url(#clip680)" style="stroke:#000000; stroke-linecap:round; stroke-linejoin:round; stroke-width:4; stroke-opacity:1; fill:none" points="595.441,1423.18 595.441,1404.28 "/>
<polyline clip-path="url(#clip680)" style="stroke:#000000; stroke-linecap:round; stroke-linejoin:round; stroke-width:4; stroke-opacity:1; fill:none" points="1034.77,1423.18 1034.77,1404.28 "/>
<polyline clip-path="url(#clip680)" style="stroke:#000000; stroke-linecap:round; stroke-linejoin:round; stroke-width:4; stroke-opacity:1; fill:none" points="1474.1,1423.18 1474.1,1404.28 "/>
<polyline clip-path="url(#clip680)" style="stroke:#000000; stroke-linecap:round; stroke-linejoin:round; stroke-width:4; stroke-opacity:1; fill:none" points="1913.43,1423.18 1913.43,1404.28 "/>
<polyline clip-path="url(#clip680)" style="stroke:#000000; stroke-linecap:round; stroke-linejoin:round; stroke-width:4; stroke-opacity:1; fill:none" points="2352.76,1423.18 2352.76,1404.28 "/>
<path clip-path="url(#clip680)" d="M156.112 1454.1 Q152.501 1454.1 150.672 1457.66 Q148.867 1461.2 148.867 1468.33 Q148.867 1475.44 150.672 1479.01 Q152.501 1482.55 156.112 1482.55 Q159.746 1482.55 161.552 1479.01 Q163.381 1475.44 163.381 1468.33 Q163.381 1461.2 161.552 1457.66 Q159.746 1454.1 156.112 1454.1 M156.112 1450.39 Q161.922 1450.39 164.978 1455 Q168.057 1459.58 168.057 1468.33 Q168.057 1477.06 164.978 1481.67 Q161.922 1486.25 156.112 1486.25 Q150.302 1486.25 147.223 1481.67 Q144.168 1477.06 144.168 1468.33 Q144.168 1459.58 147.223 1455 Q150.302 1450.39 156.112 1450.39 Z" fill="#000000" fill-rule="nonzero" fill-opacity="1" /><path clip-path="url(#clip680)" d="M585.823 1481.64 L593.462 1481.64 L593.462 1455.28 L585.152 1456.95 L585.152 1452.69 L593.415 1451.02 L598.091 1451.02 L598.091 1481.64 L605.73 1481.64 L605.73 1485.58 L585.823 1485.58 L585.823 1481.64 Z" fill="#000000" fill-rule="nonzero" fill-opacity="1" /><path clip-path="url(#clip680)" d="M1029.42 1481.64 L1045.74 1481.64 L1045.74 1485.58 L1023.8 1485.58 L1023.8 1481.64 Q1026.46 1478.89 1031.04 1474.26 Q1035.65 1469.61 1036.83 1468.27 Q1039.08 1465.74 1039.95 1464.01 Q1040.86 1462.25 1040.86 1460.56 Q1040.86 1457.8 1038.91 1456.07 Q1036.99 1454.33 1033.89 1454.33 Q1031.69 1454.33 1029.24 1455.09 Q1026.81 1455.86 1024.03 1457.41 L1024.03 1452.69 Q1026.85 1451.55 1029.31 1450.97 Q1031.76 1450.39 1033.8 1450.39 Q1039.17 1450.39 1042.36 1453.08 Q1045.56 1455.77 1045.56 1460.26 Q1045.56 1462.39 1044.75 1464.31 Q1043.96 1466.2 1041.85 1468.8 Q1041.27 1469.47 1038.17 1472.69 Q1035.07 1475.88 1029.42 1481.64 Z" fill="#000000" fill-rule="nonzero" fill-opacity="1" /><path clip-path="url(#clip680)" d="M1478.35 1466.95 Q1481.7 1467.66 1483.58 1469.93 Q1485.48 1472.2 1485.48 1475.53 Q1485.48 1480.65 1481.96 1483.45 Q1478.44 1486.25 1471.96 1486.25 Q1469.78 1486.25 1467.47 1485.81 Q1465.17 1485.39 1462.72 1484.54 L1462.72 1480.02 Q1464.67 1481.16 1466.98 1481.74 Q1469.3 1482.32 1471.82 1482.32 Q1476.22 1482.32 1478.51 1480.58 Q1480.82 1478.84 1480.82 1475.53 Q1480.82 1472.48 1478.67 1470.77 Q1476.54 1469.03 1472.72 1469.03 L1468.69 1469.03 L1468.69 1465.19 L1472.91 1465.19 Q1476.36 1465.19 1478.18 1463.82 Q1480.01 1462.43 1480.01 1459.84 Q1480.01 1457.18 1478.11 1455.77 Q1476.24 1454.33 1472.72 1454.33 Q1470.8 1454.33 1468.6 1454.75 Q1466.4 1455.16 1463.76 1456.04 L1463.76 1451.88 Q1466.42 1451.14 1468.74 1450.77 Q1471.08 1450.39 1473.14 1450.39 Q1478.46 1450.39 1481.56 1452.83 Q1484.67 1455.23 1484.67 1459.35 Q1484.67 1462.22 1483.02 1464.21 Q1481.38 1466.18 1478.35 1466.95 Z" fill="#000000" fill-rule="nonzero" fill-opacity="1" /><path clip-path="url(#clip680)" d="M1916.44 1455.09 L1904.63 1473.54 L1916.44 1473.54 L1916.44 1455.09 M1915.21 1451.02 L1921.09 1451.02 L1921.09 1473.54 L1926.02 1473.54 L1926.02 1477.43 L1921.09 1477.43 L1921.09 1485.58 L1916.44 1485.58 L1916.44 1477.43 L1900.83 1477.43 L1900.83 1472.92 L1915.21 1451.02 Z" fill="#000000" fill-rule="nonzero" fill-opacity="1" /><path clip-path="url(#clip680)" d="M2343.03 1451.02 L2361.39 1451.02 L2361.39 1454.96 L2347.32 1454.96 L2347.32 1463.43 Q2348.33 1463.08 2349.35 1462.92 Q2350.37 1462.73 2351.39 1462.73 Q2357.18 1462.73 2360.56 1465.9 Q2363.94 1469.08 2363.94 1474.49 Q2363.94 1480.07 2360.46 1483.17 Q2356.99 1486.25 2350.67 1486.25 Q2348.5 1486.25 2346.23 1485.88 Q2343.98 1485.51 2341.58 1484.77 L2341.58 1480.07 Q2343.66 1481.2 2345.88 1481.76 Q2348.1 1482.32 2350.58 1482.32 Q2354.58 1482.32 2356.92 1480.21 Q2359.26 1478.1 2359.26 1474.49 Q2359.26 1470.88 2356.92 1468.77 Q2354.58 1466.67 2350.58 1466.67 Q2348.71 1466.67 2346.83 1467.08 Q2344.98 1467.5 2343.03 1468.38 L2343.03 1451.02 Z" fill="#000000" fill-rule="nonzero" fill-opacity="1" /><path clip-path="url(#clip680)" d="M1253.5 1522.27 L1253.5 1532.4 L1265.56 1532.4 L1265.56 1536.95 L1253.5 1536.95 L1253.5 1556.3 Q1253.5 1560.66 1254.67 1561.9 Q1255.88 1563.14 1259.54 1563.14 L1265.56 1563.14 L1265.56 1568.04 L1259.54 1568.04 Q1252.76 1568.04 1250.18 1565.53 Q1247.61 1562.98 1247.61 1556.3 L1247.61 1536.95 L1243.31 1536.95 L1243.31 1532.4 L1247.61 1532.4 L1247.61 1522.27 L1253.5 1522.27 Z" fill="#000000" fill-rule="nonzero" fill-opacity="1" /><polyline clip-path="url(#clip680)" style="stroke:#000000; stroke-linecap:round; stroke-linejoin:round; stroke-width:4; stroke-opacity:1; fill:none" points="156.112,1423.18 156.112,47.2441 "/>
<polyline clip-path="url(#clip680)" style="stroke:#000000; stroke-linecap:round; stroke-linejoin:round; stroke-width:4; stroke-opacity:1; fill:none" points="156.112,1384.24 175.01,1384.24 "/>
<polyline clip-path="url(#clip680)" style="stroke:#000000; stroke-linecap:round; stroke-linejoin:round; stroke-width:4; stroke-opacity:1; fill:none" points="156.112,1122.71 175.01,1122.71 "/>
<polyline clip-path="url(#clip680)" style="stroke:#000000; stroke-linecap:round; stroke-linejoin:round; stroke-width:4; stroke-opacity:1; fill:none" points="156.112,861.176 175.01,861.176 "/>
<polyline clip-path="url(#clip680)" style="stroke:#000000; stroke-linecap:round; stroke-linejoin:round; stroke-width:4; stroke-opacity:1; fill:none" points="156.112,599.645 175.01,599.645 "/>
<polyline clip-path="url(#clip680)" style="stroke:#000000; stroke-linecap:round; stroke-linejoin:round; stroke-width:4; stroke-opacity:1; fill:none" points="156.112,338.114 175.01,338.114 "/>
<polyline clip-path="url(#clip680)" style="stroke:#000000; stroke-linecap:round; stroke-linejoin:round; stroke-width:4; stroke-opacity:1; fill:none" points="156.112,76.5835 175.01,76.5835 "/>
<path clip-path="url(#clip680)" d="M62.9365 1370.04 Q59.3254 1370.04 57.4967 1373.6 Q55.6912 1377.14 55.6912 1384.27 Q55.6912 1391.38 57.4967 1394.94 Q59.3254 1398.49 62.9365 1398.49 Q66.5707 1398.49 68.3763 1394.94 Q70.205 1391.38 70.205 1384.27 Q70.205 1377.14 68.3763 1373.6 Q66.5707 1370.04 62.9365 1370.04 M62.9365 1366.33 Q68.7467 1366.33 71.8022 1370.94 Q74.8809 1375.52 74.8809 1384.27 Q74.8809 1393 71.8022 1397.61 Q68.7467 1402.19 62.9365 1402.19 Q57.1264 1402.19 54.0477 1397.61 Q50.9921 1393 50.9921 1384.27 Q50.9921 1375.52 54.0477 1370.94 Q57.1264 1366.33 62.9365 1366.33 Z" fill="#000000" fill-rule="nonzero" fill-opacity="1" /><path clip-path="url(#clip680)" d="M83.0984 1395.64 L87.9827 1395.64 L87.9827 1401.52 L83.0984 1401.52 L83.0984 1395.64 Z" fill="#000000" fill-rule="nonzero" fill-opacity="1" /><path clip-path="url(#clip680)" d="M108.168 1370.04 Q104.557 1370.04 102.728 1373.6 Q100.922 1377.14 100.922 1384.27 Q100.922 1391.38 102.728 1394.94 Q104.557 1398.49 108.168 1398.49 Q111.802 1398.49 113.608 1394.94 Q115.436 1391.38 115.436 1384.27 Q115.436 1377.14 113.608 1373.6 Q111.802 1370.04 108.168 1370.04 M108.168 1366.33 Q113.978 1366.33 117.033 1370.94 Q120.112 1375.52 120.112 1384.27 Q120.112 1393 117.033 1397.61 Q113.978 1402.19 108.168 1402.19 Q102.358 1402.19 99.2789 1397.61 Q96.2234 1393 96.2234 1384.27 Q96.2234 1375.52 99.2789 1370.94 Q102.358 1366.33 108.168 1366.33 Z" fill="#000000" fill-rule="nonzero" fill-opacity="1" /><path clip-path="url(#clip680)" d="M63.9319 1108.51 Q60.3208 1108.51 58.4921 1112.07 Q56.6865 1115.61 56.6865 1122.74 Q56.6865 1129.85 58.4921 1133.41 Q60.3208 1136.95 63.9319 1136.95 Q67.5661 1136.95 69.3717 1133.41 Q71.2004 1129.85 71.2004 1122.74 Q71.2004 1115.61 69.3717 1112.07 Q67.5661 1108.51 63.9319 1108.51 M63.9319 1104.8 Q69.742 1104.8 72.7976 1109.41 Q75.8763 1113.99 75.8763 1122.74 Q75.8763 1131.47 72.7976 1136.08 Q69.742 1140.66 63.9319 1140.66 Q58.1217 1140.66 55.043 1136.08 Q51.9875 1131.47 51.9875 1122.74 Q51.9875 1113.99 55.043 1109.41 Q58.1217 1104.8 63.9319 1104.8 Z" fill="#000000" fill-rule="nonzero" fill-opacity="1" /><path clip-path="url(#clip680)" d="M84.0938 1134.11 L88.978 1134.11 L88.978 1139.99 L84.0938 1139.99 L84.0938 1134.11 Z" fill="#000000" fill-rule="nonzero" fill-opacity="1" /><path clip-path="url(#clip680)" d="M99.2095 1105.43 L117.566 1105.43 L117.566 1109.36 L103.492 1109.36 L103.492 1117.83 Q104.51 1117.49 105.529 1117.33 Q106.547 1117.14 107.566 1117.14 Q113.353 1117.14 116.733 1120.31 Q120.112 1123.48 120.112 1128.9 Q120.112 1134.48 116.64 1137.58 Q113.168 1140.66 106.848 1140.66 Q104.672 1140.66 102.404 1140.29 Q100.159 1139.92 97.7511 1139.18 L97.7511 1134.48 Q99.8345 1135.61 102.057 1136.17 Q104.279 1136.72 106.756 1136.72 Q110.76 1136.72 113.098 1134.62 Q115.436 1132.51 115.436 1128.9 Q115.436 1125.29 113.098 1123.18 Q110.76 1121.08 106.756 1121.08 Q104.881 1121.08 103.006 1121.49 Q101.154 1121.91 99.2095 1122.79 L99.2095 1105.43 Z" fill="#000000" fill-rule="nonzero" fill-opacity="1" /><path clip-path="url(#clip680)" d="M53.7467 874.521 L61.3856 874.521 L61.3856 848.156 L53.0754 849.822 L53.0754 845.563 L61.3393 843.896 L66.0152 843.896 L66.0152 874.521 L73.654 874.521 L73.654 878.456 L53.7467 878.456 L53.7467 874.521 Z" fill="#000000" fill-rule="nonzero" fill-opacity="1" /><path clip-path="url(#clip680)" d="M83.0984 872.577 L87.9827 872.577 L87.9827 878.456 L83.0984 878.456 L83.0984 872.577 Z" fill="#000000" fill-rule="nonzero" fill-opacity="1" /><path clip-path="url(#clip680)" d="M108.168 846.975 Q104.557 846.975 102.728 850.54 Q100.922 854.081 100.922 861.211 Q100.922 868.318 102.728 871.882 Q104.557 875.424 108.168 875.424 Q111.802 875.424 113.608 871.882 Q115.436 868.318 115.436 861.211 Q115.436 854.081 113.608 850.54 Q111.802 846.975 108.168 846.975 M108.168 843.271 Q113.978 843.271 117.033 847.878 Q120.112 852.461 120.112 861.211 Q120.112 869.938 117.033 874.544 Q113.978 879.128 108.168 879.128 Q102.358 879.128 99.2789 874.544 Q96.2234 869.938 96.2234 861.211 Q96.2234 852.461 99.2789 847.878 Q102.358 843.271 108.168 843.271 Z" fill="#000000" fill-rule="nonzero" fill-opacity="1" /><path clip-path="url(#clip680)" d="M54.7421 612.99 L62.381 612.99 L62.381 586.625 L54.0708 588.291 L54.0708 584.032 L62.3347 582.365 L67.0106 582.365 L67.0106 612.99 L74.6494 612.99 L74.6494 616.925 L54.7421 616.925 L54.7421 612.99 Z" fill="#000000" fill-rule="nonzero" fill-opacity="1" /><path clip-path="url(#clip680)" d="M84.0938 611.046 L88.978 611.046 L88.978 616.925 L84.0938 616.925 L84.0938 611.046 Z" fill="#000000" fill-rule="nonzero" fill-opacity="1" /><path clip-path="url(#clip680)" d="M99.2095 582.365 L117.566 582.365 L117.566 586.301 L103.492 586.301 L103.492 594.773 Q104.51 594.426 105.529 594.263 Q106.547 594.078 107.566 594.078 Q113.353 594.078 116.733 597.25 Q120.112 600.421 120.112 605.838 Q120.112 611.416 116.64 614.518 Q113.168 617.597 106.848 617.597 Q104.672 617.597 102.404 617.226 Q100.159 616.856 97.7511 616.115 L97.7511 611.416 Q99.8345 612.55 102.057 613.106 Q104.279 613.662 106.756 613.662 Q110.76 613.662 113.098 611.555 Q115.436 609.449 115.436 605.838 Q115.436 602.226 113.098 600.12 Q110.76 598.013 106.756 598.013 Q104.881 598.013 103.006 598.43 Q101.154 598.847 99.2095 599.726 L99.2095 582.365 Z" fill="#000000" fill-rule="nonzero" fill-opacity="1" /><path clip-path="url(#clip680)" d="M56.9643 351.459 L73.2837 351.459 L73.2837 355.394 L51.3393 355.394 L51.3393 351.459 Q54.0014 348.705 58.5847 344.075 Q63.1911 339.422 64.3717 338.08 Q66.617 335.557 67.4967 333.821 Q68.3994 332.061 68.3994 330.371 Q68.3994 327.617 66.455 325.881 Q64.5337 324.145 61.4319 324.145 Q59.2328 324.145 56.7791 324.909 Q54.3486 325.672 51.5708 327.223 L51.5708 322.501 Q54.3949 321.367 56.8486 320.788 Q59.3023 320.209 61.3393 320.209 Q66.7096 320.209 69.9041 322.895 Q73.0985 325.58 73.0985 330.071 Q73.0985 332.2 72.2883 334.121 Q71.5013 336.02 69.3948 338.612 Q68.8161 339.283 65.7143 342.501 Q62.6124 345.695 56.9643 351.459 Z" fill="#000000" fill-rule="nonzero" fill-opacity="1" /><path clip-path="url(#clip680)" d="M83.0984 349.515 L87.9827 349.515 L87.9827 355.394 L83.0984 355.394 L83.0984 349.515 Z" fill="#000000" fill-rule="nonzero" fill-opacity="1" /><path clip-path="url(#clip680)" d="M108.168 323.913 Q104.557 323.913 102.728 327.478 Q100.922 331.02 100.922 338.149 Q100.922 345.256 102.728 348.82 Q104.557 352.362 108.168 352.362 Q111.802 352.362 113.608 348.82 Q115.436 345.256 115.436 338.149 Q115.436 331.02 113.608 327.478 Q111.802 323.913 108.168 323.913 M108.168 320.209 Q113.978 320.209 117.033 324.816 Q120.112 329.399 120.112 338.149 Q120.112 346.876 117.033 351.482 Q113.978 356.066 108.168 356.066 Q102.358 356.066 99.2789 351.482 Q96.2234 346.876 96.2234 338.149 Q96.2234 329.399 99.2789 324.816 Q102.358 320.209 108.168 320.209 Z" fill="#000000" fill-rule="nonzero" fill-opacity="1" /><path clip-path="url(#clip680)" d="M57.9597 89.9283 L74.279 89.9283 L74.279 93.8635 L52.3347 93.8635 L52.3347 89.9283 Q54.9967 87.1737 59.58 82.5441 Q64.1865 77.8914 65.367 76.5488 Q67.6124 74.0257 68.492 72.2896 Q69.3948 70.5303 69.3948 68.8405 Q69.3948 66.0859 67.4504 64.3498 Q65.5291 62.6137 62.4272 62.6137 Q60.2282 62.6137 57.7745 63.3776 Q55.344 64.1414 52.5662 65.6924 L52.5662 60.9702 Q55.3903 59.8359 57.8439 59.2572 Q60.2976 58.6785 62.3347 58.6785 Q67.705 58.6785 70.8994 61.3637 Q74.0939 64.0489 74.0939 68.5396 Q74.0939 70.6692 73.2837 72.5905 Q72.4966 74.4886 70.3902 77.0812 Q69.8115 77.7525 66.7096 80.9701 Q63.6078 84.1645 57.9597 89.9283 Z" fill="#000000" fill-rule="nonzero" fill-opacity="1" /><path clip-path="url(#clip680)" d="M84.0938 87.9839 L88.978 87.9839 L88.978 93.8635 L84.0938 93.8635 L84.0938 87.9839 Z" fill="#000000" fill-rule="nonzero" fill-opacity="1" /><path clip-path="url(#clip680)" d="M99.2095 59.3035 L117.566 59.3035 L117.566 63.2387 L103.492 63.2387 L103.492 71.7109 Q104.51 71.3636 105.529 71.2016 Q106.547 71.0164 107.566 71.0164 Q113.353 71.0164 116.733 74.1877 Q120.112 77.359 120.112 82.7756 Q120.112 88.3543 116.64 91.4561 Q113.168 94.5348 106.848 94.5348 Q104.672 94.5348 102.404 94.1644 Q100.159 93.7941 97.7511 93.0533 L97.7511 88.3543 Q99.8345 89.4885 102.057 90.0441 Q104.279 90.5996 106.756 90.5996 Q110.76 90.5996 113.098 88.4932 Q115.436 86.3867 115.436 82.7756 Q115.436 79.1645 113.098 77.058 Q110.76 74.9516 106.756 74.9516 Q104.881 74.9516 103.006 75.3682 Q101.154 75.7849 99.2095 76.6645 L99.2095 59.3035 Z" fill="#000000" fill-rule="nonzero" fill-opacity="1" /><polyline clip-path="url(#clip682)" style="stroke:#009af9; stroke-linecap:round; stroke-linejoin:round; stroke-width:8; stroke-opacity:1; fill:none" points="156.112,1384.24 160.505,1332.6 164.899,1265.2 169.292,1201.93 173.685,1167.97 178.079,1113.54 182.472,1072.72 186.865,1005.01 191.258,955.06 195.652,955.274 200.045,909.017 204.438,880.377 208.832,851.616 213.225,820.782 217.618,815.824 222.011,763.079 226.405,728.432 230.798,690.771 235.191,678.973 239.585,673.54 243.978,620.004 248.371,606.054 252.764,574.141 257.158,563.655 261.551,529.101 265.944,550.378 270.338,548.892 274.731,573.504 279.124,551.637 283.517,516.064 287.911,554.899 292.304,514.017 296.697,489.77 301.091,497.088 305.484,447.011 309.877,514.108 314.27,532.102 318.664,507.624 323.057,525.374 327.45,544.117 331.844,488.98 336.237,501.964 340.63,523.476 345.023,504.468 349.417,543.347 353.81,538.869 358.203,535.722 362.597,514.482 366.99,553.945 371.383,501.814 375.777,484.577 380.17,459.796 384.563,486.184 388.956,464.727 393.35,462.809 397.743,479.06 402.136,497.654 406.53,472.375 410.923,458.264 415.316,468.357 419.709,492.349 424.103,430.28 428.496,389.427 432.889,407.723 437.283,408.507 441.676,371.946 446.069,352.107 450.462,367.661 454.856,398.901 459.249,393.317 463.642,397.29 468.036,363.202 472.429,366.54 476.822,336.456 481.215,354.243 485.609,344.141 490.002,313.332 494.395,303.697 498.789,316.755 503.182,333.112 507.575,338.586 511.968,346.545 516.362,322.273 520.755,332.858 525.148,349.221 529.542,308.604 533.935,319.292 538.328,373.004 542.721,395.98 547.115,393.49 551.508,367.926 555.901,406.053 560.295,409.184 564.688,409.697 569.081,423.735 573.474,432.571 577.868,436.499 582.261,451.562 586.654,496.323 591.048,486.377 595.441,482.525 599.834,516.884 604.227,548.681 608.621,527.509 613.014,548.771 617.407,549.316 621.801,589.548 626.194,564.706 630.587,544.239 634.98,529.944 639.374,493.945 643.767,494.576 648.16,547.254 652.554,533.678 656.947,495.476 661.34,505.289 665.733,462.111 670.127,411.023 674.52,408.459 678.913,398.029 683.307,428.545 687.7,452.268 692.093,450.72 696.486,407.728 700.88,425.403 705.273,436.797 709.666,434.533 714.06,441.137 718.453,430.499 722.846,421.748 727.24,486.14 731.633,454.521 736.026,506.287 740.419,514.814 744.813,529.456 749.206,504.957 753.599,507.295 757.993,487.935 762.386,502.602 766.779,482.698 771.172,479.46 775.566,494.009 779.959,499.822 784.352,497.534 788.746,531.055 793.139,514.485 797.532,535.169 801.925,514.801 806.319,448.255 810.712,455.827 815.105,473.11 819.499,474.037 823.892,459.177 828.285,460.17 832.678,461.505 837.072,442.084 841.465,438.219 845.858,409.815 850.252,415.997 854.645,396.582 859.038,370.478 863.431,351.349 867.825,347.225 872.218,368.069 876.611,416.498 881.005,432.797 885.398,433.565 889.791,426.01 894.184,438.912 898.578,448.345 902.971,429.669 907.364,401.252 911.758,447.339 916.151,432.105 920.544,443.431 924.937,396.223 929.331,388.478 933.724,405.013 938.117,425.082 942.511,382.373 946.904,399.031 951.297,399.939 955.69,391.301 960.084,432.539 964.477,377.995 968.87,387.624 973.264,424.414 977.657,395.411 982.05,410.462 986.443,438.497 990.837,365.932 995.23,358.943 999.623,330.072 1004.02,366.076 1008.41,324.27 1012.8,335.114 1017.2,342.297 1021.59,328.989 1025.98,289.54 1030.38,262.33 1034.77,282.919 1039.16,355.783 1043.56,324.943 1047.95,320.2 1052.34,318.211 1056.74,309.699 1061.13,269.52 1065.52,262.293 1069.92,295.25 1074.31,261.267 1078.7,247.076 1083.1,196.039 1087.49,253.529 1091.88,267.716 1096.28,286.941 1100.67,292.464 1105.06,305.876 1109.46,332.408 1113.85,308.74 1118.24,349.282 1122.64,391.605 1127.03,396.635 1131.42,351.309 1135.82,305.1 1140.21,311.776 1144.6,324.362 1149,324.696 1153.39,381.428 1157.78,304.045 1162.17,278.653 1166.57,307.362 1170.96,298.66 1175.35,313.957 1179.75,330.401 1184.14,366.454 1188.53,396.048 1192.93,391.242 1197.32,366.852 1201.71,413.585 1206.11,402.484 1210.5,370.304 1214.89,317.541 1219.29,267.834 1223.68,266.422 1228.07,265.193 1232.47,287.707 1236.86,316.532 1241.25,353.055 1245.65,339.141 1250.04,345.836 1254.43,368.805 1258.83,382.371 1263.22,372.62 1267.61,345.571 1272.01,323.471 1276.4,341.019 1280.79,342.739 1285.19,332.853 1289.58,326.745 1293.97,327.934 1298.37,298.52 1302.76,322.3 1307.15,333.292 1311.55,364.919 1315.94,368.153 1320.33,363.253 1324.73,357.902 1329.12,389.055 1333.51,363.153 1337.91,394.069 1342.3,397.372 1346.69,373.59 1351.09,418.774 1355.48,435.903 1359.87,452.222 1364.27,441.271 1368.66,417.697 1373.05,424.582 1377.45,447.006 1381.84,447.135 1386.23,459.395 1390.63,462.057 1395.02,451.061 1399.41,407.106 1403.81,399.645 1408.2,391.662 1412.59,442.484 1416.99,460.038 1421.38,426.941 1425.77,444.685 1430.17,440.312 1434.56,405.54 1438.95,394.282 1443.35,389.153 1447.74,349.015 1452.13,361.191 1456.53,343.381 1460.92,349.554 1465.31,361.469 1469.71,364.019 1474.1,344.008 1478.49,393.628 1482.88,426.344 1487.28,384.947 1491.67,334.536 1496.06,338.207 1500.46,310.628 1504.85,341.092 1509.24,309.113 1513.64,312.856 1518.03,298.676 1522.42,317.095 1526.82,295.546 1531.21,294.944 1535.6,301.055 1540,353.511 1544.39,378.59 1548.78,383.825 1553.18,364.614 1557.57,359.718 1561.96,377.736 1566.36,374.579 1570.75,438.677 1575.14,455.051 1579.54,461.526 1583.93,435.361 1588.32,431.529 1592.72,407.838 1597.11,400.507 1601.5,410.353 1605.9,396.217 1610.29,379.698 1614.68,357.898 1619.08,377.408 1623.47,401.639 1627.86,391.844 1632.26,389.155 1636.65,393.439 1641.04,409.811 1645.44,428.441 1649.83,432.3 1654.22,391.191 1658.62,348.094 1663.01,398.031 1667.4,403.237 1671.8,399.873 1676.19,416.259 1680.58,452.517 1684.98,457.812 1689.37,412.893 1693.76,460.954 1698.16,456.008 1702.55,419.299 1706.94,397.612 1711.34,412.727 1715.73,383.805 1720.12,374.124 1724.52,378.961 1728.91,355.348 1733.3,348.32 1737.7,357.416 1742.09,378.99 1746.48,334.123 1750.88,380.401 1755.27,410.138 1759.66,432.936 1764.06,431.299 1768.45,348.775 1772.84,350.727 1777.24,325.512 1781.63,311.959 1786.02,320.239 1790.42,309.669 1794.81,340.759 1799.2,369.33 1803.59,309.273 1807.99,285.201 1812.38,296.846 1816.77,313.385 1821.17,336.929 1825.56,348.183 1829.95,346.969 1834.35,368.132 1838.74,338.578 1843.13,338.664 1847.53,366.997 1851.92,354.574 1856.31,321.959 1860.71,325.128 1865.1,328.542 1869.49,300.24 1873.89,309.449 1878.28,316.036 1882.67,295.13 1887.07,295.179 1891.46,303.649 1895.85,309.131 1900.25,277.429 1904.64,281.709 1909.03,325.341 1913.43,290.73 1917.82,336.586 1922.21,333.885 1926.61,324.853 1931,304.651 1935.39,293.545 1939.79,298.04 1944.18,366.218 1948.57,346.417 1952.97,351.755 1957.36,355.951 1961.75,340.817 1966.15,372.404 1970.54,399.81 1974.93,414.677 1979.33,366.974 1983.72,390.196 1988.11,401.746 1992.51,387.152 1996.9,461.102 2001.29,443.724 2005.69,411.545 2010.08,380.704 2014.47,427.34 2018.87,445.64 2023.26,481.991 2027.65,423.305 2032.05,421.188 2036.44,447.33 2040.83,415.963 2045.23,446.67 2049.62,457.034 2054.01,479.563 2058.41,431.6 2062.8,436.02 2067.19,455.105 2071.59,448.18 2075.98,483.804 2080.37,492.437 2084.77,477.4 2089.16,465.853 2093.55,470.002 2097.95,459.55 2102.34,446.567 2106.73,412.783 2111.13,366.928 2115.52,395.569 2119.91,387.319 2124.3,399.226 2128.7,424.53 2133.09,411.21 2137.48,386.271 2141.88,383.032 2146.27,396.624 2150.66,353.689 2155.06,387.196 2159.45,380.45 2163.84,343.165 2168.24,368.312 2172.63,400.529 2177.02,435.569 2181.42,402.897 2185.81,442.045 2190.2,411.64 2194.6,402.691 2198.99,425.617 2203.38,421.918 2207.78,380.978 2212.17,383.432 2216.56,402.292 2220.96,367.288 2225.35,353.389 2229.74,321.802 2234.14,352.014 2238.53,311.791 2242.92,281.323 2247.32,270.347 2251.71,253.389 2256.1,220.547 2260.5,211.048 2264.89,204.911 2269.28,188.861 2273.68,207.06 2278.07,221.779 2282.46,189.571 2286.86,184.31 2291.25,160.215 2295.64,166.566 2300.04,166.896 2304.43,133.596 2308.82,100.059 2313.22,86.1857 2317.61,131.321 2322,141.02 2326.4,208.631 2330.79,221.71 2335.18,223.911 2339.58,184.385 2343.97,201.538 2348.36,169.285 2352.76,183.129 "/>
</svg>
