<?xml version="1.0" encoding="utf-8"?>
<svg xmlns="http://www.w3.org/2000/svg" xmlns:xlink="http://www.w3.org/1999/xlink" width="600" height="400" viewBox="0 0 2400 1600">
<defs>
  <clipPath id="clip120">
    <rect x="0" y="0" width="2400" height="1600"/>
  </clipPath>
</defs>
<path clip-path="url(#clip120)" d="M0 1600 L2400 1600 L2400 0 L0 0  Z" fill="#ffffff" fill-rule="evenodd" fill-opacity="1"/>
<defs>
  <clipPath id="clip121">
    <rect x="205" y="47" width="2149" height="1365"/>
  </clipPath>
</defs>
<path clip-path="url(#clip120)" d="M205.121 1410.9 L2352.76 1410.9 L2352.76 47.2441 L205.121 47.2441  Z" fill="#ffffff" fill-rule="evenodd" fill-opacity="1"/>
<polyline clip-path="url(#clip121)" style="stroke:#000000; stroke-linecap:round; stroke-linejoin:round; stroke-width:2; stroke-opacity:0.1; fill:none" points="323.245,1410.9 323.245,47.2441 "/>
<polyline clip-path="url(#clip121)" style="stroke:#000000; stroke-linecap:round; stroke-linejoin:round; stroke-width:2; stroke-opacity:0.1; fill:none" points="902.453,1410.9 902.453,47.2441 "/>
<polyline clip-path="url(#clip121)" style="stroke:#000000; stroke-linecap:round; stroke-linejoin:round; stroke-width:2; stroke-opacity:0.1; fill:none" points="1481.66,1410.9 1481.66,47.2441 "/>
<polyline clip-path="url(#clip121)" style="stroke:#000000; stroke-linecap:round; stroke-linejoin:round; stroke-width:2; stroke-opacity:0.1; fill:none" points="2060.87,1410.9 2060.87,47.2441 "/>
<polyline clip-path="url(#clip121)" style="stroke:#000000; stroke-linecap:round; stroke-linejoin:round; stroke-width:2; stroke-opacity:0.1; fill:none" points="205.121,1410.9 2352.76,1410.9 "/>
<polyline clip-path="url(#clip121)" style="stroke:#000000; stroke-linecap:round; stroke-linejoin:round; stroke-width:2; stroke-opacity:0.1; fill:none" points="205.121,1100.98 2352.76,1100.98 "/>
<polyline clip-path="url(#clip121)" style="stroke:#000000; stroke-linecap:round; stroke-linejoin:round; stroke-width:2; stroke-opacity:0.1; fill:none" points="205.121,791.055 2352.76,791.055 "/>
<polyline clip-path="url(#clip121)" style="stroke:#000000; stroke-linecap:round; stroke-linejoin:round; stroke-width:2; stroke-opacity:0.1; fill:none" points="205.121,481.134 2352.76,481.134 "/>
<polyline clip-path="url(#clip121)" style="stroke:#000000; stroke-linecap:round; stroke-linejoin:round; stroke-width:2; stroke-opacity:0.1; fill:none" points="205.121,171.213 2352.76,171.213 "/>
<polyline clip-path="url(#clip120)" style="stroke:#000000; stroke-linecap:round; stroke-linejoin:round; stroke-width:4; stroke-opacity:1; fill:none" points="205.121,1410.9 2352.76,1410.9 "/>
<polyline clip-path="url(#clip120)" style="stroke:#000000; stroke-linecap:round; stroke-linejoin:round; stroke-width:4; stroke-opacity:1; fill:none" points="323.245,1410.9 323.245,1392 "/>
<polyline clip-path="url(#clip120)" style="stroke:#000000; stroke-linecap:round; stroke-linejoin:round; stroke-width:4; stroke-opacity:1; fill:none" points="902.453,1410.9 902.453,1392 "/>
<polyline clip-path="url(#clip120)" style="stroke:#000000; stroke-linecap:round; stroke-linejoin:round; stroke-width:4; stroke-opacity:1; fill:none" points="1481.66,1410.9 1481.66,1392 "/>
<polyline clip-path="url(#clip120)" style="stroke:#000000; stroke-linecap:round; stroke-linejoin:round; stroke-width:4; stroke-opacity:1; fill:none" points="2060.87,1410.9 2060.87,1392 "/>
<path clip-path="url(#clip120)" d="M323.245 1441.82 Q319.634 1441.82 317.805 1445.38 Q315.999 1448.92 315.999 1456.05 Q315.999 1463.16 317.805 1466.72 Q319.634 1470.26 323.245 1470.26 Q326.879 1470.26 328.685 1466.72 Q330.513 1463.16 330.513 1456.05 Q330.513 1448.92 328.685 1445.38 Q326.879 1441.82 323.245 1441.82 M323.245 1438.11 Q329.055 1438.11 332.11 1442.72 Q335.189 1447.3 335.189 1456.05 Q335.189 1464.78 332.11 1469.38 Q329.055 1473.97 323.245 1473.97 Q317.435 1473.97 314.356 1469.38 Q311.3 1464.78 311.3 1456.05 Q311.3 1447.3 314.356 1442.72 Q317.435 1438.11 323.245 1438.11 Z" fill="#000000" fill-rule="nonzero" fill-opacity="1" /><path clip-path="url(#clip120)" d="M809.352 1485.02 L816.991 1485.02 L816.991 1458.66 L808.68 1460.32 L808.68 1456.06 L816.944 1454.4 L821.62 1454.4 L821.62 1485.02 L829.259 1485.02 L829.259 1488.96 L809.352 1488.96 L809.352 1485.02 Z" fill="#000000" fill-rule="nonzero" fill-opacity="1" /><path clip-path="url(#clip120)" d="M838.703 1483.08 L843.588 1483.08 L843.588 1488.96 L838.703 1488.96 L838.703 1483.08 Z" fill="#000000" fill-rule="nonzero" fill-opacity="1" /><path clip-path="url(#clip120)" d="M863.773 1457.48 Q860.162 1457.48 858.333 1461.04 Q856.527 1464.58 856.527 1471.71 Q856.527 1478.82 858.333 1482.38 Q860.162 1485.92 863.773 1485.92 Q867.407 1485.92 869.212 1482.38 Q871.041 1478.82 871.041 1471.71 Q871.041 1464.58 869.212 1461.04 Q867.407 1457.48 863.773 1457.48 M863.773 1453.77 Q869.583 1453.77 872.638 1458.38 Q875.717 1462.96 875.717 1471.71 Q875.717 1480.44 872.638 1485.04 Q869.583 1489.63 863.773 1489.63 Q857.963 1489.63 854.884 1485.04 Q851.828 1480.44 851.828 1471.71 Q851.828 1462.96 854.884 1458.38 Q857.963 1453.77 863.773 1453.77 Z" fill="#000000" fill-rule="nonzero" fill-opacity="1" /><path clip-path="url(#clip120)" d="M912.106 1463.49 L901.527 1474.12 L912.106 1484.7 L909.351 1487.5 L898.726 1476.87 L888.101 1487.5 L885.37 1484.7 L895.925 1474.12 L885.37 1463.49 L888.101 1460.69 L898.726 1471.32 L909.351 1460.69 L912.106 1463.49 Z" fill="#000000" fill-rule="nonzero" fill-opacity="1" /><path clip-path="url(#clip120)" d="M924.467 1485.02 L932.106 1485.02 L932.106 1458.66 L923.796 1460.32 L923.796 1456.06 L932.059 1454.4 L936.735 1454.4 L936.735 1485.02 L944.374 1485.02 L944.374 1488.96 L924.467 1488.96 L924.467 1485.02 Z" fill="#000000" fill-rule="nonzero" fill-opacity="1" /><path clip-path="url(#clip120)" d="M963.818 1457.48 Q960.207 1457.48 958.379 1461.04 Q956.573 1464.58 956.573 1471.71 Q956.573 1478.82 958.379 1482.38 Q960.207 1485.92 963.818 1485.92 Q967.453 1485.92 969.258 1482.38 Q971.087 1478.82 971.087 1471.71 Q971.087 1464.58 969.258 1461.04 Q967.453 1457.48 963.818 1457.48 M963.818 1453.77 Q969.629 1453.77 972.684 1458.38 Q975.763 1462.96 975.763 1471.71 Q975.763 1480.44 972.684 1485.04 Q969.629 1489.63 963.818 1489.63 Q958.008 1489.63 954.93 1485.04 Q951.874 1480.44 951.874 1471.71 Q951.874 1462.96 954.93 1458.38 Q958.008 1453.77 963.818 1453.77 Z" fill="#000000" fill-rule="nonzero" fill-opacity="1" /><path clip-path="url(#clip120)" d="M988.439 1436.78 L978.847 1451.77 L988.439 1451.77 L988.439 1436.78 M987.442 1433.47 L992.22 1433.47 L992.22 1451.77 L996.226 1451.77 L996.226 1454.93 L992.22 1454.93 L992.22 1461.55 L988.439 1461.55 L988.439 1454.93 L975.763 1454.93 L975.763 1451.26 L987.442 1433.47 Z" fill="#000000" fill-rule="nonzero" fill-opacity="1" /><path clip-path="url(#clip120)" d="M1392.65 1485.02 L1408.96 1485.02 L1408.96 1488.96 L1387.02 1488.96 L1387.02 1485.02 Q1389.68 1482.27 1394.27 1477.64 Q1398.87 1472.98 1400.05 1471.64 Q1402.3 1469.12 1403.18 1467.38 Q1404.08 1465.62 1404.08 1463.93 Q1404.08 1461.18 1402.14 1459.44 Q1400.22 1457.71 1397.11 1457.71 Q1394.91 1457.71 1392.46 1458.47 Q1390.03 1459.23 1387.25 1460.79 L1387.25 1456.06 Q1390.08 1454.93 1392.53 1454.35 Q1394.98 1453.77 1397.02 1453.77 Q1402.39 1453.77 1405.59 1456.46 Q1408.78 1459.14 1408.78 1463.63 Q1408.78 1465.76 1407.97 1467.68 Q1407.18 1469.58 1405.08 1472.17 Q1404.5 1472.85 1401.4 1476.06 Q1398.29 1479.26 1392.65 1485.02 Z" fill="#000000" fill-rule="nonzero" fill-opacity="1" /><path clip-path="url(#clip120)" d="M1418.78 1483.08 L1423.66 1483.08 L1423.66 1488.96 L1418.78 1488.96 L1418.78 1483.08 Z" fill="#000000" fill-rule="nonzero" fill-opacity="1" /><path clip-path="url(#clip120)" d="M1443.85 1457.48 Q1440.24 1457.48 1438.41 1461.04 Q1436.6 1464.58 1436.6 1471.71 Q1436.6 1478.82 1438.41 1482.38 Q1440.24 1485.92 1443.85 1485.92 Q1447.48 1485.92 1449.29 1482.38 Q1451.12 1478.82 1451.12 1471.71 Q1451.12 1464.58 1449.29 1461.04 Q1447.48 1457.48 1443.85 1457.48 M1443.85 1453.77 Q1449.66 1453.77 1452.71 1458.38 Q1455.79 1462.96 1455.79 1471.71 Q1455.79 1480.44 1452.71 1485.04 Q1449.66 1489.63 1443.85 1489.63 Q1438.04 1489.63 1434.96 1485.04 Q1431.9 1480.44 1431.9 1471.71 Q1431.9 1462.96 1434.96 1458.38 Q1438.04 1453.77 1443.85 1453.77 Z" fill="#000000" fill-rule="nonzero" fill-opacity="1" /><path clip-path="url(#clip120)" d="M1492.18 1463.49 L1481.6 1474.12 L1492.18 1484.7 L1489.43 1487.5 L1478.8 1476.87 L1468.18 1487.5 L1465.45 1484.7 L1476 1474.12 L1465.45 1463.49 L1468.18 1460.69 L1478.8 1471.32 L1489.43 1460.69 L1492.18 1463.49 Z" fill="#000000" fill-rule="nonzero" fill-opacity="1" /><path clip-path="url(#clip120)" d="M1504.54 1485.02 L1512.18 1485.02 L1512.18 1458.66 L1503.87 1460.32 L1503.87 1456.06 L1512.14 1454.4 L1516.81 1454.4 L1516.81 1485.02 L1524.45 1485.02 L1524.45 1488.96 L1504.54 1488.96 L1504.54 1485.02 Z" fill="#000000" fill-rule="nonzero" fill-opacity="1" /><path clip-path="url(#clip120)" d="M1543.89 1457.48 Q1540.28 1457.48 1538.46 1461.04 Q1536.65 1464.58 1536.65 1471.71 Q1536.65 1478.82 1538.46 1482.38 Q1540.28 1485.92 1543.89 1485.92 Q1547.53 1485.92 1549.33 1482.38 Q1551.16 1478.82 1551.16 1471.71 Q1551.16 1464.58 1549.33 1461.04 Q1547.53 1457.48 1543.89 1457.48 M1543.89 1453.77 Q1549.7 1453.77 1552.76 1458.38 Q1555.84 1462.96 1555.84 1471.71 Q1555.84 1480.44 1552.76 1485.04 Q1549.7 1489.63 1543.89 1489.63 Q1538.08 1489.63 1535.01 1485.04 Q1531.95 1480.44 1531.95 1471.71 Q1531.95 1462.96 1535.01 1458.38 Q1538.08 1453.77 1543.89 1453.77 Z" fill="#000000" fill-rule="nonzero" fill-opacity="1" /><path clip-path="url(#clip120)" d="M1568.52 1436.78 L1558.92 1451.77 L1568.52 1451.77 L1568.52 1436.78 M1567.52 1433.47 L1572.3 1433.47 L1572.3 1451.77 L1576.3 1451.77 L1576.3 1454.93 L1572.3 1454.93 L1572.3 1461.55 L1568.52 1461.55 L1568.52 1454.93 L1555.84 1454.93 L1555.84 1451.26 L1567.52 1433.47 Z" fill="#000000" fill-rule="nonzero" fill-opacity="1" /><path clip-path="url(#clip120)" d="M1981.92 1470.32 Q1985.28 1471.04 1987.15 1473.31 Q1989.05 1475.58 1989.05 1478.91 Q1989.05 1484.03 1985.53 1486.83 Q1982.02 1489.63 1975.53 1489.63 Q1973.36 1489.63 1971.04 1489.19 Q1968.75 1488.77 1966.3 1487.91 L1966.3 1483.4 Q1968.24 1484.54 1970.56 1485.11 Q1972.87 1485.69 1975.4 1485.69 Q1979.79 1485.69 1982.09 1483.96 Q1984.4 1482.22 1984.4 1478.91 Q1984.4 1475.85 1982.25 1474.14 Q1980.12 1472.41 1976.3 1472.41 L1972.27 1472.41 L1972.27 1468.56 L1976.48 1468.56 Q1979.93 1468.56 1981.76 1467.2 Q1983.59 1465.81 1983.59 1463.22 Q1983.59 1460.55 1981.69 1459.14 Q1979.82 1457.71 1976.3 1457.71 Q1974.38 1457.71 1972.18 1458.12 Q1969.98 1458.54 1967.34 1459.42 L1967.34 1455.25 Q1970 1454.51 1972.32 1454.14 Q1974.65 1453.77 1976.72 1453.77 Q1982.04 1453.77 1985.14 1456.2 Q1988.24 1458.61 1988.24 1462.73 Q1988.24 1465.6 1986.6 1467.59 Q1984.96 1469.56 1981.92 1470.32 Z" fill="#000000" fill-rule="nonzero" fill-opacity="1" /><path clip-path="url(#clip120)" d="M1997.92 1483.08 L2002.8 1483.08 L2002.8 1488.96 L1997.92 1488.96 L1997.92 1483.08 Z" fill="#000000" fill-rule="nonzero" fill-opacity="1" /><path clip-path="url(#clip120)" d="M2022.99 1457.48 Q2019.38 1457.48 2017.55 1461.04 Q2015.74 1464.58 2015.74 1471.71 Q2015.74 1478.82 2017.55 1482.38 Q2019.38 1485.92 2022.99 1485.92 Q2026.62 1485.92 2028.43 1482.38 Q2030.26 1478.82 2030.26 1471.71 Q2030.26 1464.58 2028.43 1461.04 Q2026.62 1457.48 2022.99 1457.48 M2022.99 1453.77 Q2028.8 1453.77 2031.85 1458.38 Q2034.93 1462.96 2034.93 1471.71 Q2034.93 1480.44 2031.85 1485.04 Q2028.8 1489.63 2022.99 1489.63 Q2017.18 1489.63 2014.1 1485.04 Q2011.04 1480.44 2011.04 1471.71 Q2011.04 1462.96 2014.1 1458.38 Q2017.18 1453.77 2022.99 1453.77 Z" fill="#000000" fill-rule="nonzero" fill-opacity="1" /><path clip-path="url(#clip120)" d="M2071.32 1463.49 L2060.74 1474.12 L2071.32 1484.7 L2068.57 1487.5 L2057.94 1476.87 L2047.32 1487.5 L2044.59 1484.7 L2055.14 1474.12 L2044.59 1463.49 L2047.32 1460.69 L2057.94 1471.32 L2068.57 1460.69 L2071.32 1463.49 Z" fill="#000000" fill-rule="nonzero" fill-opacity="1" /><path clip-path="url(#clip120)" d="M2083.68 1485.02 L2091.32 1485.02 L2091.32 1458.66 L2083.01 1460.32 L2083.01 1456.06 L2091.27 1454.4 L2095.95 1454.4 L2095.95 1485.02 L2103.59 1485.02 L2103.59 1488.96 L2083.68 1488.96 L2083.68 1485.02 Z" fill="#000000" fill-rule="nonzero" fill-opacity="1" /><path clip-path="url(#clip120)" d="M2123.03 1457.48 Q2119.42 1457.48 2117.59 1461.04 Q2115.79 1464.58 2115.79 1471.71 Q2115.79 1478.82 2117.59 1482.38 Q2119.42 1485.92 2123.03 1485.92 Q2126.67 1485.92 2128.47 1482.38 Q2130.3 1478.82 2130.3 1471.71 Q2130.3 1464.58 2128.47 1461.04 Q2126.67 1457.48 2123.03 1457.48 M2123.03 1453.77 Q2128.84 1453.77 2131.9 1458.38 Q2134.98 1462.96 2134.98 1471.71 Q2134.98 1480.44 2131.9 1485.04 Q2128.84 1489.63 2123.03 1489.63 Q2117.22 1489.63 2114.14 1485.04 Q2111.09 1480.44 2111.09 1471.71 Q2111.09 1462.96 2114.14 1458.38 Q2117.22 1453.77 2123.03 1453.77 Z" fill="#000000" fill-rule="nonzero" fill-opacity="1" /><path clip-path="url(#clip120)" d="M2147.65 1436.78 L2138.06 1451.77 L2147.65 1451.77 L2147.65 1436.78 M2146.66 1433.47 L2151.43 1433.47 L2151.43 1451.77 L2155.44 1451.77 L2155.44 1454.93 L2151.43 1454.93 L2151.43 1461.55 L2147.65 1461.55 L2147.65 1454.93 L2134.98 1454.93 L2134.98 1451.26 L2146.66 1433.47 Z" fill="#000000" fill-rule="nonzero" fill-opacity="1" /><path clip-path="url(#clip120)" d="M1018.58 1526.67 L1058.78 1526.67 L1058.78 1532.08 L1041.91 1532.08 L1041.91 1574.19 L1035.45 1574.19 L1035.45 1532.08 L1018.58 1532.08 L1018.58 1526.67 Z" fill="#000000" fill-rule="nonzero" fill-opacity="1" /><path clip-path="url(#clip120)" d="M1067.47 1542.64 Q1062.76 1542.64 1060.02 1546.34 Q1057.28 1550 1057.28 1556.39 Q1057.28 1562.79 1059.99 1566.48 Q1062.73 1570.14 1067.47 1570.14 Q1072.15 1570.14 1074.89 1566.45 Q1077.62 1562.76 1077.62 1556.39 Q1077.62 1550.06 1074.89 1546.37 Q1072.15 1542.64 1067.47 1542.64 M1067.47 1537.68 Q1075.11 1537.68 1079.47 1542.64 Q1083.83 1547.61 1083.83 1556.39 Q1083.83 1565.15 1079.47 1570.14 Q1075.11 1575.11 1067.47 1575.11 Q1059.8 1575.11 1055.44 1570.14 Q1051.11 1565.15 1051.11 1556.39 Q1051.11 1547.61 1055.44 1542.64 Q1059.8 1537.68 1067.47 1537.68 Z" fill="#000000" fill-rule="nonzero" fill-opacity="1" /><path clip-path="url(#clip120)" d="M1099.33 1528.42 L1099.33 1538.54 L1111.39 1538.54 L1111.39 1543.09 L1099.33 1543.09 L1099.33 1562.44 Q1099.33 1566.8 1100.51 1568.04 Q1101.72 1569.28 1105.38 1569.28 L1111.39 1569.28 L1111.39 1574.19 L1105.38 1574.19 Q1098.6 1574.19 1096.02 1571.67 Q1093.44 1569.12 1093.44 1562.44 L1093.44 1543.09 L1089.14 1543.09 L1089.14 1538.54 L1093.44 1538.54 L1093.44 1528.42 L1099.33 1528.42 Z" fill="#000000" fill-rule="nonzero" fill-opacity="1" /><path clip-path="url(#clip120)" d="M1135.3 1556.27 Q1128.2 1556.27 1125.46 1557.89 Q1122.72 1559.51 1122.72 1563.43 Q1122.72 1566.55 1124.76 1568.39 Q1126.83 1570.21 1130.36 1570.21 Q1135.23 1570.21 1138.16 1566.77 Q1141.12 1563.3 1141.12 1557.57 L1141.12 1556.27 L1135.3 1556.27 M1146.98 1553.85 L1146.98 1574.19 L1141.12 1574.19 L1141.12 1568.77 Q1139.12 1572.02 1136.12 1573.58 Q1133.13 1575.11 1128.8 1575.11 Q1123.33 1575.11 1120.08 1572.05 Q1116.87 1568.97 1116.87 1563.81 Q1116.87 1557.79 1120.88 1554.74 Q1124.92 1551.68 1132.91 1551.68 L1141.12 1551.68 L1141.12 1551.11 Q1141.12 1547.07 1138.45 1544.87 Q1135.81 1542.64 1131 1542.64 Q1127.94 1542.64 1125.05 1543.38 Q1122.15 1544.11 1119.48 1545.57 L1119.48 1540.16 Q1122.69 1538.92 1125.72 1538.31 Q1128.74 1537.68 1131.6 1537.68 Q1139.34 1537.68 1143.16 1541.69 Q1146.98 1545.7 1146.98 1553.85 Z" fill="#000000" fill-rule="nonzero" fill-opacity="1" /><path clip-path="url(#clip120)" d="M1159.04 1524.66 L1164.9 1524.66 L1164.9 1574.19 L1159.04 1574.19 L1159.04 1524.66 Z" fill="#000000" fill-rule="nonzero" fill-opacity="1" /><path clip-path="url(#clip120)" d="M1223.52 1539.91 L1223.52 1545.38 Q1221.04 1544.01 1218.53 1543.34 Q1216.05 1542.64 1213.5 1542.64 Q1207.8 1542.64 1204.65 1546.27 Q1201.5 1549.87 1201.5 1556.39 Q1201.5 1562.92 1204.65 1566.55 Q1207.8 1570.14 1213.5 1570.14 Q1216.05 1570.14 1218.53 1569.47 Q1221.04 1568.77 1223.52 1567.41 L1223.52 1572.82 Q1221.07 1573.96 1218.43 1574.54 Q1215.82 1575.11 1212.86 1575.11 Q1204.81 1575.11 1200.07 1570.05 Q1195.32 1564.99 1195.32 1556.39 Q1195.32 1547.67 1200.1 1542.68 Q1204.91 1537.68 1213.24 1537.68 Q1215.95 1537.68 1218.53 1538.25 Q1221.11 1538.79 1223.52 1539.91 Z" fill="#000000" fill-rule="nonzero" fill-opacity="1" /><path clip-path="url(#clip120)" d="M1264.2 1554.9 L1264.2 1557.76 L1237.27 1557.76 Q1237.66 1563.81 1240.9 1566.99 Q1244.18 1570.14 1250.01 1570.14 Q1253.38 1570.14 1256.53 1569.32 Q1259.71 1568.49 1262.83 1566.83 L1262.83 1572.37 Q1259.68 1573.71 1256.37 1574.41 Q1253.06 1575.11 1249.66 1575.11 Q1241.13 1575.11 1236.13 1570.14 Q1231.16 1565.18 1231.16 1556.71 Q1231.16 1547.96 1235.87 1542.83 Q1240.62 1537.68 1248.64 1537.68 Q1255.83 1537.68 1260 1542.33 Q1264.2 1546.94 1264.2 1554.9 M1258.35 1553.18 Q1258.28 1548.37 1255.64 1545.51 Q1253.03 1542.64 1248.7 1542.64 Q1243.8 1542.64 1240.84 1545.41 Q1237.91 1548.18 1237.47 1553.21 L1258.35 1553.18 Z" fill="#000000" fill-rule="nonzero" fill-opacity="1" /><path clip-path="url(#clip120)" d="M1273.81 1524.66 L1279.67 1524.66 L1279.67 1574.19 L1273.81 1574.19 L1273.81 1524.66 Z" fill="#000000" fill-rule="nonzero" fill-opacity="1" /><path clip-path="url(#clip120)" d="M1291.92 1524.66 L1297.78 1524.66 L1297.78 1574.19 L1291.92 1574.19 L1291.92 1524.66 Z" fill="#000000" fill-rule="nonzero" fill-opacity="1" /><path clip-path="url(#clip120)" d="M1356.41 1539.91 L1356.41 1545.38 Q1353.93 1544.01 1351.41 1543.34 Q1348.93 1542.64 1346.38 1542.64 Q1340.69 1542.64 1337.53 1546.27 Q1334.38 1549.87 1334.38 1556.39 Q1334.38 1562.92 1337.53 1566.55 Q1340.69 1570.14 1346.38 1570.14 Q1348.93 1570.14 1351.41 1569.47 Q1353.93 1568.77 1356.41 1567.41 L1356.41 1572.82 Q1353.96 1573.96 1351.32 1574.54 Q1348.71 1575.11 1345.75 1575.11 Q1337.69 1575.11 1332.95 1570.05 Q1328.21 1564.99 1328.21 1556.39 Q1328.21 1547.67 1332.98 1542.68 Q1337.79 1537.68 1346.13 1537.68 Q1348.83 1537.68 1351.41 1538.25 Q1353.99 1538.79 1356.41 1539.91 Z" fill="#000000" fill-rule="nonzero" fill-opacity="1" /><path clip-path="url(#clip120)" d="M1380.41 1542.64 Q1375.7 1542.64 1372.96 1546.34 Q1370.22 1550 1370.22 1556.39 Q1370.22 1562.79 1372.93 1566.48 Q1375.67 1570.14 1380.41 1570.14 Q1385.09 1570.14 1387.82 1566.45 Q1390.56 1562.76 1390.56 1556.39 Q1390.56 1550.06 1387.82 1546.37 Q1385.09 1542.64 1380.41 1542.64 M1380.41 1537.68 Q1388.05 1537.68 1392.41 1542.64 Q1396.77 1547.61 1396.77 1556.39 Q1396.77 1565.15 1392.41 1570.14 Q1388.05 1575.11 1380.41 1575.11 Q1372.74 1575.11 1368.38 1570.14 Q1364.05 1565.15 1364.05 1556.39 Q1364.05 1547.61 1368.38 1542.64 Q1372.74 1537.68 1380.41 1537.68 Z" fill="#000000" fill-rule="nonzero" fill-opacity="1" /><path clip-path="url(#clip120)" d="M1405.87 1560.12 L1405.87 1538.54 L1411.73 1538.54 L1411.73 1559.89 Q1411.73 1564.96 1413.7 1567.5 Q1415.67 1570.02 1419.62 1570.02 Q1424.36 1570.02 1427.1 1566.99 Q1429.87 1563.97 1429.87 1558.75 L1429.87 1538.54 L1435.73 1538.54 L1435.73 1574.19 L1429.87 1574.19 L1429.87 1568.71 Q1427.74 1571.96 1424.9 1573.55 Q1422.1 1575.11 1418.38 1575.11 Q1412.24 1575.11 1409.05 1571.29 Q1405.87 1567.47 1405.87 1560.12 M1420.61 1537.68 L1420.61 1537.68 Z" fill="#000000" fill-rule="nonzero" fill-opacity="1" /><path clip-path="url(#clip120)" d="M1477.42 1552.67 L1477.42 1574.19 L1471.56 1574.19 L1471.56 1552.86 Q1471.56 1547.8 1469.59 1545.29 Q1467.62 1542.77 1463.67 1542.77 Q1458.93 1542.77 1456.19 1545.79 Q1453.45 1548.82 1453.45 1554.04 L1453.45 1574.19 L1447.57 1574.19 L1447.57 1538.54 L1453.45 1538.54 L1453.45 1544.08 Q1455.55 1540.86 1458.39 1539.27 Q1461.25 1537.68 1464.98 1537.68 Q1471.12 1537.68 1474.27 1541.5 Q1477.42 1545.29 1477.42 1552.67 Z" fill="#000000" fill-rule="nonzero" fill-opacity="1" /><path clip-path="url(#clip120)" d="M1494.9 1528.42 L1494.9 1538.54 L1506.96 1538.54 L1506.96 1543.09 L1494.9 1543.09 L1494.9 1562.44 Q1494.9 1566.8 1496.07 1568.04 Q1497.28 1569.28 1500.94 1569.28 L1506.96 1569.28 L1506.96 1574.19 L1500.94 1574.19 Q1494.16 1574.19 1491.58 1571.67 Q1489.01 1569.12 1489.01 1562.44 L1489.01 1543.09 L1484.71 1543.09 L1484.71 1538.54 L1489.01 1538.54 L1489.01 1528.42 L1494.9 1528.42 Z" fill="#000000" fill-rule="nonzero" fill-opacity="1" /><path clip-path="url(#clip120)" d="M1537.39 1539.59 L1537.39 1545.13 Q1534.9 1543.85 1532.23 1543.22 Q1529.56 1542.58 1526.69 1542.58 Q1522.33 1542.58 1520.14 1543.92 Q1517.97 1545.25 1517.97 1547.93 Q1517.97 1549.96 1519.53 1551.14 Q1521.09 1552.29 1525.8 1553.34 L1527.81 1553.78 Q1534.04 1555.12 1536.65 1557.57 Q1539.3 1559.99 1539.3 1564.35 Q1539.3 1569.32 1535.35 1572.21 Q1531.43 1575.11 1524.56 1575.11 Q1521.69 1575.11 1518.58 1574.54 Q1515.49 1573.99 1512.05 1572.88 L1512.05 1566.83 Q1515.3 1568.52 1518.45 1569.38 Q1521.6 1570.21 1524.69 1570.21 Q1528.82 1570.21 1531.05 1568.81 Q1533.28 1567.37 1533.28 1564.8 Q1533.28 1562.41 1531.66 1561.14 Q1530.07 1559.86 1524.62 1558.68 L1522.59 1558.21 Q1517.14 1557.06 1514.72 1554.71 Q1512.31 1552.32 1512.31 1548.18 Q1512.31 1543.15 1515.87 1540.42 Q1519.43 1537.68 1525.99 1537.68 Q1529.24 1537.68 1532.1 1538.16 Q1534.97 1538.63 1537.39 1539.59 Z" fill="#000000" fill-rule="nonzero" fill-opacity="1" /><polyline clip-path="url(#clip120)" style="stroke:#000000; stroke-linecap:round; stroke-linejoin:round; stroke-width:4; stroke-opacity:1; fill:none" points="205.121,1410.9 205.121,47.2441 "/>
<polyline clip-path="url(#clip120)" style="stroke:#000000; stroke-linecap:round; stroke-linejoin:round; stroke-width:4; stroke-opacity:1; fill:none" points="205.121,1410.9 224.019,1410.9 "/>
<polyline clip-path="url(#clip120)" style="stroke:#000000; stroke-linecap:round; stroke-linejoin:round; stroke-width:4; stroke-opacity:1; fill:none" points="205.121,1100.98 224.019,1100.98 "/>
<polyline clip-path="url(#clip120)" style="stroke:#000000; stroke-linecap:round; stroke-linejoin:round; stroke-width:4; stroke-opacity:1; fill:none" points="205.121,791.055 224.019,791.055 "/>
<polyline clip-path="url(#clip120)" style="stroke:#000000; stroke-linecap:round; stroke-linejoin:round; stroke-width:4; stroke-opacity:1; fill:none" points="205.121,481.134 224.019,481.134 "/>
<polyline clip-path="url(#clip120)" style="stroke:#000000; stroke-linecap:round; stroke-linejoin:round; stroke-width:4; stroke-opacity:1; fill:none" points="205.121,171.213 224.019,171.213 "/>
<path clip-path="url(#clip120)" d="M157.177 1396.7 Q153.566 1396.7 151.737 1400.26 Q149.931 1403.8 149.931 1410.93 Q149.931 1418.04 151.737 1421.6 Q153.566 1425.14 157.177 1425.14 Q160.811 1425.14 162.616 1421.6 Q164.445 1418.04 164.445 1410.93 Q164.445 1403.8 162.616 1400.26 Q160.811 1396.7 157.177 1396.7 M157.177 1392.99 Q162.987 1392.99 166.042 1397.6 Q169.121 1402.18 169.121 1410.93 Q169.121 1419.66 166.042 1424.26 Q162.987 1428.85 157.177 1428.85 Q151.366 1428.85 148.288 1424.26 Q145.232 1419.66 145.232 1410.93 Q145.232 1402.18 148.288 1397.6 Q151.366 1392.99 157.177 1392.99 Z" fill="#000000" fill-rule="nonzero" fill-opacity="1" /><path clip-path="url(#clip120)" d="M117.825 1114.32 L125.464 1114.32 L125.464 1087.95 L117.154 1089.62 L117.154 1085.36 L125.418 1083.7 L130.093 1083.7 L130.093 1114.32 L137.732 1114.32 L137.732 1118.26 L117.825 1118.26 L117.825 1114.32 Z" fill="#000000" fill-rule="nonzero" fill-opacity="1" /><path clip-path="url(#clip120)" d="M157.177 1086.77 Q153.566 1086.77 151.737 1090.34 Q149.931 1093.88 149.931 1101.01 Q149.931 1108.12 151.737 1111.68 Q153.566 1115.22 157.177 1115.22 Q160.811 1115.22 162.616 1111.68 Q164.445 1108.12 164.445 1101.01 Q164.445 1093.88 162.616 1090.34 Q160.811 1086.77 157.177 1086.77 M157.177 1083.07 Q162.987 1083.07 166.042 1087.68 Q169.121 1092.26 169.121 1101.01 Q169.121 1109.74 166.042 1114.34 Q162.987 1118.93 157.177 1118.93 Q151.366 1118.93 148.288 1114.34 Q145.232 1109.74 145.232 1101.01 Q145.232 1092.26 148.288 1087.68 Q151.366 1083.07 157.177 1083.07 Z" fill="#000000" fill-rule="nonzero" fill-opacity="1" /><path clip-path="url(#clip120)" d="M121.043 804.399 L137.362 804.399 L137.362 808.335 L115.418 808.335 L115.418 804.399 Q118.08 801.645 122.663 797.015 Q127.269 792.362 128.45 791.02 Q130.695 788.497 131.575 786.761 Q132.478 785.001 132.478 783.312 Q132.478 780.557 130.533 778.821 Q128.612 777.085 125.51 777.085 Q123.311 777.085 120.857 777.849 Q118.427 778.613 115.649 780.163 L115.649 775.441 Q118.473 774.307 120.927 773.728 Q123.38 773.15 125.418 773.15 Q130.788 773.15 133.982 775.835 Q137.177 778.52 137.177 783.011 Q137.177 785.14 136.367 787.062 Q135.579 788.96 133.473 791.552 Q132.894 792.224 129.792 795.441 Q126.691 798.636 121.043 804.399 Z" fill="#000000" fill-rule="nonzero" fill-opacity="1" /><path clip-path="url(#clip120)" d="M157.177 776.853 Q153.566 776.853 151.737 780.418 Q149.931 783.96 149.931 791.089 Q149.931 798.196 151.737 801.761 Q153.566 805.302 157.177 805.302 Q160.811 805.302 162.616 801.761 Q164.445 798.196 164.445 791.089 Q164.445 783.96 162.616 780.418 Q160.811 776.853 157.177 776.853 M157.177 773.15 Q162.987 773.15 166.042 777.756 Q169.121 782.339 169.121 791.089 Q169.121 799.816 166.042 804.423 Q162.987 809.006 157.177 809.006 Q151.366 809.006 148.288 804.423 Q145.232 799.816 145.232 791.089 Q145.232 782.339 148.288 777.756 Q151.366 773.15 157.177 773.15 Z" fill="#000000" fill-rule="nonzero" fill-opacity="1" /><path clip-path="url(#clip120)" d="M131.181 479.779 Q134.538 480.497 136.413 482.765 Q138.311 485.034 138.311 488.367 Q138.311 493.483 134.792 496.284 Q131.274 499.085 124.793 499.085 Q122.617 499.085 120.302 498.645 Q118.01 498.228 115.556 497.372 L115.556 492.858 Q117.501 493.992 119.816 494.571 Q122.13 495.15 124.654 495.15 Q129.052 495.15 131.343 493.414 Q133.658 491.677 133.658 488.367 Q133.658 485.312 131.505 483.599 Q129.376 481.863 125.556 481.863 L121.529 481.863 L121.529 478.02 L125.742 478.02 Q129.191 478.02 131.019 476.654 Q132.848 475.266 132.848 472.673 Q132.848 470.011 130.95 468.599 Q129.075 467.164 125.556 467.164 Q123.635 467.164 121.436 467.58 Q119.237 467.997 116.598 468.877 L116.598 464.71 Q119.26 463.969 121.575 463.599 Q123.913 463.229 125.973 463.229 Q131.297 463.229 134.399 465.659 Q137.501 468.066 137.501 472.187 Q137.501 475.057 135.857 477.048 Q134.214 479.015 131.181 479.779 Z" fill="#000000" fill-rule="nonzero" fill-opacity="1" /><path clip-path="url(#clip120)" d="M157.177 466.932 Q153.566 466.932 151.737 470.497 Q149.931 474.039 149.931 481.168 Q149.931 488.275 151.737 491.84 Q153.566 495.381 157.177 495.381 Q160.811 495.381 162.616 491.84 Q164.445 488.275 164.445 481.168 Q164.445 474.039 162.616 470.497 Q160.811 466.932 157.177 466.932 M157.177 463.229 Q162.987 463.229 166.042 467.835 Q169.121 472.418 169.121 481.168 Q169.121 489.895 166.042 494.502 Q162.987 499.085 157.177 499.085 Q151.366 499.085 148.288 494.502 Q145.232 489.895 145.232 481.168 Q145.232 472.418 148.288 467.835 Q151.366 463.229 157.177 463.229 Z" fill="#000000" fill-rule="nonzero" fill-opacity="1" /><path clip-path="url(#clip120)" d="M129.862 158.007 L118.056 176.456 L129.862 176.456 L129.862 158.007 M128.635 153.933 L134.515 153.933 L134.515 176.456 L139.445 176.456 L139.445 180.344 L134.515 180.344 L134.515 188.493 L129.862 188.493 L129.862 180.344 L114.26 180.344 L114.26 175.831 L128.635 153.933 Z" fill="#000000" fill-rule="nonzero" fill-opacity="1" /><path clip-path="url(#clip120)" d="M157.177 157.011 Q153.566 157.011 151.737 160.576 Q149.931 164.118 149.931 171.247 Q149.931 178.354 151.737 181.918 Q153.566 185.46 157.177 185.46 Q160.811 185.46 162.616 181.918 Q164.445 178.354 164.445 171.247 Q164.445 164.118 162.616 160.576 Q160.811 157.011 157.177 157.011 M157.177 153.308 Q162.987 153.308 166.042 157.914 Q169.121 162.497 169.121 171.247 Q169.121 179.974 166.042 184.58 Q162.987 189.164 157.177 189.164 Q151.366 189.164 148.288 184.58 Q145.232 179.974 145.232 171.247 Q145.232 162.497 148.288 157.914 Q151.366 153.308 157.177 153.308 Z" fill="#000000" fill-rule="nonzero" fill-opacity="1" /><path clip-path="url(#clip120)" d="M16.4842 1011.95 L16.4842 1003.29 L56.238 982.219 L16.4842 982.219 L16.4842 975.98 L64.0042 975.98 L64.0042 984.638 L24.2503 1005.71 L64.0042 1005.71 L64.0042 1011.95 L16.4842 1011.95 Z" fill="#000000" fill-rule="nonzero" fill-opacity="1" /><path clip-path="url(#clip120)" d="M49.9359 964.045 L28.3562 964.045 L28.3562 958.188 L49.7131 958.188 Q54.7739 958.188 57.3202 956.215 Q59.8346 954.241 59.8346 950.295 Q59.8346 945.552 56.8109 942.815 Q53.7872 940.046 48.5673 940.046 L28.3562 940.046 L28.3562 934.189 L64.0042 934.189 L64.0042 940.046 L58.5296 940.046 Q61.7762 942.178 63.3676 945.011 Q64.9272 947.812 64.9272 951.536 Q64.9272 957.679 61.1078 960.862 Q57.2883 964.045 49.9359 964.045 M27.4968 949.308 L27.4968 949.308 Z" fill="#000000" fill-rule="nonzero" fill-opacity="1" /><path clip-path="url(#clip120)" d="M35.1993 894.372 Q31.2526 892.176 29.3747 889.12 Q27.4968 886.065 27.4968 881.927 Q27.4968 876.357 31.4117 873.333 Q35.2948 870.309 42.4881 870.309 L64.0042 870.309 L64.0042 876.198 L42.679 876.198 Q37.5546 876.198 35.072 878.012 Q32.5894 879.826 32.5894 883.55 Q32.5894 888.102 35.6131 890.743 Q38.6368 893.385 43.8567 893.385 L64.0042 893.385 L64.0042 899.273 L42.679 899.273 Q37.5228 899.273 35.072 901.088 Q32.5894 902.902 32.5894 906.689 Q32.5894 911.177 35.6449 913.819 Q38.6686 916.461 43.8567 916.461 L64.0042 916.461 L64.0042 922.349 L28.3562 922.349 L28.3562 916.461 L33.8944 916.461 Q30.616 914.456 29.0564 911.655 Q27.4968 908.854 27.4968 905.003 Q27.4968 901.12 29.4702 898.414 Q31.4436 895.677 35.1993 894.372 Z" fill="#000000" fill-rule="nonzero" fill-opacity="1" /><path clip-path="url(#clip120)" d="M46.212 833.038 Q39.7508 833.038 36.0905 835.712 Q32.3984 838.354 32.3984 843.001 Q32.3984 847.648 36.0905 850.321 Q39.7508 852.963 46.212 852.963 Q52.6732 852.963 56.3653 850.321 Q60.0256 847.648 60.0256 843.001 Q60.0256 838.354 56.3653 835.712 Q52.6732 833.038 46.212 833.038 M33.7671 852.963 Q30.5842 851.117 29.0564 848.316 Q27.4968 845.483 27.4968 841.568 Q27.4968 835.075 32.6531 831.033 Q37.8093 826.959 46.212 826.959 Q54.6147 826.959 59.771 831.033 Q64.9272 835.075 64.9272 841.568 Q64.9272 845.483 63.3994 848.316 Q61.8398 851.117 58.657 852.963 L64.0042 852.963 L64.0042 858.851 L14.479 858.851 L14.479 852.963 L33.7671 852.963 Z" fill="#000000" fill-rule="nonzero" fill-opacity="1" /><path clip-path="url(#clip120)" d="M44.7161 786.76 L47.5806 786.76 L47.5806 813.687 Q53.6281 813.305 56.8109 810.058 Q59.9619 806.78 59.9619 800.955 Q59.9619 797.581 59.1344 794.43 Q58.3069 791.247 56.6518 788.128 L62.1899 788.128 Q63.5267 791.279 64.227 794.589 Q64.9272 797.9 64.9272 801.305 Q64.9272 809.835 59.9619 814.832 Q54.9967 819.798 46.5303 819.798 Q37.7774 819.798 32.6531 815.087 Q27.4968 810.345 27.4968 802.324 Q27.4968 795.13 32.1438 790.961 Q36.7589 786.76 44.7161 786.76 M42.9973 792.616 Q38.1912 792.68 35.3266 795.321 Q32.4621 797.931 32.4621 802.26 Q32.4621 807.162 35.2312 810.122 Q38.0002 813.05 43.0292 813.496 L42.9973 792.616 Z" fill="#000000" fill-rule="nonzero" fill-opacity="1" /><path clip-path="url(#clip120)" d="M33.8307 756.491 Q33.2578 757.477 33.0032 758.655 Q32.7167 759.801 32.7167 761.201 Q32.7167 766.167 35.9632 768.84 Q39.1779 771.482 45.2253 771.482 L64.0042 771.482 L64.0042 777.37 L28.3562 777.37 L28.3562 771.482 L33.8944 771.482 Q30.6479 769.636 29.0883 766.676 Q27.4968 763.716 27.4968 759.483 Q27.4968 758.878 27.5923 758.146 Q27.656 757.414 27.8151 756.522 L33.8307 756.491 Z" fill="#000000" fill-rule="nonzero" fill-opacity="1" /><path clip-path="url(#clip120)" d="M32.4621 715.814 Q32.4621 720.524 36.1542 723.262 Q39.8145 725.999 46.212 725.999 Q52.6095 725.999 56.3017 723.293 Q59.9619 720.556 59.9619 715.814 Q59.9619 711.135 56.2698 708.398 Q52.5777 705.66 46.212 705.66 Q39.8781 705.66 36.186 708.398 Q32.4621 711.135 32.4621 715.814 M27.4968 715.814 Q27.4968 708.175 32.4621 703.814 Q37.4273 699.454 46.212 699.454 Q54.9649 699.454 59.9619 703.814 Q64.9272 708.175 64.9272 715.814 Q64.9272 723.484 59.9619 727.845 Q54.9649 732.174 46.212 732.174 Q37.4273 732.174 32.4621 727.845 Q27.4968 723.484 27.4968 715.814 Z" fill="#000000" fill-rule="nonzero" fill-opacity="1" /><path clip-path="url(#clip120)" d="M14.479 671.699 L19.3487 671.699 L19.3487 677.301 Q19.3487 680.452 20.6219 681.694 Q21.895 682.903 25.2052 682.903 L28.3562 682.903 L28.3562 673.259 L32.9077 673.259 L32.9077 682.903 L64.0042 682.903 L64.0042 688.791 L32.9077 688.791 L32.9077 694.393 L28.3562 694.393 L28.3562 688.791 L25.8736 688.791 Q19.9216 688.791 17.2162 686.022 Q14.479 683.253 14.479 677.238 L14.479 671.699 Z" fill="#000000" fill-rule="nonzero" fill-opacity="1" /><path clip-path="url(#clip120)" d="M29.7248 620.424 L35.1993 620.424 Q33.8307 622.906 33.1623 625.421 Q32.4621 627.903 32.4621 630.45 Q32.4621 636.147 36.0905 639.298 Q39.6872 642.449 46.212 642.449 Q52.7369 642.449 56.3653 639.298 Q59.9619 636.147 59.9619 630.45 Q59.9619 627.903 59.2935 625.421 Q58.5933 622.906 57.2247 620.424 L62.6355 620.424 Q63.7814 622.874 64.3543 625.516 Q64.9272 628.126 64.9272 631.086 Q64.9272 639.139 59.8664 643.881 Q54.8057 648.624 46.212 648.624 Q37.491 648.624 32.4939 643.849 Q27.4968 639.043 27.4968 630.704 Q27.4968 627.999 28.0697 625.421 Q28.6108 622.843 29.7248 620.424 Z" fill="#000000" fill-rule="nonzero" fill-opacity="1" /><path clip-path="url(#clip120)" d="M14.479 610.239 L14.479 604.382 L64.0042 604.382 L64.0042 610.239 L14.479 610.239 Z" fill="#000000" fill-rule="nonzero" fill-opacity="1" /><path clip-path="url(#clip120)" d="M32.4621 578.315 Q32.4621 583.025 36.1542 585.762 Q39.8145 588.5 46.212 588.5 Q52.6095 588.5 56.3017 585.794 Q59.9619 583.057 59.9619 578.315 Q59.9619 573.636 56.2698 570.898 Q52.5777 568.161 46.212 568.161 Q39.8781 568.161 36.186 570.898 Q32.4621 573.636 32.4621 578.315 M27.4968 578.315 Q27.4968 570.676 32.4621 566.315 Q37.4273 561.955 46.212 561.955 Q54.9649 561.955 59.9619 566.315 Q64.9272 570.676 64.9272 578.315 Q64.9272 585.985 59.9619 590.346 Q54.9649 594.674 46.212 594.674 Q37.4273 594.674 32.4621 590.346 Q27.4968 585.985 27.4968 578.315 Z" fill="#000000" fill-rule="nonzero" fill-opacity="1" /><path clip-path="url(#clip120)" d="M42.4881 522.615 L64.0042 522.615 L64.0042 528.471 L42.679 528.471 Q37.6183 528.471 35.1038 530.444 Q32.5894 532.418 32.5894 536.365 Q32.5894 541.107 35.6131 543.844 Q38.6368 546.581 43.8567 546.581 L64.0042 546.581 L64.0042 552.47 L28.3562 552.47 L28.3562 546.581 L33.8944 546.581 Q30.6797 544.481 29.0883 541.648 Q27.4968 538.783 27.4968 535.06 Q27.4968 528.917 31.3163 525.766 Q35.1038 522.615 42.4881 522.615 Z" fill="#000000" fill-rule="nonzero" fill-opacity="1" /><path clip-path="url(#clip120)" d="M44.7161 480.442 L47.5806 480.442 L47.5806 507.369 Q53.6281 506.987 56.8109 503.74 Q59.9619 500.462 59.9619 494.637 Q59.9619 491.263 59.1344 488.112 Q58.3069 484.93 56.6518 481.81 L62.1899 481.81 Q63.5267 484.961 64.227 488.272 Q64.9272 491.582 64.9272 494.987 Q64.9272 503.517 59.9619 508.515 Q54.9967 513.48 46.5303 513.48 Q37.7774 513.48 32.6531 508.769 Q27.4968 504.027 27.4968 496.006 Q27.4968 488.813 32.1438 484.643 Q36.7589 480.442 44.7161 480.442 M42.9973 486.298 Q38.1912 486.362 35.3266 489.004 Q32.4621 491.614 32.4621 495.942 Q32.4621 500.844 35.2312 503.804 Q38.0002 506.732 43.0292 507.178 L42.9973 486.298 Z" fill="#000000" fill-rule="nonzero" fill-opacity="1" /><path clip-path="url(#clip120)" d="M29.4065 448.104 L34.9447 448.104 Q33.6716 450.587 33.035 453.26 Q32.3984 455.934 32.3984 458.798 Q32.3984 463.159 33.7352 465.355 Q35.072 467.519 37.7456 467.519 Q39.7826 467.519 40.9603 465.96 Q42.1061 464.4 43.1565 459.69 L43.6021 457.684 Q44.9389 451.446 47.3897 448.836 Q49.8086 446.194 54.1691 446.194 Q59.1344 446.194 62.0308 450.141 Q64.9272 454.056 64.9272 460.931 Q64.9272 463.795 64.3543 466.915 Q63.8132 470.002 62.6992 473.44 L56.6518 473.44 Q58.3387 470.193 59.198 467.042 Q60.0256 463.891 60.0256 460.804 Q60.0256 456.666 58.6251 454.438 Q57.1929 452.21 54.6147 452.21 Q52.2276 452.21 50.9545 453.833 Q49.6813 455.425 48.5037 460.867 L48.0262 462.904 Q46.8804 468.347 44.5251 470.766 Q42.138 473.185 38.0002 473.185 Q32.9713 473.185 30.2341 469.62 Q27.4968 466.055 27.4968 459.499 Q27.4968 456.252 27.9743 453.388 Q28.4517 450.523 29.4065 448.104 Z" fill="#000000" fill-rule="nonzero" fill-opacity="1" /><path clip-path="url(#clip121)" d="M323.245 47.2441 L323.245 1410.9 L381.166 1410.9 L381.166 47.2441 L323.245 47.2441 L323.245 47.2441  Z" fill="#009af9" fill-rule="evenodd" fill-opacity="1"/>
<polyline clip-path="url(#clip121)" style="stroke:#000000; stroke-linecap:round; stroke-linejoin:round; stroke-width:4; stroke-opacity:1; fill:none" points="323.245,47.2441 323.245,1410.9 381.166,1410.9 381.166,47.2441 323.245,47.2441 "/>
<path clip-path="url(#clip121)" d="M381.166 698.078 L381.166 1410.9 L439.086 1410.9 L439.086 698.078 L381.166 698.078 L381.166 698.078  Z" fill="#009af9" fill-rule="evenodd" fill-opacity="1"/>
<polyline clip-path="url(#clip121)" style="stroke:#000000; stroke-linecap:round; stroke-linejoin:round; stroke-width:4; stroke-opacity:1; fill:none" points="381.166,698.078 381.166,1410.9 439.086,1410.9 439.086,698.078 381.166,698.078 "/>
<path clip-path="url(#clip121)" d="M439.086 1100.98 L439.086 1410.9 L497.007 1410.9 L497.007 1100.98 L439.086 1100.98 L439.086 1100.98  Z" fill="#009af9" fill-rule="evenodd" fill-opacity="1"/>
<polyline clip-path="url(#clip121)" style="stroke:#000000; stroke-linecap:round; stroke-linejoin:round; stroke-width:4; stroke-opacity:1; fill:none" points="439.086,1100.98 439.086,1410.9 497.007,1410.9 497.007,1100.98 439.086,1100.98 "/>
<path clip-path="url(#clip121)" d="M497.007 1162.96 L497.007 1410.9 L554.928 1410.9 L554.928 1162.96 L497.007 1162.96 L497.007 1162.96  Z" fill="#009af9" fill-rule="evenodd" fill-opacity="1"/>
<polyline clip-path="url(#clip121)" style="stroke:#000000; stroke-linecap:round; stroke-linejoin:round; stroke-width:4; stroke-opacity:1; fill:none" points="497.007,1162.96 497.007,1410.9 554.928,1410.9 554.928,1162.96 497.007,1162.96 "/>
<path clip-path="url(#clip121)" d="M554.928 1255.94 L554.928 1410.9 L612.849 1410.9 L612.849 1255.94 L554.928 1255.94 L554.928 1255.94  Z" fill="#009af9" fill-rule="evenodd" fill-opacity="1"/>
<polyline clip-path="url(#clip121)" style="stroke:#000000; stroke-linecap:round; stroke-linejoin:round; stroke-width:4; stroke-opacity:1; fill:none" points="554.928,1255.94 554.928,1410.9 612.849,1410.9 612.849,1255.94 554.928,1255.94 "/>
<path clip-path="url(#clip121)" d="M612.849 1379.9 L612.849 1410.9 L670.77 1410.9 L670.77 1379.9 L612.849 1379.9 L612.849 1379.9  Z" fill="#009af9" fill-rule="evenodd" fill-opacity="1"/>
<polyline clip-path="url(#clip121)" style="stroke:#000000; stroke-linecap:round; stroke-linejoin:round; stroke-width:4; stroke-opacity:1; fill:none" points="612.849,1379.9 612.849,1410.9 670.77,1410.9 670.77,1379.9 612.849,1379.9 "/>
<path clip-path="url(#clip121)" d="M670.77 1379.9 L670.77 1410.9 L728.691 1410.9 L728.691 1379.9 L670.77 1379.9 L670.77 1379.9  Z" fill="#009af9" fill-rule="evenodd" fill-opacity="1"/>
<polyline clip-path="url(#clip121)" style="stroke:#000000; stroke-linecap:round; stroke-linejoin:round; stroke-width:4; stroke-opacity:1; fill:none" points="670.77,1379.9 670.77,1410.9 728.691,1410.9 728.691,1379.9 670.77,1379.9 "/>
<path clip-path="url(#clip121)" d="M728.691 1348.91 L728.691 1410.9 L786.611 1410.9 L786.611 1348.91 L728.691 1348.91 L728.691 1348.91  Z" fill="#009af9" fill-rule="evenodd" fill-opacity="1"/>
<polyline clip-path="url(#clip121)" style="stroke:#000000; stroke-linecap:round; stroke-linejoin:round; stroke-width:4; stroke-opacity:1; fill:none" points="728.691,1348.91 728.691,1410.9 786.611,1410.9 786.611,1348.91 728.691,1348.91 "/>
<path clip-path="url(#clip121)" d="M786.611 1348.91 L786.611 1410.9 L844.532 1410.9 L844.532 1348.91 L786.611 1348.91 L786.611 1348.91  Z" fill="#009af9" fill-rule="evenodd" fill-opacity="1"/>
<polyline clip-path="url(#clip121)" style="stroke:#000000; stroke-linecap:round; stroke-linejoin:round; stroke-width:4; stroke-opacity:1; fill:none" points="786.611,1348.91 786.611,1410.9 844.532,1410.9 844.532,1348.91 786.611,1348.91 "/>
<path clip-path="url(#clip121)" d="M844.532 1379.9 L844.532 1410.9 L902.453 1410.9 L902.453 1379.9 L844.532 1379.9 L844.532 1379.9  Z" fill="#009af9" fill-rule="evenodd" fill-opacity="1"/>
<polyline clip-path="url(#clip121)" style="stroke:#000000; stroke-linecap:round; stroke-linejoin:round; stroke-width:4; stroke-opacity:1; fill:none" points="844.532,1379.9 844.532,1410.9 902.453,1410.9 902.453,1379.9 844.532,1379.9 "/>
<path clip-path="url(#clip121)" d="M902.453 1410.9 L902.453 1410.9 L960.374 1410.9 L960.374 1410.9 L902.453 1410.9 L902.453 1410.9  Z" fill="#009af9" fill-rule="evenodd" fill-opacity="1"/>
<polyline clip-path="url(#clip121)" style="stroke:#000000; stroke-linecap:round; stroke-linejoin:round; stroke-width:4; stroke-opacity:1; fill:none" points="902.453,1410.9 902.453,1410.9 960.374,1410.9 902.453,1410.9 "/>
<path clip-path="url(#clip121)" d="M960.374 1379.9 L960.374 1410.9 L1018.29 1410.9 L1018.29 1379.9 L960.374 1379.9 L960.374 1379.9  Z" fill="#009af9" fill-rule="evenodd" fill-opacity="1"/>
<polyline clip-path="url(#clip121)" style="stroke:#000000; stroke-linecap:round; stroke-linejoin:round; stroke-width:4; stroke-opacity:1; fill:none" points="960.374,1379.9 960.374,1410.9 1018.29,1410.9 1018.29,1379.9 960.374,1379.9 "/>
<path clip-path="url(#clip121)" d="M1018.29 1379.9 L1018.29 1410.9 L1076.22 1410.9 L1076.22 1379.9 L1018.29 1379.9 L1018.29 1379.9  Z" fill="#009af9" fill-rule="evenodd" fill-opacity="1"/>
<polyline clip-path="url(#clip121)" style="stroke:#000000; stroke-linecap:round; stroke-linejoin:round; stroke-width:4; stroke-opacity:1; fill:none" points="1018.29,1379.9 1018.29,1410.9 1076.22,1410.9 1076.22,1379.9 1018.29,1379.9 "/>
<path clip-path="url(#clip121)" d="M1076.22 1410.9 L1076.22 1410.9 L1134.14 1410.9 L1134.14 1410.9 L1076.22 1410.9 L1076.22 1410.9  Z" fill="#009af9" fill-rule="evenodd" fill-opacity="1"/>
<polyline clip-path="url(#clip121)" style="stroke:#000000; stroke-linecap:round; stroke-linejoin:round; stroke-width:4; stroke-opacity:1; fill:none" points="1076.22,1410.9 1076.22,1410.9 1134.14,1410.9 1076.22,1410.9 "/>
<path clip-path="url(#clip121)" d="M1134.14 1410.9 L1134.14 1410.9 L1192.06 1410.9 L1192.06 1410.9 L1134.14 1410.9 L1134.14 1410.9  Z" fill="#009af9" fill-rule="evenodd" fill-opacity="1"/>
<polyline clip-path="url(#clip121)" style="stroke:#000000; stroke-linecap:round; stroke-linejoin:round; stroke-width:4; stroke-opacity:1; fill:none" points="1134.14,1410.9 1134.14,1410.9 1192.06,1410.9 1134.14,1410.9 "/>
<path clip-path="url(#clip121)" d="M1192.06 1410.9 L1192.06 1410.9 L1249.98 1410.9 L1249.98 1410.9 L1192.06 1410.9 L1192.06 1410.9  Z" fill="#009af9" fill-rule="evenodd" fill-opacity="1"/>
<polyline clip-path="url(#clip121)" style="stroke:#000000; stroke-linecap:round; stroke-linejoin:round; stroke-width:4; stroke-opacity:1; fill:none" points="1192.06,1410.9 1192.06,1410.9 1249.98,1410.9 1192.06,1410.9 "/>
<path clip-path="url(#clip121)" d="M1249.98 1410.9 L1249.98 1410.9 L1307.9 1410.9 L1307.9 1410.9 L1249.98 1410.9 L1249.98 1410.9  Z" fill="#009af9" fill-rule="evenodd" fill-opacity="1"/>
<polyline clip-path="url(#clip121)" style="stroke:#000000; stroke-linecap:round; stroke-linejoin:round; stroke-width:4; stroke-opacity:1; fill:none" points="1249.98,1410.9 1249.98,1410.9 1307.9,1410.9 1249.98,1410.9 "/>
<path clip-path="url(#clip121)" d="M1307.9 1410.9 L1307.9 1410.9 L1365.82 1410.9 L1365.82 1410.9 L1307.9 1410.9 L1307.9 1410.9  Z" fill="#009af9" fill-rule="evenodd" fill-opacity="1"/>
<polyline clip-path="url(#clip121)" style="stroke:#000000; stroke-linecap:round; stroke-linejoin:round; stroke-width:4; stroke-opacity:1; fill:none" points="1307.9,1410.9 1307.9,1410.9 1365.82,1410.9 1307.9,1410.9 "/>
<path clip-path="url(#clip121)" d="M1365.82 1410.9 L1365.82 1410.9 L1423.74 1410.9 L1423.74 1410.9 L1365.82 1410.9 L1365.82 1410.9  Z" fill="#009af9" fill-rule="evenodd" fill-opacity="1"/>
<polyline clip-path="url(#clip121)" style="stroke:#000000; stroke-linecap:round; stroke-linejoin:round; stroke-width:4; stroke-opacity:1; fill:none" points="1365.82,1410.9 1365.82,1410.9 1423.74,1410.9 1365.82,1410.9 "/>
<path clip-path="url(#clip121)" d="M1423.74 1410.9 L1423.74 1410.9 L1481.66 1410.9 L1481.66 1410.9 L1423.74 1410.9 L1423.74 1410.9  Z" fill="#009af9" fill-rule="evenodd" fill-opacity="1"/>
<polyline clip-path="url(#clip121)" style="stroke:#000000; stroke-linecap:round; stroke-linejoin:round; stroke-width:4; stroke-opacity:1; fill:none" points="1423.74,1410.9 1423.74,1410.9 1481.66,1410.9 1423.74,1410.9 "/>
<path clip-path="url(#clip121)" d="M1481.66 1410.9 L1481.66 1410.9 L1539.58 1410.9 L1539.58 1410.9 L1481.66 1410.9 L1481.66 1410.9  Z" fill="#009af9" fill-rule="evenodd" fill-opacity="1"/>
<polyline clip-path="url(#clip121)" style="stroke:#000000; stroke-linecap:round; stroke-linejoin:round; stroke-width:4; stroke-opacity:1; fill:none" points="1481.66,1410.9 1481.66,1410.9 1539.58,1410.9 1481.66,1410.9 "/>
<path clip-path="url(#clip121)" d="M1539.58 1410.9 L1539.58 1410.9 L1597.5 1410.9 L1597.5 1410.9 L1539.58 1410.9 L1539.58 1410.9  Z" fill="#009af9" fill-rule="evenodd" fill-opacity="1"/>
<polyline clip-path="url(#clip121)" style="stroke:#000000; stroke-linecap:round; stroke-linejoin:round; stroke-width:4; stroke-opacity:1; fill:none" points="1539.58,1410.9 1539.58,1410.9 1597.5,1410.9 1539.58,1410.9 "/>
<path clip-path="url(#clip121)" d="M1597.5 1410.9 L1597.5 1410.9 L1655.42 1410.9 L1655.42 1410.9 L1597.5 1410.9 L1597.5 1410.9  Z" fill="#009af9" fill-rule="evenodd" fill-opacity="1"/>
<polyline clip-path="url(#clip121)" style="stroke:#000000; stroke-linecap:round; stroke-linejoin:round; stroke-width:4; stroke-opacity:1; fill:none" points="1597.5,1410.9 1597.5,1410.9 1655.42,1410.9 1597.5,1410.9 "/>
<path clip-path="url(#clip121)" d="M1655.42 1410.9 L1655.42 1410.9 L1713.34 1410.9 L1713.34 1410.9 L1655.42 1410.9 L1655.42 1410.9  Z" fill="#009af9" fill-rule="evenodd" fill-opacity="1"/>
<polyline clip-path="url(#clip121)" style="stroke:#000000; stroke-linecap:round; stroke-linejoin:round; stroke-width:4; stroke-opacity:1; fill:none" points="1655.42,1410.9 1655.42,1410.9 1713.34,1410.9 1655.42,1410.9 "/>
<path clip-path="url(#clip121)" d="M1713.34 1410.9 L1713.34 1410.9 L1771.27 1410.9 L1771.27 1410.9 L1713.34 1410.9 L1713.34 1410.9  Z" fill="#009af9" fill-rule="evenodd" fill-opacity="1"/>
<polyline clip-path="url(#clip121)" style="stroke:#000000; stroke-linecap:round; stroke-linejoin:round; stroke-width:4; stroke-opacity:1; fill:none" points="1713.34,1410.9 1713.34,1410.9 1771.27,1410.9 1713.34,1410.9 "/>
<path clip-path="url(#clip121)" d="M1771.27 1410.9 L1771.27 1410.9 L1829.19 1410.9 L1829.19 1410.9 L1771.27 1410.9 L1771.27 1410.9  Z" fill="#009af9" fill-rule="evenodd" fill-opacity="1"/>
<polyline clip-path="url(#clip121)" style="stroke:#000000; stroke-linecap:round; stroke-linejoin:round; stroke-width:4; stroke-opacity:1; fill:none" points="1771.27,1410.9 1771.27,1410.9 1829.19,1410.9 1771.27,1410.9 "/>
<path clip-path="url(#clip121)" d="M1829.19 1410.9 L1829.19 1410.9 L1887.11 1410.9 L1887.11 1410.9 L1829.19 1410.9 L1829.19 1410.9  Z" fill="#009af9" fill-rule="evenodd" fill-opacity="1"/>
<polyline clip-path="url(#clip121)" style="stroke:#000000; stroke-linecap:round; stroke-linejoin:round; stroke-width:4; stroke-opacity:1; fill:none" points="1829.19,1410.9 1829.19,1410.9 1887.11,1410.9 1829.19,1410.9 "/>
<path clip-path="url(#clip121)" d="M1887.11 1410.9 L1887.11 1410.9 L1945.03 1410.9 L1945.03 1410.9 L1887.11 1410.9 L1887.11 1410.9  Z" fill="#009af9" fill-rule="evenodd" fill-opacity="1"/>
<polyline clip-path="url(#clip121)" style="stroke:#000000; stroke-linecap:round; stroke-linejoin:round; stroke-width:4; stroke-opacity:1; fill:none" points="1887.11,1410.9 1887.11,1410.9 1945.03,1410.9 1887.11,1410.9 "/>
<path clip-path="url(#clip121)" d="M1945.03 1410.9 L1945.03 1410.9 L2002.95 1410.9 L2002.95 1410.9 L1945.03 1410.9 L1945.03 1410.9  Z" fill="#009af9" fill-rule="evenodd" fill-opacity="1"/>
<polyline clip-path="url(#clip121)" style="stroke:#000000; stroke-linecap:round; stroke-linejoin:round; stroke-width:4; stroke-opacity:1; fill:none" points="1945.03,1410.9 1945.03,1410.9 2002.95,1410.9 1945.03,1410.9 "/>
<path clip-path="url(#clip121)" d="M2002.95 1410.9 L2002.95 1410.9 L2060.87 1410.9 L2060.87 1410.9 L2002.95 1410.9 L2002.95 1410.9  Z" fill="#009af9" fill-rule="evenodd" fill-opacity="1"/>
<polyline clip-path="url(#clip121)" style="stroke:#000000; stroke-linecap:round; stroke-linejoin:round; stroke-width:4; stroke-opacity:1; fill:none" points="2002.95,1410.9 2002.95,1410.9 2060.87,1410.9 2002.95,1410.9 "/>
<path clip-path="url(#clip121)" d="M2060.87 1410.9 L2060.87 1410.9 L2118.79 1410.9 L2118.79 1410.9 L2060.87 1410.9 L2060.87 1410.9  Z" fill="#009af9" fill-rule="evenodd" fill-opacity="1"/>
<polyline clip-path="url(#clip121)" style="stroke:#000000; stroke-linecap:round; stroke-linejoin:round; stroke-width:4; stroke-opacity:1; fill:none" points="2060.87,1410.9 2060.87,1410.9 2118.79,1410.9 2060.87,1410.9 "/>
<path clip-path="url(#clip121)" d="M2118.79 1410.9 L2118.79 1410.9 L2176.71 1410.9 L2176.71 1410.9 L2118.79 1410.9 L2118.79 1410.9  Z" fill="#009af9" fill-rule="evenodd" fill-opacity="1"/>
<polyline clip-path="url(#clip121)" style="stroke:#000000; stroke-linecap:round; stroke-linejoin:round; stroke-width:4; stroke-opacity:1; fill:none" points="2118.79,1410.9 2118.79,1410.9 2176.71,1410.9 2118.79,1410.9 "/>
<path clip-path="url(#clip121)" d="M2176.71 1379.9 L2176.71 1410.9 L2234.63 1410.9 L2234.63 1379.9 L2176.71 1379.9 L2176.71 1379.9  Z" fill="#009af9" fill-rule="evenodd" fill-opacity="1"/>
<polyline clip-path="url(#clip121)" style="stroke:#000000; stroke-linecap:round; stroke-linejoin:round; stroke-width:4; stroke-opacity:1; fill:none" points="2176.71,1379.9 2176.71,1410.9 2234.63,1410.9 2234.63,1379.9 2176.71,1379.9 "/>
<circle clip-path="url(#clip121)" style="fill:#009af9; stroke:none; fill-opacity:0" cx="352.205" cy="47.2441" r="2"/>
<circle clip-path="url(#clip121)" style="fill:#009af9; stroke:none; fill-opacity:0" cx="410.126" cy="698.078" r="2"/>
<circle clip-path="url(#clip121)" style="fill:#009af9; stroke:none; fill-opacity:0" cx="468.047" cy="1100.98" r="2"/>
<circle clip-path="url(#clip121)" style="fill:#009af9; stroke:none; fill-opacity:0" cx="525.968" cy="1162.96" r="2"/>
<circle clip-path="url(#clip121)" style="fill:#009af9; stroke:none; fill-opacity:0" cx="583.888" cy="1255.94" r="2"/>
<circle clip-path="url(#clip121)" style="fill:#009af9; stroke:none; fill-opacity:0" cx="641.809" cy="1379.9" r="2"/>
<circle clip-path="url(#clip121)" style="fill:#009af9; stroke:none; fill-opacity:0" cx="699.73" cy="1379.9" r="2"/>
<circle clip-path="url(#clip121)" style="fill:#009af9; stroke:none; fill-opacity:0" cx="757.651" cy="1348.91" r="2"/>
<circle clip-path="url(#clip121)" style="fill:#009af9; stroke:none; fill-opacity:0" cx="815.572" cy="1348.91" r="2"/>
<circle clip-path="url(#clip121)" style="fill:#009af9; stroke:none; fill-opacity:0" cx="873.493" cy="1379.9" r="2"/>
<circle clip-path="url(#clip121)" style="fill:#009af9; stroke:none; fill-opacity:0" cx="931.413" cy="1410.9" r="2"/>
<circle clip-path="url(#clip121)" style="fill:#009af9; stroke:none; fill-opacity:0" cx="989.334" cy="1379.9" r="2"/>
<circle clip-path="url(#clip121)" style="fill:#009af9; stroke:none; fill-opacity:0" cx="1047.26" cy="1379.9" r="2"/>
<circle clip-path="url(#clip121)" style="fill:#009af9; stroke:none; fill-opacity:0" cx="1105.18" cy="1410.9" r="2"/>
<circle clip-path="url(#clip121)" style="fill:#009af9; stroke:none; fill-opacity:0" cx="1163.1" cy="1410.9" r="2"/>
<circle clip-path="url(#clip121)" style="fill:#009af9; stroke:none; fill-opacity:0" cx="1221.02" cy="1410.9" r="2"/>
<circle clip-path="url(#clip121)" style="fill:#009af9; stroke:none; fill-opacity:0" cx="1278.94" cy="1410.9" r="2"/>
<circle clip-path="url(#clip121)" style="fill:#009af9; stroke:none; fill-opacity:0" cx="1336.86" cy="1410.9" r="2"/>
<circle clip-path="url(#clip121)" style="fill:#009af9; stroke:none; fill-opacity:0" cx="1394.78" cy="1410.9" r="2"/>
<circle clip-path="url(#clip121)" style="fill:#009af9; stroke:none; fill-opacity:0" cx="1452.7" cy="1410.9" r="2"/>
<circle clip-path="url(#clip121)" style="fill:#009af9; stroke:none; fill-opacity:0" cx="1510.62" cy="1410.9" r="2"/>
<circle clip-path="url(#clip121)" style="fill:#009af9; stroke:none; fill-opacity:0" cx="1568.54" cy="1410.9" r="2"/>
<circle clip-path="url(#clip121)" style="fill:#009af9; stroke:none; fill-opacity:0" cx="1626.46" cy="1410.9" r="2"/>
<circle clip-path="url(#clip121)" style="fill:#009af9; stroke:none; fill-opacity:0" cx="1684.38" cy="1410.9" r="2"/>
<circle clip-path="url(#clip121)" style="fill:#009af9; stroke:none; fill-opacity:0" cx="1742.31" cy="1410.9" r="2"/>
<circle clip-path="url(#clip121)" style="fill:#009af9; stroke:none; fill-opacity:0" cx="1800.23" cy="1410.9" r="2"/>
<circle clip-path="url(#clip121)" style="fill:#009af9; stroke:none; fill-opacity:0" cx="1858.15" cy="1410.9" r="2"/>
<circle clip-path="url(#clip121)" style="fill:#009af9; stroke:none; fill-opacity:0" cx="1916.07" cy="1410.9" r="2"/>
<circle clip-path="url(#clip121)" style="fill:#009af9; stroke:none; fill-opacity:0" cx="1973.99" cy="1410.9" r="2"/>
<circle clip-path="url(#clip121)" style="fill:#009af9; stroke:none; fill-opacity:0" cx="2031.91" cy="1410.9" r="2"/>
<circle clip-path="url(#clip121)" style="fill:#009af9; stroke:none; fill-opacity:0" cx="2089.83" cy="1410.9" r="2"/>
<circle clip-path="url(#clip121)" style="fill:#009af9; stroke:none; fill-opacity:0" cx="2147.75" cy="1410.9" r="2"/>
<circle clip-path="url(#clip121)" style="fill:#009af9; stroke:none; fill-opacity:0" cx="2205.67" cy="1379.9" r="2"/>
</svg>
